<svg id="Layer_1" data-name="Layer 1" xmlns="http://www.w3.org/2000/svg" viewBox="0 0 532.7 212.56"><defs><style>.cls-1{fill:#414042;}.cls-2{fill:#dc7a28;}</style></defs><path class="cls-1" d="M267.4,41.12h17.38l28.82,77.07H296L290.17,101H261.35l-6,17.17H238.15ZM265.78,88.4h20L276,60.12h-.21Z" transform="translate(-7.92 -12.46)"/><path class="cls-1" d="M322,72.64h-9.17V62.38H322V58.06c0-9.82,6.16-16.94,18.68-16.94,2.7,0,5.5.32,8.09.43V53a46.62,46.62,0,0,0-5.61-.32c-4.1,0-5.83,1.72-5.83,6.37v3.34h10.58V72.64H337.34v45.55H322Z" transform="translate(-7.92 -12.46)"/><path class="cls-1" d="M354.61,62.38h14.57V72.74h.22a19.74,19.74,0,0,1,17.81-11.87,11.63,11.63,0,0,1,3.35.54V75.66a27.58,27.58,0,0,0-5.51-.54c-11.23,0-15.11,8.09-15.11,17.92v25.15H354.61Z" transform="translate(-7.92 -12.46)"/><path class="cls-1" d="M412.36,53.75H397V41.12h15.33ZM397,62.38h15.33v55.81H397Z" transform="translate(-7.92 -12.46)"/><path class="cls-1" d="M462.44,80c-1-6.26-5-9.61-11.33-9.61-9.83,0-13.06,9.93-13.06,18.13,0,8,3.13,17.6,12.73,17.6,7.13,0,11.23-4.54,12.2-11.33h14.79c-1.94,14.78-12.2,22.88-26.88,22.88-16.84,0-28.17-11.87-28.17-28.61,0-17.37,10.36-30.22,28.5-30.22,13.16,0,25.25,6.91,26.22,21.16Z" transform="translate(-7.92 -12.46)"/><path class="cls-1" d="M485.75,79.54c.87-14.35,13.71-18.67,26.23-18.67,11.12,0,24.51,2.48,24.51,15.87v29c0,5.08.54,10.15,1.94,12.42H522.89a22.4,22.4,0,0,1-1.08-5.4c-4.86,5.07-12,6.91-18.79,6.91-10.57,0-19-5.29-19-16.73,0-12.63,9.5-15.65,19-17s18.14-1.08,18.14-7.34c0-6.58-4.53-7.55-9.93-7.55-5.83,0-9.61,2.37-10.15,8.41Zm35.41,11.34c-2.59,2.26-8,2.37-12.74,3.24s-9.07,2.59-9.07,8.2,4.43,7.12,9.4,7.12c12,0,12.41-9.49,12.41-12.84Z" transform="translate(-7.92 -12.46)"/><path class="cls-1" d="M289.5,147.34c-1-7.09-7.79-12.49-15.58-12.49-14.08,0-19.37,12-19.37,24.47,0,11.88,5.29,23.87,19.37,23.87,9.59,0,15-6.59,16.18-16h15.17c-1.59,17.77-13.88,29.16-31.35,29.16-22.07,0-35.05-16.48-35.05-37.05,0-21.17,13-37.65,35.05-37.65,15.68,0,28.86,9.19,30.75,25.67Z" transform="translate(-7.92 -12.46)"/><path class="cls-1" d="M314.46,123.37h14.17v26.86h.3A18.14,18.14,0,0,1,344,141.65c15.08,0,18.88,8.48,18.88,21.27v31.75H348.71V165.51c0-8.49-2.5-12.68-9.09-12.68-7.69,0-11,4.29-11,14.78v27.06H314.46Z" transform="translate(-7.92 -12.46)"/><path class="cls-1" d="M385.35,172.3c.4,9,4.79,13.08,12.68,13.08,5.69,0,10.29-3.49,11.18-6.69H421.7c-4,12.18-12.49,17.38-24.17,17.38-16.28,0-26.36-11.19-26.36-27.16,0-15.48,10.68-27.26,26.36-27.26,17.58,0,26.06,14.77,25.06,30.65Zm23.07-9c-1.3-7.19-4.4-11-11.29-11-9,0-11.58,7-11.78,11Z" transform="translate(-7.92 -12.46)"/><path class="cls-1" d="M466.13,161.22c-.9-5.79-4.6-8.89-10.49-8.89-9.08,0-12.08,9.19-12.08,16.78,0,7.39,2.9,16.27,11.78,16.27,6.59,0,10.39-4.19,11.29-10.48h13.68c-1.8,13.68-11.29,21.17-24.87,21.17-15.58,0-26.06-11-26.06-26.46,0-16.08,9.59-28,26.36-28,12.18,0,23.37,6.39,24.27,19.57Z" transform="translate(-7.92 -12.46)"/><path class="cls-1" d="M489.59,123.37h14.18v38.25L521.64,143h16.78L519,162l21.67,32.65H523.44L509.26,171.6l-5.49,5.29v17.78H489.59Z" transform="translate(-7.92 -12.46)"/><path class="cls-1" d="M114.2,12.46A106.28,106.28,0,1,0,220.48,118.74,106.28,106.28,0,0,0,114.2,12.46Zm0,196.61a90.33,90.33,0,1,1,90.32-90.33A90.33,90.33,0,0,1,114.2,209.07Z" transform="translate(-7.92 -12.46)"/><path class="cls-2" d="M75.31,57.1l-1.56.67s-.44,1.9-1.34,2.35S68.4,62,68,62.68s-1.9,1.79-1.9,2.91.56,2.34,0,3.12-1.56,3-3,3.79a11.6,11.6,0,0,0-3.68,2.57c-.9,1.12-2.35,1.56-2.46,2.46s0,2.34-.67,2.68c0,0-1.67,0-1.9,1s-1.45,3-1.45,4.13a7,7,0,0,0,.67,3.24c.56,1.22,1.12,2.34.89,3.46a14,14,0,0,1-.89,2.45,2.89,2.89,0,0,0,.23,1.67l-1.12,1.57-1.45.67s1.11.44,1.23,1.11.67,1.45.55,2.35-.33,1.56.23,2.12a11.68,11.68,0,0,0,2.34,1.34,19.25,19.25,0,0,0,1.23,1.89,19.67,19.67,0,0,0,2,2.12,12.78,12.78,0,0,0,.89,2,5.07,5.07,0,0,0,1.9,1.68l1.23.11s2.12,2.12,2.67,2.56,2.24,2,3.35,2.13a4.46,4.46,0,0,0,3.13-.45c1.11-.67,4.24-1.12,5.24-1.23s2.46,1.12,2.46,1.12,2.9-.56,3.35-1.12a6.35,6.35,0,0,1,2.79-1.23,38.37,38.37,0,0,1,3.9.12l1.23-1.12,2.57.56s1,.89,1,1.34a10.93,10.93,0,0,0,.33,1.67l3.8-.22,2.12.33,1.34,1.12.56,2.9-.78,1.9,1-.11-.45,2-1.45.12v2.23l-.11,4.35,1.79,4.35,2.45,3.46L106.9,143l1.67,1.22,1.79.23.33,1.9-2.45,2.67L107,152.41s-.11,4.47-.11,4.8.11,2.46.11,2.46l1.23,1.34.67.22a16.32,16.32,0,0,1,1.45,3.68c.44,1.9.89,3.46.89,3.46l.11,3,1.56,1.79-.33,2.46,2,2.23,1.23,1.89.78,2.79,1.45,2,.22,3.46,1.34,2.12.45,1.45,1.56.56.89-1.11,2,.33,1.79-.45s2.56-.11,4.46-.33a22.63,22.63,0,0,0,3.68-.78s3-.89,4.13-2.23a21.06,21.06,0,0,0,3-4.24,9.08,9.08,0,0,1,1.89-2.57l2.12-1.68,1-5,.22-.89,1.12-.78h1l.34-1,.78-.55.44-1.45.79-.9.11-1.45-.9-.78v-2.34l-.44-.45v-1.34l1.78-1.23,2-2.9,3.8-1.45,1.56-.67,1.23-1.34.11-1.45,1.11-1.11-.78-1.12v-5.8l-.67-1.34-1.11-1.23a23.87,23.87,0,0,1-.78-3.13,21.09,21.09,0,0,0-.34-2.79,6,6,0,0,1-.22-1.45l.78-1.78,1.23-.78.33-1.9,1.23-2,2.57-1.67,1.22-1.23.34-1.68,4.8-2.56,3.46-2.35,2.56-2.9a30.88,30.88,0,0,1,1.68-4.46c.67-1.12,2.34-3.24,2.34-3.24l.45-4.46-1.68.22-1.56,1.12h-3.12l-.56.89-3.8-.22-1.33,1.11s-1.46-.33-2-.44a4.08,4.08,0,0,0-1.23,0,10.48,10.48,0,0,1-1.12-2.46,11.75,11.75,0,0,1,.11-2.34l-1.56-2.57a18.25,18.25,0,0,1-2.68-1.23c-1.11-.67-2.45-1.78-2.67-2.79S156.9,93,156.9,93s-2.35-1.12-2.35-1.45-.78-5.25-.78-5.25L151,82.44l-.56-2-1.56-2.23A22.11,22.11,0,0,0,147.52,74c-.78-1.57-2.45-4.25-2.34-4.58a19.18,19.18,0,0,0,.11-2.34l-.89-1.23h-2.79l-1,1-3.9-.44-1-.56-4.24.11-.89-1-3.24-.45L126.43,63l-3-.22-2,2.34-.23,2.9-2.79-.11-1.89-1.45-1.9.11-3.68-3.35-4.8.11-.9-1.89h-1.67V60s2.12-.79,1.79-2a14.8,14.8,0,0,0-.9-2.35l.56-1.56-2-.22-2.56.33L100,55l-2.23-1.11-10.16.67-1.23,1.11L81.9,57.44l-.56,1.23L78.77,59l-2.9-.56Z" transform="translate(-7.92 -12.46)"/><polygon class="cls-1" points="37.6 108.16 72.19 134.76 161.96 50.3 76.51 165.68 37.6 108.16"/><path class="cls-2" d="M177.29,148.89a9.13,9.13,0,0,0-1.75,2.5,12.3,12.3,0,0,1-1.88,3.12,5.24,5.24,0,0,1-1.87.63v1.12h-3.38s-1,1.63-.87,2.38,1.37,1.87,1.12,2.87-.77,1.25-1.13,2.75a18.1,18.1,0,0,0,0,5.25c.13,1.38.38,2.5,1,2.75s.87-.12,2,.75a10.5,10.5,0,0,1,1.77,1.75,16.76,16.76,0,0,0,2.73-3.62c.75-1.63,1.37-2,2.25-3.75s.75-8.25.75-8.25,1.62-2.75,2.12-3.38,0-2.25,0-2.25l-1.25-1.37.38-1.75Z" transform="translate(-7.92 -12.46)"/></svg>