<svg id="Layer_1" data-name="Layer 1" xmlns="http://www.w3.org/2000/svg" xmlns:xlink="http://www.w3.org/1999/xlink"  transform="scale(-1, 1) translate(0, -100)" viewBox="0 0 1069.82 837.5">
  <defs>
    <style>
.cls-1,.cls-15,.cls-2{fill:#005ea6;}.cls-1,.cls-17,.cls-2,.cls-3,.cls-7{isolation:isolate;}.cls-1,.cls-13,.cls-17,.cls-3{opacity:0.1;}.cls-2{opacity:0.3;}.cls-4{fill:url(#linear-gradient);}.cls-5{fill:#efb7b9;}.cls-6{fill:#e1e7ef;}.cls-7{opacity:0.05;}.cls-8{fill:#b07473;}.cls-9{fill:#444053;}.cls-10{fill:#67647e;}.cls-11{fill:url(#linear-gradient-2);}.cls-12{fill:#585268;}.cls-14{fill:#535461;}.cls-16{fill:#a8a8a8;}.cls-18{fill:#fff;}
</style>
    <linearGradient id="linear-gradient" x1="996.67" y1="2865.7" x2="996.67" y2="3004.58" gradientTransform="matrix(0.96, -0.28, -0.28, -0.96, 443.7, 3579.27)" gradientUnits="userSpaceOnUse">
      <stop offset="0" stop-color="gray" stop-opacity="0.25"/>
      <stop offset="0.54" stop-color="gray" stop-opacity="0.12"/>
      <stop offset="1" stop-color="gray" stop-opacity="0.1"/>
    </linearGradient>
    <linearGradient id="linear-gradient-2" x1="743.16" y1="2938.9" x2="801.68" y2="2938.9" xlink:href="#linear-gradient"/>
  </defs>
  <path class="cls-1" d="M512.91,569h6a4.23,4.23,0,1,1,0-8.46h49a4.23,4.23,0,1,1,0,8.46h-6a4.23,4.23,0,1,1,0,8.46h8.45a4.23,4.23,0,0,1,0,8.46h-49a4.23,4.23,0,0,1,0-8.46h-8.46a4.23,4.23,0,1,1,0-8.46Z"/>
  <path class="cls-2" d="M512.84,548.57a3.94,3.94,0,0,0,2.2-4.77,3.12,3.12,0,0,1-.09-.44h0a2,2,0,0,1,3.56-1.31h0a1.87,1.87,0,0,1,.22.39,3.93,3.93,0,0,0,4.77,2.19,2.14,2.14,0,0,1,.44-.08h0a2,2,0,0,1,1.31,3.55h0a1.87,1.87,0,0,1-.39.22,3.94,3.94,0,0,0-2.2,4.77,3.12,3.12,0,0,1,.09.44h0a2,2,0,0,1-3.56,1.31h0a1.87,1.87,0,0,1-.22-.39,4,4,0,0,0-4.77-2.2,1.64,1.64,0,0,1-.44.09h0a2,2,0,0,1-1.31-3.55h0A1.87,1.87,0,0,1,512.84,548.57Z"/>
  <path class="cls-3" d="M753.61,388.24c.56,1.87-1.61,7.25-5.57,14.85-5.76-2.24-13.25-8.09-16.19-10.49.77-1.4,1.14-2.62.76-3.37C731.38,386.72,750.36,377.51,753.61,388.24Z"/>
  <path class="cls-3" d="M777.46,387.8a15,15,0,0,0-3.15,3.26c-4,6.22-24.2-11.06-24.2-11.06s-.7-1.05-1.6-2.66c3.82-4.59,7-8.49,7-8.49C764.21,362.6,774.13,380.94,777.46,387.8Z"/>
  <path class="cls-3" d="M505.07,560.43a75.79,75.79,0,0,0,10.24-6.66C520.65,549.57,505.07,560.43,505.07,560.43Z"/>
  <path class="cls-1" d="M645.19,31.85a8.93,8.93,0,0,1-8.64,8.63H533.19a8.94,8.94,0,0,1,0-17.87H515.33a8.93,8.93,0,1,1,0-17.86h12.76a9,9,0,0,1-3-.62Q544.81,2.63,565,2.62A524.15,524.15,0,0,1,622.9,5.81a8.93,8.93,0,0,1-4.21,16.8h17.86A8.94,8.94,0,0,1,645.19,31.85Z"/>
  <path class="cls-1" d="M662.66,141.62h12.76a8.93,8.93,0,1,1,0-17.86H778.78a8.93,8.93,0,1,1,0,17.86H766a8.93,8.93,0,0,1,0,17.86h17.89a8.94,8.94,0,0,1,0,17.87H680.52a8.94,8.94,0,0,1,0-17.87H662.66a8.93,8.93,0,1,1,0-17.86Z"/>
  <path class="cls-1" d="M378.2,640.92H383a3.38,3.38,0,0,1,0-6.75h39.06a3.38,3.38,0,0,1,0,6.75h-4.82a3.38,3.38,0,0,1,0,6.75H424a3.38,3.38,0,0,1,0,6.75h-39.1a3.38,3.38,0,1,1-.37-6.75h-6.38a3.38,3.38,0,1,1-.37-6.75h.41Z"/>
  <path class="cls-1" d="M213.09,515.12h6a4.23,4.23,0,0,1,0-8.46h48.93a4.23,4.23,0,1,1,0,8.46h-6a4.23,4.23,0,1,1,0,8.46h8.46a4.23,4.23,0,1,1,0,8.46h-49a4.23,4.23,0,0,1,0-8.46h-8.46a4.23,4.23,0,1,1,0-8.46Z"/>
  <path class="cls-1" d="M639.91,647.35h6a4.23,4.23,0,0,1,0-8.46h49a4.23,4.23,0,0,1,0,8.46h-6a4.23,4.23,0,0,1,0,8.46h8.46a4.23,4.23,0,0,1,0,8.45h-49a4.23,4.23,0,1,1-.41-8.45h-8a4.23,4.23,0,0,1,0-8.46Z"/>
  <path class="cls-2" d="M707.91,307.75a2.84,2.84,0,0,0-.92-3.67,1.21,1.21,0,0,1-.24-.21h0a1.43,1.43,0,0,1,1.4-2.35h0a1.57,1.57,0,0,1,.3.12,2.86,2.86,0,0,0,3.68-.91,1.27,1.27,0,0,1,.21-.25h0a1.43,1.43,0,0,1,2.34,1.41h0a1.88,1.88,0,0,1-.12.3,2.84,2.84,0,0,0,.92,3.67,1.64,1.64,0,0,1,.25.21h0a1.43,1.43,0,0,1-1.41,2.34h0a.79.79,0,0,1-.3-.12,2.86,2.86,0,0,0-3.68.92,1.22,1.22,0,0,1-.2.25h0a1.43,1.43,0,0,1-2-.09,1.42,1.42,0,0,1-.33-1.32h0A1.88,1.88,0,0,1,707.91,307.75Z"/>
  <path class="cls-2" d="M1024.59,139.07a2.83,2.83,0,0,0-.92-3.67,1.21,1.21,0,0,1-.24-.21h0a1.43,1.43,0,0,1,.09-2,1.42,1.42,0,0,1,1.32-.33h0a1.48,1.48,0,0,1,.29.12,2.84,2.84,0,0,0,3.68-.92,1.21,1.21,0,0,1,.21-.24h0a1.43,1.43,0,0,1,2.34,1.41h0a.81.81,0,0,1-.12.29,2.86,2.86,0,0,0,.92,3.68,1.64,1.64,0,0,1,.25.21h0a1.43,1.43,0,0,1-1.41,2.34h0a1.57,1.57,0,0,1-.3-.12,2.85,2.85,0,0,0-3.67.92,1.64,1.64,0,0,1-.21.25h0a1.43,1.43,0,0,1-2-.09,1.42,1.42,0,0,1-.33-1.32h0A1.88,1.88,0,0,1,1024.59,139.07Z"/>
  <path class="cls-2" d="M1029.46,592.13a2.84,2.84,0,0,0-.92-3.67,1.21,1.21,0,0,1-.24-.21h0a1.42,1.42,0,0,1,1.4-2.34h0a.79.79,0,0,1,.3.12,2.86,2.86,0,0,0,3.68-.92,1.22,1.22,0,0,1,.2-.25h0a1.43,1.43,0,0,1,2,.09,1.42,1.42,0,0,1,.33,1.32h0a1.88,1.88,0,0,1-.12.3,2.84,2.84,0,0,0,.92,3.67,1.21,1.21,0,0,1,.24.21h0a1.42,1.42,0,0,1-1.36,2.3h0a1,1,0,0,1-.3-.11,2.86,2.86,0,0,0-3.68.91,1.27,1.27,0,0,1-.21.25h0a1.43,1.43,0,0,1-2.34-1.41h0A2,2,0,0,1,1029.46,592.13Z"/>
  <path class="cls-2" d="M49.29,38a2.85,2.85,0,0,0-.92-3.68,1.21,1.21,0,0,1-.24-.21h0a1.42,1.42,0,0,1,1.4-2.34h0a1.57,1.57,0,0,1,.3.12A2.85,2.85,0,0,0,53.51,31a1.64,1.64,0,0,1,.21-.25h0a1.43,1.43,0,0,1,2.34,1.41h0a1.57,1.57,0,0,1-.12.3,2.85,2.85,0,0,0,.92,3.68,1.57,1.57,0,0,1,.25.2h0a1.43,1.43,0,0,1-.09,2,1.42,1.42,0,0,1-1.32.33h0a1.57,1.57,0,0,1-.3-.12,2.85,2.85,0,0,0-3.68.92,1.16,1.16,0,0,1-.2.24h0a1.43,1.43,0,0,1-2.35-1.4h0A1.57,1.57,0,0,1,49.29,38Z"/>
  <path class="cls-2" d="M1.54,7.65A2.84,2.84,0,0,0,.62,4a1.21,1.21,0,0,1-.24-.21h0a1.43,1.43,0,0,1,1.4-2.35h0a1.57,1.57,0,0,1,.3.12A2.86,2.86,0,0,0,5.76.63,2.43,2.43,0,0,1,6,.38H6A1.43,1.43,0,0,1,8,.49a1.45,1.45,0,0,1,.33,1.26h0A1.48,1.48,0,0,1,8.19,2a2.86,2.86,0,0,0,.92,3.71A1.21,1.21,0,0,1,9.35,6h0a1.42,1.42,0,0,1,0,2,1.4,1.4,0,0,1-1.42.34h0a.79.79,0,0,1-.3-.12,2.86,2.86,0,0,0-3.68.92,1.27,1.27,0,0,1-.21.25h0A1.43,1.43,0,0,1,1.38,8h0A1.73,1.73,0,0,1,1.54,7.65Z"/>
  <path class="cls-2" d="M381.91,228.2a2.84,2.84,0,0,0-.92-3.67,1.21,1.21,0,0,1-.24-.21h0a1.43,1.43,0,0,1,1.4-2.35h0a1.57,1.57,0,0,1,.3.12,2.86,2.86,0,0,0,3.68-.91,1.22,1.22,0,0,1,.2-.25h0a1.43,1.43,0,0,1,2,.09,1.42,1.42,0,0,1,.33,1.32h0a1.48,1.48,0,0,1-.12.29,2.85,2.85,0,0,0,.92,3.68,1.21,1.21,0,0,1,.24.21h0a1.42,1.42,0,0,1-1.4,2.34h0a.79.79,0,0,1-.3-.12,2.86,2.86,0,0,0-3.68.92,1.27,1.27,0,0,1-.21.25h0a1.43,1.43,0,0,1-2.34-1.41h0A1.88,1.88,0,0,1,381.91,228.2Z"/>
  <path class="cls-2" d="M205.54,345.69a2.84,2.84,0,0,0-.92-3.67,1.21,1.21,0,0,1-.24-.21h0a1.42,1.42,0,0,1,1.4-2.34h0a.79.79,0,0,1,.3.12,2.86,2.86,0,0,0,3.68-.92,2.43,2.43,0,0,1,.2-.25h0a1.43,1.43,0,0,1,2,.09,1.42,1.42,0,0,1,.33,1.32h0a1.88,1.88,0,0,1-.12.3,2.84,2.84,0,0,0,.92,3.67,1.21,1.21,0,0,1,.24.21h0a1.42,1.42,0,0,1-1.4,2.34h0a.79.79,0,0,1-.3-.12,2.86,2.86,0,0,0-3.68.92,2.43,2.43,0,0,1-.2.25h0a1.43,1.43,0,0,1-2-.09,1.42,1.42,0,0,1-.33-1.32h0A1.88,1.88,0,0,1,205.54,345.69Z"/>
  <path class="cls-2" d="M481.54,192a2.84,2.84,0,0,0-1.34-3.54,1.27,1.27,0,0,1-.27-.18h0a1.42,1.42,0,0,1,1.12-2.49h0a1.09,1.09,0,0,1,.31.08,2.86,2.86,0,0,0,3.55-1.34,1.27,1.27,0,0,1,.18-.27h0a1.44,1.44,0,0,1,2-.13,1.46,1.46,0,0,1,.47,1.26h0a1.58,1.58,0,0,1-.09.31,2.86,2.86,0,0,0,1.35,3.54,1.51,1.51,0,0,1,.26.18h0A1.43,1.43,0,0,1,488,192h0a1.57,1.57,0,0,1-.31-.08,2.84,2.84,0,0,0-3.54,1.34,2.11,2.11,0,0,1-.18.27h0a1.44,1.44,0,0,1-2,.13,1.46,1.46,0,0,1-.47-1.26h0A1.09,1.09,0,0,1,481.54,192Z"/>
  <path class="cls-2" d="M931.44,501a3.94,3.94,0,0,0,2.2-4.77,2.14,2.14,0,0,1-.08-.44h0a2,2,0,0,1,3.55-1.31h0a1.87,1.87,0,0,1,.22.39,3.94,3.94,0,0,0,4.77,2.2,1.64,1.64,0,0,1,.44-.09h0a2,2,0,0,1,1.31,3.56h0a1.87,1.87,0,0,1-.39.22,4,4,0,0,0-2.2,4.77,1.64,1.64,0,0,1,.09.44h0a2,2,0,0,1-3.56,1.31h0a1.47,1.47,0,0,1-.21-.39,3.94,3.94,0,0,0-4.77-2.2,3.12,3.12,0,0,1-.44.09h0a2,2,0,0,1-1.31-3.56h0A2.08,2.08,0,0,1,931.44,501Z"/>
  <path class="cls-2" d="M322.5,538.86a4,4,0,0,0,2.2-4.77,1.57,1.57,0,0,1-.09-.43h0a2,2,0,0,1,3.56-1.32h0a1.87,1.87,0,0,1,.22.39,3.93,3.93,0,0,0,4.77,2.2,1.56,1.56,0,0,1,.43-.08h0a2,2,0,0,1,1.31,3.55h0a1.79,1.79,0,0,1-.38.22,3.94,3.94,0,0,0-2.2,4.77,2.14,2.14,0,0,1,.08.44h0a2,2,0,0,1-3.55,1.31h0a1.87,1.87,0,0,1-.22-.39,4,4,0,0,0-4.77-2.2,1.64,1.64,0,0,1-.44.09h0a2,2,0,0,1-1.31-3.56h0A1.87,1.87,0,0,1,322.5,538.86Z"/>
  <circle class="cls-1" cx="121.87" cy="103.29" r="16.5"/>
  <circle class="cls-1" cx="944.65" cy="119.79" r="16.5"/>
  <circle class="cls-1" cx="199.87" cy="21.37" r="9"/>
  <circle class="cls-1" cx="1060.82" cy="283.28" r="9"/>
  <circle class="cls-1" cx="138.37" cy="743.99" r="9"/>
  <circle class="cls-1" cx="172.87" cy="784.52" r="9"/>
  <circle class="cls-1" cx="105.37" cy="808.95" r="9"/>
  <path class="cls-1" d="M640.09,806.54a8.93,8.93,0,0,1-8.64,8.63H618.69a8.93,8.93,0,0,1,3.92,17A515.38,515.38,0,0,1,565,835.25q-18,0-35.64-1.2a8.92,8.92,0,0,1,3.85-1H515.33a8.93,8.93,0,0,1,0-17.86h12.76a8.94,8.94,0,0,1,0-17.87H631.45A8.94,8.94,0,0,1,640.09,806.54Z"/>
</svg>
