<!--Scalable Vector Graphic-->
<svg xmlns="http://www.w3.org/2000/svg" xmlns:xlink="http://www.w3.org/1999/xlink"  width="100%" height="100%" viewBox="0 0 100% 100%" preserveAspectRatio="none">
  <ellipse cx="123.63" cy="680.6" rx="30.65" ry="4.21" fill="#005ea6" opacity="0.1"/>
  <ellipse cx="241.04" cy="692.51" rx="30.65" ry="4.21" fill="#005ea6" opacity="0.1"/>
  <ellipse cx="379.33" cy="676.39" rx="30.65" ry="4.21" fill="#005ea6" opacity="0.1"/>
  <ellipse cx="194.05" cy="726.4" rx="21.79" ry="2.99" fill="#005ea6" opacity="0.1"/>
  <ellipse cx="315.9" cy="723.41" rx="21.79" ry="2.99" fill="#005ea6" opacity="0.1"/>
  <path d="M273.13,729.27s-43-140.92,6.73-197.36c37.19-42.22,79.4-37.17,98.31-31.95a34.91,34.91,0,0,1,22.55,18.74c6.61,14.26,5.41,37.41-41.24,64.42-78.12,45.23-83,107.27-83,107.27Z" transform="translate(-31.44 -37.71)" fill="#fff"/>
  <path d="M271.4,730.39S321.74,628,335.57,630.21c6.57,1.07,9.6,7.53,11,14a41.18,41.18,0,0,1-2.74,24.93C336.65,685.55,317.46,716.68,271.4,730.39Z" transform="translate(-31.44 -37.71)" fill="#005ea6"/>
  <path d="M335.2,649.65s-52.85,76.63-63.06,80" transform="translate(-31.44 -37.71)" fill="none" stroke="#565987" stroke-miterlimit="10"/>
  <line x1="308.62" y1="623.91" x2="296.28" y2="623.91" fill="none" stroke="#565987" stroke-miterlimit="10"/>
  <line x1="293.84" y1="651.94" x2="274.51" y2="652.77" fill="none" stroke="#565987" stroke-miterlimit="10"/>
  <line x1="282.08" y1="629.51" x2="284.18" y2="639.58" fill="none" stroke="#565987" stroke-miterlimit="10"/>
  <line x1="261.52" y1="660.16" x2="261.89" y2="669.32" fill="none" stroke="#565987" stroke-miterlimit="10"/>
  <path d="M272.89,730.39S222.55,628,208.72,630.21c-6.57,1.07-9.6,7.53-11,14a41.25,41.25,0,0,0,2.74,24.93C207.64,685.55,226.83,716.68,272.89,730.39Z" transform="translate(-31.44 -37.71)" fill="#005ea6"/>
  <path d="M209.09,649.65s52.84,76.63,63,80" transform="translate(-31.44 -37.71)" fill="none" stroke="#565987" stroke-miterlimit="10"/>
  <line x1="172.79" y1="623.91" x2="185.13" y2="623.91" fill="none" stroke="#565987" stroke-miterlimit="10"/>
  <line x1="187.57" y1="651.94" x2="206.9" y2="652.77" fill="none" stroke="#565987" stroke-miterlimit="10"/>
  <line x1="199.33" y1="629.51" x2="197.23" y2="639.58" fill="none" stroke="#565987" stroke-miterlimit="10"/>
  <line x1="219.89" y1="660.16" x2="219.52" y2="669.32" fill="none" stroke="#565987" stroke-miterlimit="10"/>
  <path d="M359.33,754.31A8.73,8.73,0,0,0,362.2,750a3.85,3.85,0,0,0-2-4.4c-1.84-.7-3.81.57-5.3,1.86s-3.19,2.75-5.14,2.48a7.82,7.82,0,0,0,2.42-7.33,3.08,3.08,0,0,0-.67-1.49c-1-1.09-2.88-.62-4.1.24-3.89,2.73-5,8-5,12.76-.39-1.71-.06-3.5-.07-5.26s-.49-3.7-2-4.65a6,6,0,0,0-3-.71c-1.75-.06-3.69.11-4.89,1.39-1.48,1.59-1.1,4.25.19,6s3.26,2.85,5.06,4a11.26,11.26,0,0,1,3.62,3.45,5,5,0,0,1,.27.62h10.95A30.39,30.39,0,0,0,359.33,754.31Z" transform="translate(-31.44 -37.71)" fill="#005ea6"/>
  <path d="M167.5,713.06a8.79,8.79,0,0,0,2.86-4.32,3.85,3.85,0,0,0-2-4.41c-1.84-.7-3.8.57-5.29,1.86s-3.2,2.76-5.15,2.48a7.81,7.81,0,0,0,2.42-7.33,3.08,3.08,0,0,0-.67-1.49c-1-1.09-2.87-.62-4.1.24-3.88,2.73-5,8-5,12.76-.39-1.71-.06-3.5-.07-5.25s-.49-3.71-2-4.66a6,6,0,0,0-3-.71c-1.75-.06-3.69.12-4.89,1.39-1.48,1.59-1.09,4.26.2,6s3.25,2.85,5,4.06a11.23,11.23,0,0,1,3.62,3.44,3.87,3.87,0,0,1,.27.62h10.95A30.45,30.45,0,0,0,167.5,713.06Z" transform="translate(-31.44 -37.71)" fill="#005ea6"/>
  <path d="M231.43,754.31A8.73,8.73,0,0,0,234.3,750a3.85,3.85,0,0,0-2-4.4c-1.84-.7-3.81.57-5.3,1.86s-3.2,2.75-5.15,2.48a7.85,7.85,0,0,0,2.43-7.33,3.09,3.09,0,0,0-.68-1.49c-1-1.09-2.87-.62-4.09.24-3.89,2.73-5,8-5,12.76-.4-1.71-.07-3.5-.07-5.26s-.5-3.7-2-4.65a6,6,0,0,0-3-.71c-1.75-.06-3.7.11-4.89,1.39-1.48,1.59-1.1,4.25.19,6s3.25,2.85,5.06,4a11.26,11.26,0,0,1,3.62,3.45,3.84,3.84,0,0,1,.26.62h11A30.39,30.39,0,0,0,231.43,754.31Z" transform="translate(-31.44 -37.71)" fill="#005ea6"/>
  <path d="M412.76,670.93s4.1,5.37-1.9,13.48-10.95,15-8.95,20c0,0,9.06-15,16.43-15.26S420.86,680,412.76,670.93Z" transform="translate(-31.44 -37.71)" fill="#005ea6"/>
  <path d="M412.76,670.93a6.55,6.55,0,0,1,.83,1.68c7.2,8.45,11,16.34,4.12,16.54-6.44.18-14.17,11.69-16,14.6a4.64,4.64,0,0,0,.22.66s9.06-15,16.43-15.26S420.86,680,412.76,670.93Z" transform="translate(-31.44 -37.71)" opacity="0.1"/>
  <path d="M420.39,677.77c0,1.89-.21,3.43-.47,3.43s-.48-1.54-.48-3.43.27-1,.53-1S420.39,675.88,420.39,677.77Z" transform="translate(-31.44 -37.71)" fill="#ffd037"/>
  <path d="M423,680c-1.66.9-3.11,1.45-3.23,1.22s1.12-1.15,2.78-2,1-.25,1.13,0S424.67,679.13,423,680Z" transform="translate(-31.44 -37.71)" fill="#ffd037"/>
  <path d="M391.06,670.93s-4.1,5.37,1.9,13.48,11,15,9,20c0,0-9.06-15-16.43-15.26S383,680,391.06,670.93Z" transform="translate(-31.44 -37.71)" fill="#005ea6"/>
  <path d="M391.06,670.93a6.74,6.74,0,0,0-.84,1.68c-7.19,8.45-11,16.34-4.11,16.54,6.44.18,14.17,11.69,16,14.6a4.64,4.64,0,0,1-.22.66s-9.06-15-16.43-15.26S383,680,391.06,670.93Z" transform="translate(-31.44 -37.71)" opacity="0.1"/>
  <path d="M383.43,677.77c0,1.89.21,3.43.47,3.43s.48-1.54.48-3.43-.27-1-.53-1S383.43,675.88,383.43,677.77Z" transform="translate(-31.44 -37.71)" fill="#ffd037"/>
  <path d="M380.81,680c1.66.9,3.11,1.45,3.23,1.22s-1.12-1.15-2.78-2-1-.25-1.13,0S379.15,679.13,380.81,680Z" transform="translate(-31.44 -37.71)" fill="#ffd037"/>
  <path d="M384.74,703.71s11.48-.35,14.94-2.82,17.66-5.4,18.52-1.45,17.26,19.65,4.29,19.76-30.12-2-33.57-4.12S384.74,703.71,384.74,703.71Z" transform="translate(-31.44 -37.71)" fill="#a8a8a8"/>
  <path d="M422.72,717.82c-13,.11-30.12-2-33.57-4.12-2.63-1.6-3.68-7.35-4-10h-.38s.72,9.26,4.18,11.37,20.61,4.22,33.57,4.12c3.74,0,5-1.36,5-3.33C426.94,717.06,425.51,717.8,422.72,717.82Z" transform="translate(-31.44 -37.71)" opacity="0.2"/>
</svg>
