<svg id="Layer_1" data-name="Layer 1" xmlns="http://www.w3.org/2000/svg" xmlns:xlink="http://www.w3.org/1999/xlink" viewBox="0 0 1069.82 937.5"><defs><style>.cls-1,.cls-14,.cls-18{fill:#005ea6;}.cls-1,.cls-16,.cls-18,.cls-2,.cls-6{isolation:isolate;}.cls-1,.cls-12,.cls-16,.cls-2{opacity:0.1;}.cls-3{fill:url(#linear-gradient);}.cls-4{fill:#efb7b9;}.cls-5{fill:#e1e7ef;}.cls-6{opacity:0.05;}.cls-7{fill:#b07473;}.cls-8{fill:#444053;}.cls-9{fill:#67647e;}.cls-10{fill:url(#linear-gradient-2);}.cls-11{fill:#585268;}.cls-13{fill:#535461;}.cls-15{fill:#a8a8a8;}.cls-17{fill:#fff;}.cls-18{opacity:0.3;}</style><linearGradient id="linear-gradient" x1="1313.74" y1="9046.82" x2="1313.74" y2="9160.09" gradientTransform="matrix(1, -0.03, -0.03, -1, -445.95, 9490.78)" gradientUnits="userSpaceOnUse"><stop offset="0" stop-color="gray" stop-opacity="0.25"/><stop offset="0.54" stop-color="gray" stop-opacity="0.12"/><stop offset="1" stop-color="gray" stop-opacity="0.1"/></linearGradient><linearGradient id="linear-gradient-2" x1="1060.58" y1="9120.02" x2="1119.1" y2="9120.02" xlink:href="#linear-gradient"/></defs><path class="cls-1" d="M937.68,610.54a4.24,4.24,0,0,0,4.23,4h-5.8a4.23,4.23,0,0,0,0,8.46h8.45a4.23,4.23,0,1,0,0,8.46h19.5a419.41,419.41,0,0,1-40.76,52.38,435.46,435.46,0,0,1-31.51,31.2l-.3.27q-5.07,4.54-10.29,8.93l-.3.25q-4.67,3.93-9.47,7.73-6.13,4.88-12.47,9.56L857.35,743l-2,1.48q-6,4.38-12.2,8.55-2.42,1.65-4.86,3.25-4.35,2.88-8.79,5.67l-3.5,2.17-2.34,1.43q-7.39,4.5-15,8.75l-2.91,1.61-1.12.62-.23.12q-7.44,4.07-15.07,7.88l-1.35.67q-2.38,1.18-4.78,2.33c-.66.33-1.32.65-2,1q-3.41,1.63-6.84,3.21l-1,.47-.77.35-1.12.51h0q-9,4.08-18.3,7.82-6.12,2.46-12.31,4.75l-1.95.73-3.06,1.11h0L731.56,809c-.68.23-1.35.47-2,.69A514.55,514.55,0,0,1,561.44,837.5c-97.68,0-188.35-26.81-263.28-72.61h17.39a4.23,4.23,0,0,0,0-8.46h-8.46a4.23,4.23,0,1,0,0-8.46h6a4.23,4.23,0,0,0,0-8.46H264.16a4.2,4.2,0,0,0-2.37.74C194.91,690.18,144,623.74,116.91,547.74h39.71a4.23,4.23,0,0,0,0-8.46h-8.45a4.23,4.23,0,1,0,0-8.46h6a4.23,4.23,0,0,0,0-8.46H108.85A375.31,375.31,0,0,1,95,421.18C95,316.62,138.16,221.07,209.49,148h88.88q.3,0,.6,0a8.94,8.94,0,1,0-.6-17.87H280.51a8.93,8.93,0,0,0,0-17.86h12.73a8.94,8.94,0,0,0,0-17.87h-20.8c79.49-56,179.86-89.48,289-89.48,186.84,0,348,98,422.47,239.61H919a8.94,8.94,0,0,0,0,17.87H906.24a8.93,8.93,0,0,0,0,17.86H924.1a8.94,8.94,0,0,0,0,17.87h83a374.66,374.66,0,0,1,20.74,123.1c0,66.43-17.43,129.21-48.43,184.93H941.7A4.23,4.23,0,0,0,937.68,610.54Z"/><path class="cls-2" d="M778.14,323.86c-.94,1.72-6.29,3.95-14.48,6.47-2.46-5.67-3.56-15.1-3.92-18.88,1.54-.44,2.66-1,2.93-1.82C763.59,307,783.49,314,778.14,323.86Z"/><path class="cls-2" d="M795.21,340.52a14.64,14.64,0,0,0-4.53.05c-7.25,1.51-9.15-25-9.15-25s.26-1.24.78-3c6-.5,10.94-1,10.94-1C803.83,313.38,797.75,333.33,795.21,340.52Z"/><path class="cls-2" d="M487.28,395.29a77.61,77.61,0,0,0,11.58-3.89C505.08,388.67,487.28,395.29,487.28,395.29Z"/><path class="cls-3" d="M821.4,318.81c-4.09-.88-17-14.32-24.95-18.8-3.65-2.06-6.49,1-8.49,4.82-4.69-4-9.84-8.4-13.77-10.61a4.34,4.34,0,0,0-3.44-.51c-5.67,1.66-8.6,15.57-8.6,15.57l.08.9c-2.9,1.74-11,2-14.45,1.84-4.07-.26-9.48-.34-11.48.36s-24.6,3.19-37.7,5.45-48.09,17.3-48.09,17.3l-31.75,3-4.23-1.38c-.75-5.13-7.07-5.88-14.71-4.82-11.73-3.72-23.49-7-27.58-5.68,11.78-4.24,26.51-11.45,27.6-21.34,1.48-13.48-27.53,2-38.58,8.38l-.94.54-.12-.88s-7.72,1.94-23.34-.42-23.54,4.12-25,4.68-16.46,3.57-17.59,3.62c-.89,0-25.91-.86-38.54-1.32-17.08-3.74-42.36-4.18-44.06-1.78-1.94,2.78-22.3,11.21-22.3,11.21l-6.73.88s-1,1.89-2.24,4.32a18.11,18.11,0,0,1-1.22-3.27,52.79,52.79,0,0,1-1.27-8.39h0l-.12-1.13a1.35,1.35,0,0,0,0-.28l-.12-.95,0-.24a30.22,30.22,0,0,0-.73-3.65h0a18.23,18.23,0,0,0-1.27-3.49h0a11.54,11.54,0,0,0-3.28-4.21c-2.29-1.83-5.25-2.57-8.11-3.26a35.8,35.8,0,0,0-7.33-1.25c-2.14-.07-4.29.24-6.41.1-3.43-.23-6.65-1.62-10-2.56s-7-1.4-10.1.12c-2.62,1.3-4.36,3.84-6.23,6.09a44.35,44.35,0,0,1-12.57,10.44c-3.25,1.78-6.9,3.43-8.42,6.76s-.45,6.89-.21,10.4c.51,7.72-2.91,15.7-1.16,23h0c0,.17.08.33.13.49a10.32,10.32,0,0,0,.36,1.2h0a8.72,8.72,0,0,0,.43,1.06,6.82,6.82,0,0,0,.54,1,5.11,5.11,0,0,0,.68.87,5.31,5.31,0,0,0,.85.72,6.85,6.85,0,0,0,3.8.94h.73l.67,0a20.59,20.59,0,0,0,2.35-.26,8.77,8.77,0,0,0,2.24-.67,4.87,4.87,0,0,0,2.65-3.16,11.8,11.8,0,0,0,.38-1.86l.05-.44.09.48h0a29.73,29.73,0,0,0,53.19,10.92l1.17-.23a69.91,69.91,0,0,1,11.36-1.17h0a22.2,22.2,0,0,0,1.06,2.58c9.8,20.58,47.89,26.07,47.89,26.07s42.38,3.7,45.75,3.26,12.92,2.28,15.39,5.24,14.72,5.61,19.59-.62,9.32-4.36,9.32-4.36a20.46,20.46,0,0,0,2.58-3.35l2.67.47c7,1.27,18.34,3.45,20.68,4.75,3.44,1.92,19,3.79,27.94,1.3s37.07-14.22,37.07-14.22,17-2.89,20-3.51S645,379,645,379l16.45-4.09S679.1,368,686.2,368s14.2-5.36,14.2-5.36l47-15.06a23.21,23.21,0,0,1,8.87,1.58c3.81,1.74,30.13,1.22,39-6.15,0,0,.42-1.05,1-2.76.36,0,.74,0,1.13.06l2.61.95a69.13,69.13,0,0,0,9.67,7.81c5,3.2,10.42,5.3,13,1.22a8,8,0,0,0,.86-2c4.65,4.26,20.4,17.6,22.56,4.36C848.7,337.07,825.48,319.69,821.4,318.81Z"/><path class="cls-4" d="M394.38,368.55s-7.95-1.52-19.58.64a70.55,70.55,0,0,0-11.32,3c-17.47,6.19,1.82-36.72,1.82-36.72s4.57.58,10.13.8c6.63.31,14.65.22,17.85-1.7C399.18,331,394.38,368.55,394.38,368.55Z"/><path class="cls-4" d="M599.47,305.59c-1.38,12.51-24.92,20.69-36,23.87-3.45,1-5.71,1.49-5.71,1.49l-.47-14.66s1.58-1,4.13-2.44C572.35,307.58,600.93,292.29,599.47,305.59Z"/><path class="cls-2" d="M563.46,329.46c-3.45,1-5.71,1.49-5.71,1.49l-.47-14.66s1.58-1,4.13-2.44Z"/><path class="cls-5" d="M450.17,319.73s43.91,1.59,45.07,1.55,15.92-3,17.4-3.55,9.27-7,24.69-4.63,23,.42,23,.42l2.65,20.1-104.6-1.36Z"/><path class="cls-6" d="M450.17,319.73s43.91,1.59,45.07,1.55,15.92-3,17.4-3.55,9.27-7,24.69-4.63,23,.42,23,.42l2.65,20.1-104.6-1.36Z"/><path class="cls-7" d="M759.61,309.8s4-19.27,11.85-14.86S792,312.67,796.08,313.5s26.95,18,24.42,33.33-23.5-5.5-23.5-5.5-20.93-8-28.22-6.54S759.61,309.8,759.61,309.8Z"/><path class="cls-2" d="M820.49,346.86c-2.51,15.32-23.49-5.5-23.49-5.5s-20.93-8-28.22-6.54c-2.08.45-3.85-1.49-5.08-4.48-2.46-5.67-3.56-15.11-3.92-18.88-.1-1-.14-1.62-.14-1.62s4.05-19.28,11.86-14.85,20.57,17.67,24.61,18.54S823,331.54,820.49,346.86Z"/><path class="cls-8" d="M600.65,340.08l48.83-4.74S684,320.49,697,318.28s35.19-4.69,37.17-5.38,7.32-.61,11.33-.36,14.34-.2,15.26-2.83,20.81,4.37,15.46,14.22S620.9,360.59,620.9,360.59Z"/><path class="cls-2" d="M600.65,340.08l48.83-4.74S684,320.49,697,318.28s35.19-4.69,37.17-5.38,7.32-.61,11.33-.36,14.34-.2,15.26-2.83,20.81,4.37,15.46,14.22S620.9,360.59,620.9,360.59Z"/><path class="cls-7" d="M842.43,352.54c-2.51,15.33-23.49-5.5-23.49-5.5s-14.64-5.63-23.69-6.59a15.28,15.28,0,0,0-4.53.05c-7.25,1.51-9.15-25-9.15-25s.26-1.24.78-3c1.52-5.25,5.25-15.15,11.09-11.85,7.81,4.42,20.57,17.72,24.61,18.54S844.93,337.25,842.43,352.54Z"/><path class="cls-8" d="M792.27,343.08c-8.78,7.28-34.77,7.78-38.5,6.08a23,23,0,0,0-8.73-1.57l-46.37,14.85s-7,5.22-14,5.28-24.46,6.78-24.46,6.78l-16.21,4s-8.47,6.32-11.45,6.95-19.74,3.46-19.74,3.46-27.81,11.6-36.57,14-24.15.61-27.56-1.29c-2.29-1.29-13.44-3.42-20.38-4.68-3.29-.59-5.64-1-5.64-1l-.35-62.85s6.94-.64,15.73-1.58c12.76-1.35,29.41-3.33,34.15-4.87,8-2.6,47,13,54.42,14.1s46.66-6.19,46.66-6.19,50.53-20.64,60.08-19.44,22.46-1.39,30.29-1.48,27.62-2.06,27.62-2.06C804.16,313.85,792.27,343.08,792.27,343.08Z"/><path class="cls-2" d="M380.15,351.33a29.24,29.24,0,0,1-5.35,17.86,70.55,70.55,0,0,0-11.32,3c-17.47,6.19,1.82-36.72,1.82-36.72s4.57.58,10.13.8A29.22,29.22,0,0,1,380.15,351.33Z"/><path class="cls-4" d="M379.15,351.36a29.33,29.33,0,0,1-58,7.28h0c-.11-.52-.21-1-.3-1.56a28.75,28.75,0,0,1-.39-3.82,29.34,29.34,0,0,1,58.41-4.8A28.11,28.11,0,0,1,379.15,351.36Z"/><path class="cls-2" d="M530.84,370.5c4.66,12.83.36,22.1-2.54,26.42-3.3-.59-5.65-1-5.65-1l-.35-62.85s7-.64,15.74-1.58l.89.05S524.26,352.37,530.84,370.5Z"/><path class="cls-5" d="M527.85,370.59c6.58,18.14-4.7,29.17-4.7,29.17s-4.39-1.85-9.19,4.3-16.9,3.55-19.32.58-11.86-5.62-15.18-5.17-45.12-3.22-45.12-3.22-37.56-5.4-47.24-25.71a23.24,23.24,0,0,1-1.05-2.53s-7.26-19-7.06-23c.07-1.56,1-4.16,2.17-6.78,1.8-4.06,4-8.12,4-8.12l6.64-.87s20.08-8.31,22-11.05,34.29-1.76,50.14,3.56,46.63,8.79,46.63,8.79L536,331.6S521.31,352.47,527.85,370.59Z"/><path class="cls-2" d="M400.57,342.84s9.45,24.54,36.83,20.33S483.88,367,483.88,367s24.9,1.72,29.69.4a186,186,0,0,1,21.72-3.87c4-.3,9.63-1.18,14.11-2s28.09-2.73,28.09-2.73-5.21-17.17-1.43-18.79c0,0-23.29,1.75-23.34.07s-25.37-5.91-27.65-4.51-25.22.15-27.3.65-37.59-.87-37.59-.87S410.2,307.32,400.57,342.84Z"/><path class="cls-4" d="M570.13,341s44.42-18.74,43.93-2.72S572.4,355,572.4,355Z"/><path class="cls-2" d="M401.45,339.81s9.5,24.55,36.84,20.33S484.77,364,484.77,364s24.91,1.71,29.69.39a187.89,187.89,0,0,1,21.73-3.86c4-.3,9.63-1.18,14.11-2s28.09-2.73,28.09-2.73S573.17,338.66,577,337c0,0-23.28,1.75-23.34.07s-25.37-5.9-27.66-4.5-25.21.15-27.29.64-37.56-.87-37.56-.87S411.1,304.29,401.45,339.81Z"/><path class="cls-5" d="M400.49,340.84s9.46,24.54,36.84,20.32S483.81,365,483.81,365s24.9,1.71,29.68.39a186.18,186.18,0,0,1,21.73-3.87c4-.29,9.64-1.18,14.11-2s28.09-2.71,28.09-2.71-5.22-17.18-1.44-18.8c0,0-23.28,1.75-23.34.07s-25.37-5.9-27.65-4.51-25.17.16-27.3.66-37.58-.9-37.58-.9S410.13,305.32,400.49,340.84Z"/><path class="cls-2" d="M487.38,346.65c-.25-1.11,6.35.24,19.83-.63s36.39-4.15,36.39-4.15S489.33,355,487.38,346.65Z"/><path class="cls-2" d="M437.58,332.93s.4,1.87-6.51,4.92"/><path class="cls-2" d="M450.73,337.24a7.17,7.17,0,0,1-5.75,7.82"/><path class="cls-2" d="M388,369.54l4.52,5.4s5.12,3.68,5.5,5.34,11.59,2.78,11.59,2.78l11.86,9.77-4.51-8.33c4.27,1.62,12.27,2.81,16.21.5,8.56-2.79,20.67-6.79,20.67-6.79l25.23-10.83,1.8-11.24L463.51,351l-23.62,16.89-26.39,6.51-9.5.13-9.78-2.35Z"/><path class="cls-9" d="M387,368.58l4.51,5.4s5.11,3.67,5.51,5.33,11.59,2.79,11.59,2.79l11.87,9.77-4.51-8.34c4.26,1.62,11.78,3,15.71.72,9.32-2.68,21.16-7,21.16-7l25-10.57,2-11.45-17.34-5.11s-12,11.15-22.2,15.8-27.86,7.6-27.86,7.6l-9.51.14-9.78-2.36Z"/><path class="cls-2" d="M401,367.84l-11.94,3.68a23.34,23.34,0,0,1-1-2.54s-7.27-19-7.06-23c.06-1.57,1-4.17,2.18-6.78Z"/><path class="cls-5" d="M399,366.91l-11.93,3.67A23.4,23.4,0,0,1,386,368s-7.27-19-7.06-23c.07-1.57,1-4.17,2.17-6.79Z"/><path class="cls-10" d="M378.91,348.45A5.36,5.36,0,0,1,377,349.7c-1.86.58-3.8-.49-5.74-.64s-4,.65-6,.56a15.46,15.46,0,0,1-4.1-1.05c-2.56-.87-5.38-1.54-8-.66s-4.52,3.9-3.38,6.35c-1.84,2-4.95,2.32-7.57,1.61-6.14-1.67-10.7-7.71-17.6-4.35-3,1.49-3.18,4.35-3.46,7.1-.12-.52-.22-1-.31-1.56a28.73,28.73,0,0,1-.38-3.82,29.34,29.34,0,0,1,58.4-4.8Z"/><path class="cls-11" d="M318.06,363.54a12.3,12.3,0,0,1-4.53.92,8.3,8.3,0,0,1-5.13-.89,6.84,6.84,0,0,1-2.46-3.55c-2.75-7.75,1.21-16.24.66-24.44-.22-3.46-1.22-7.11.21-10.26s5.14-4.9,8.29-6.66a43.8,43.8,0,0,0,12.4-10.3c1.84-2.23,3.56-4.73,6.14-6,3-1.51,6.66-1.05,9.92-.13s6.44,2.29,9.82,2.52c2.1.14,4.22-.17,6.33-.1a35.52,35.52,0,0,1,7.23,1.24c2.82.68,5.73,1.41,8,3.21,4,3.17,5,8.7,5.52,13.8s1,10.59,4.38,14.37a3.5,3.5,0,0,1,1.15,1.88,3,3,0,0,1-1.14,2.14l-5.29,5.44a6.74,6.74,0,0,1-2.63,1.94c-1.85.59-3.8-.48-5.74-.64s-4,.67-6,.56a14.89,14.89,0,0,1-4.1-1c-2.56-.88-5.38-1.55-7.93-.66s-4.52,3.9-3.38,6.35c-1.85,2-5,2.33-7.58,1.62-6.15-1.67-10.7-7.72-17.59-4.36C319,353.3,323.36,361.05,318.06,363.54Z"/><g class="cls-12"><path d="M379.3,319.72c.39,3.89.76,8,2.44,11.47a52.12,52.12,0,0,1-1.26-8.23,29.07,29.07,0,0,0-2.28-9.67A40,40,0,0,1,379.3,319.72Z"/><path d="M384.86,337.3l-.27-.33a5.3,5.3,0,0,1-.91,1.15l-5.28,5.44a6.82,6.82,0,0,1-2.63,1.94c-1.85.59-3.8-.48-5.74-.65s-4,.68-6,.57a14.89,14.89,0,0,1-4.1-1c-2.56-.88-5.38-1.55-8-.67s-4.52,3.9-3.38,6.36c-1.85,2-5,2.32-7.58,1.61-6.14-1.67-10.69-7.72-17.59-4.35-5.64,2.77-1.27,10.52-6.57,13a11.94,11.94,0,0,1-4.53.92,8.25,8.25,0,0,1-5.13-.88,5.53,5.53,0,0,1-1.75-2,13.84,13.84,0,0,0,.48,1.67,6.91,6.91,0,0,0,2.46,3.56,8.23,8.23,0,0,0,5.13.88,12.3,12.3,0,0,0,4.53-.92c5.3-2.49.93-10.24,6.58-13,6.85-3.37,11.4,2.68,17.59,4.35,2.61.72,5.73.39,7.57-1.61-1.14-2.45.83-5.47,3.39-6.35s5.37-.22,7.93.66a14.89,14.89,0,0,0,4.1,1c2,.1,4-.73,6-.57s3.87,1.24,5.73.65a6.7,6.7,0,0,0,2.64-1.95l5.28-5.43a3,3,0,0,0,1.15-2.14A3.45,3.45,0,0,0,384.86,337.3Z"/></g><path class="cls-2" d="M618.34,353.51s6,14.87,4,17S618.34,353.51,618.34,353.51Z"/><path class="cls-2" d="M644.33,352.67s3.8,9.16,2.59,10.73"/><path class="cls-2" d="M676.08,336.62s5.14,4.68,2.72,7"/><path class="cls-2" d="M682,335.16s6.06,9.68,3.38,11.77"/><path class="cls-2" d="M783.71,323.61s-.76,14.81,3.71,14.11S783.71,323.61,783.71,323.61Z"/><path class="cls-13" d="M740.8,805.6l-1.95.73a33.48,33.48,0,0,1,.41-9.48,2.93,2.93,0,0,1,0-.29c.23-1.14.5-2.27.8-3.39h0a55.93,55.93,0,0,1,2.15-6.36l.81.33.32.13.72.29a52.48,52.48,0,0,0-2.22,6.73h0c-.23.88-.44,1.77-.62,2.66a30.31,30.31,0,0,0-.52,4.24A28.25,28.25,0,0,0,740.8,805.6Z"/><path class="cls-14" d="M738.69,777.6c0,2.52,4.58,9.85,4.58,9.85s4.57-7.33,4.57-9.85a4.58,4.58,0,0,0-9.15,0Z"/><path class="cls-14" d="M731.13,791.59c1.38,2.12,9.2,5.78,9.2,5.78s-.15-8.63-1.52-10.75a4.58,4.58,0,0,0-7.68,5Z"/><path class="cls-14" d="M735.58,807.33l.2.11L731.56,809c-.68.23-1.35.47-2,.69A4.59,4.59,0,0,1,735.58,807.33Z"/><path class="cls-14" d="M749.91,797.86c-1.81,1.76-10.25,3.58-10.25,3.58s2.06-8.38,3.88-10.14a4.57,4.57,0,0,1,6.37,6.56Z"/><path class="cls-13" d="M774.36,791.69l-1,.47-.77.35a30.65,30.65,0,0,1-1.1-3.18,34,34,0,0,1-.75-15.47l.06-.3c.23-1.15.51-2.29.81-3.42a55.56,55.56,0,0,1,2.14-6.34l.8.32.33.14.72.29a52.77,52.77,0,0,0-2.28,7s0,0,0,0c-.2.8-.38,1.6-.55,2.4a29.15,29.15,0,0,0-.52,4.26A31.68,31.68,0,0,0,774.36,791.69Z"/><path class="cls-14" d="M770.14,754.61c0,2.52,4.58,9.85,4.58,9.85s4.57-7.33,4.57-9.85a4.58,4.58,0,0,0-9.15,0Z"/><path class="cls-14" d="M762.58,768.6c1.38,2.12,9.2,5.78,9.2,5.78s-.14-8.63-1.52-10.75a4.58,4.58,0,0,0-7.68,5Z"/><path class="cls-14" d="M773.32,792.16l-.77.35-1.12.51h0c-2.72.14-7,.24-8.5-.52a4.57,4.57,0,0,1,4.11-8.17c1.19.6,3,2.92,4.43,5C772.23,790.45,772.91,791.5,773.32,792.16Z"/><path class="cls-14" d="M781.38,774.87c-1.81,1.76-10.25,3.58-10.25,3.58s2.07-8.38,3.88-10.14a4.57,4.57,0,0,1,6.37,6.56Z"/><path class="cls-14" d="M783.19,787.52c-.66.33-1.32.65-2,1a3.77,3.77,0,0,1,.85-.62A4.27,4.27,0,0,1,783.19,787.52Z"/><path class="cls-15" d="M871.43,732.24q-6.13,4.88-12.47,9.56L857.35,743l-2,1.48q-6,4.38-12.2,8.55-2.42,1.65-4.86,3.25-4.35,2.88-8.79,5.67l-3.5,2.17-2.34,1.43q-7.39,4.5-15,8.75l-2.91,1.61-1.12.62-.23.12q-7.44,4.07-15.07,7.88l-1.35.67,2.45-5.52a148.49,148.49,0,0,1,28-42.24c8.15-8.58,18-16.84,28.37-21a41.68,41.68,0,0,1,4.33-1.48,10.83,10.83,0,0,1,2.57-.45l.75,0a11.13,11.13,0,0,1,6.68,2.25l.09.07C865.31,719.73,868.67,725.29,871.43,732.24Z"/><g class="cls-16"><path class="cls-17" d="M861.25,716.72a.25.25,0,0,1,0,.07c-4,8-11.7,23.53-18.06,36.23q-2.42,1.65-4.86,3.25-4.35,2.88-8.79,5.67l-3.5,2.17-2.34,1.43c3.15-15.7,16-37.61,23.26-49.11a41.68,41.68,0,0,1,4.33-1.48,11.39,11.39,0,0,1,2.44-.45l.75,0A11.18,11.18,0,0,1,861.25,716.72Z"/></g><path class="cls-1" d="M515.33,74.75h12.76a8.94,8.94,0,0,1,0-17.87H631.45a8.94,8.94,0,0,1,0,17.87H618.69a8.93,8.93,0,0,1,0,17.86h17.86a8.94,8.94,0,0,1,0,17.87H533.19a8.94,8.94,0,0,1,0-17.87H515.33a8.93,8.93,0,0,1,0-17.86Z"/><path class="cls-1" d="M662.66,211.62h12.76a8.93,8.93,0,1,1,0-17.86H778.78a8.93,8.93,0,1,1,0,17.86H766a8.93,8.93,0,0,1,0,17.86h17.89a8.94,8.94,0,0,1,0,17.87H680.52a8.94,8.94,0,0,1,0-17.87H662.66a8.93,8.93,0,1,1,0-17.86Z"/><path class="cls-1" d="M512.91,639h6a4.23,4.23,0,1,1,0-8.46h49a4.23,4.23,0,1,1,0,8.46h-6a4.23,4.23,0,1,1,0,8.46h8.45a4.23,4.23,0,0,1,0,8.46h-49a4.23,4.23,0,0,1,0-8.46h-8.46a4.23,4.23,0,1,1,0-8.46Z"/><path class="cls-1" d="M378.2,710.92H383a3.38,3.38,0,0,1,0-6.75h39.06a3.38,3.38,0,0,1,0,6.75h-4.82a3.38,3.38,0,0,1,0,6.75H424a3.38,3.38,0,0,1,0,6.75h-39.1a3.38,3.38,0,1,1-.37-6.75h-6.38a3.38,3.38,0,1,1-.37-6.75h.41Z"/><path class="cls-1" d="M213.09,585.12h6a4.23,4.23,0,1,1,0-8.46h48.93a4.23,4.23,0,1,1,0,8.46h-6a4.23,4.23,0,1,1,0,8.46h8.46a4.23,4.23,0,1,1,0,8.46h-49a4.23,4.23,0,0,1,0-8.46h-8.46a4.23,4.23,0,1,1,0-8.46Z"/><path class="cls-1" d="M639.91,717.35h6a4.23,4.23,0,0,1,0-8.46h49a4.23,4.23,0,0,1,0,8.46h-6a4.23,4.23,0,0,1,0,8.46h8.46a4.23,4.23,0,0,1,0,8.45h-49a4.23,4.23,0,1,1-.41-8.45h-8a4.23,4.23,0,0,1,0-8.46Z"/><path class="cls-18" d="M707.91,307.75a2.84,2.84,0,0,0-.92-3.67,1.21,1.21,0,0,1-.24-.21h0a1.43,1.43,0,0,1,1.4-2.35h0a1.57,1.57,0,0,1,.3.12,2.86,2.86,0,0,0,3.68-.91,1.27,1.27,0,0,1,.21-.25h0a1.43,1.43,0,0,1,2.34,1.41h0a1.88,1.88,0,0,1-.12.3,2.84,2.84,0,0,0,.92,3.67,1.64,1.64,0,0,1,.25.21h0a1.43,1.43,0,0,1-1.41,2.34h0a.79.79,0,0,1-.3-.12,2.86,2.86,0,0,0-3.68.92,1.22,1.22,0,0,1-.2.25h0a1.43,1.43,0,0,1-2-.09,1.42,1.42,0,0,1-.33-1.32h0A1.88,1.88,0,0,1,707.91,307.75Z"/><path class="cls-18" d="M1024.59,139.07a2.83,2.83,0,0,0-.92-3.67,1.21,1.21,0,0,1-.24-.21h0a1.43,1.43,0,0,1,.09-2,1.42,1.42,0,0,1,1.32-.33h0a1.48,1.48,0,0,1,.29.12,2.84,2.84,0,0,0,3.68-.92,1.21,1.21,0,0,1,.21-.24h0a1.43,1.43,0,0,1,2.34,1.41h0a.81.81,0,0,1-.12.29,2.86,2.86,0,0,0,.92,3.68,1.64,1.64,0,0,1,.25.21h0a1.43,1.43,0,0,1-1.41,2.34h0a1.57,1.57,0,0,1-.3-.12,2.85,2.85,0,0,0-3.67.92,1.64,1.64,0,0,1-.21.25h0a1.43,1.43,0,0,1-2-.09,1.42,1.42,0,0,1-.33-1.32h0A1.88,1.88,0,0,1,1024.59,139.07Z"/><path class="cls-18" d="M1029.46,592.13a2.84,2.84,0,0,0-.92-3.67,1.21,1.21,0,0,1-.24-.21h0a1.42,1.42,0,0,1,1.4-2.34h0a.79.79,0,0,1,.3.12,2.86,2.86,0,0,0,3.68-.92,1.22,1.22,0,0,1,.2-.25h0a1.43,1.43,0,0,1,2,.09,1.42,1.42,0,0,1,.33,1.32h0a1.88,1.88,0,0,1-.12.3,2.84,2.84,0,0,0,.92,3.67,1.21,1.21,0,0,1,.24.21h0a1.42,1.42,0,0,1-1.36,2.3h0a1,1,0,0,1-.3-.11,2.86,2.86,0,0,0-3.68.91,1.27,1.27,0,0,1-.21.25h0a1.43,1.43,0,0,1-2.34-1.41h0A2,2,0,0,1,1029.46,592.13Z"/><path class="cls-18" d="M49.29,38a2.85,2.85,0,0,0-.92-3.68,1.21,1.21,0,0,1-.24-.21h0a1.42,1.42,0,0,1,1.4-2.34h0a1.57,1.57,0,0,1,.3.12A2.85,2.85,0,0,0,53.51,31a1.64,1.64,0,0,1,.21-.25h0a1.43,1.43,0,0,1,2.34,1.41h0a1.57,1.57,0,0,1-.12.3,2.85,2.85,0,0,0,.92,3.68,1.57,1.57,0,0,1,.25.2h0a1.43,1.43,0,0,1-.09,2,1.42,1.42,0,0,1-1.32.33h0a1.57,1.57,0,0,1-.3-.12,2.85,2.85,0,0,0-3.68.92,1.16,1.16,0,0,1-.2.24h0a1.43,1.43,0,0,1-2.35-1.4h0A1.57,1.57,0,0,1,49.29,38Z"/><path class="cls-18" d="M1.54,7.65A2.84,2.84,0,0,0,.62,4a1.21,1.21,0,0,1-.24-.21h0a1.43,1.43,0,0,1,1.4-2.35h0a1.57,1.57,0,0,1,.3.12A2.86,2.86,0,0,0,5.76.63,2.43,2.43,0,0,1,6,.38H6A1.43,1.43,0,0,1,8,.49a1.45,1.45,0,0,1,.33,1.26h0A1.48,1.48,0,0,1,8.19,2a2.86,2.86,0,0,0,.92,3.71A1.21,1.21,0,0,1,9.35,6h0a1.42,1.42,0,0,1,0,2,1.4,1.4,0,0,1-1.42.34h0a.79.79,0,0,1-.3-.12,2.86,2.86,0,0,0-3.68.92,1.27,1.27,0,0,1-.21.25h0A1.43,1.43,0,0,1,1.38,8h0A1.73,1.73,0,0,1,1.54,7.65Z"/><path class="cls-18" d="M381.91,228.2a2.84,2.84,0,0,0-.92-3.67,1.21,1.21,0,0,1-.24-.21h0a1.43,1.43,0,0,1,1.4-2.35h0a1.57,1.57,0,0,1,.3.12,2.86,2.86,0,0,0,3.68-.91,1.22,1.22,0,0,1,.2-.25h0a1.43,1.43,0,0,1,2,.09,1.42,1.42,0,0,1,.33,1.32h0a1.48,1.48,0,0,1-.12.29,2.85,2.85,0,0,0,.92,3.68,1.21,1.21,0,0,1,.24.21h0a1.42,1.42,0,0,1-1.4,2.34h0a.79.79,0,0,1-.3-.12,2.86,2.86,0,0,0-3.68.92,1.27,1.27,0,0,1-.21.25h0a1.43,1.43,0,0,1-2.34-1.41h0A1.88,1.88,0,0,1,381.91,228.2Z"/><path class="cls-18" d="M205.54,345.69a2.84,2.84,0,0,0-.92-3.67,1.21,1.21,0,0,1-.24-.21h0a1.42,1.42,0,0,1,1.4-2.34h0a.79.79,0,0,1,.3.12,2.86,2.86,0,0,0,3.68-.92,2.43,2.43,0,0,1,.2-.25h0a1.43,1.43,0,0,1,2,.09,1.42,1.42,0,0,1,.33,1.32h0a1.88,1.88,0,0,1-.12.3,2.84,2.84,0,0,0,.92,3.67,1.21,1.21,0,0,1,.24.21h0a1.42,1.42,0,0,1-1.4,2.34h0a.79.79,0,0,1-.3-.12,2.86,2.86,0,0,0-3.68.92,2.43,2.43,0,0,1-.2.25h0a1.43,1.43,0,0,1-2-.09,1.42,1.42,0,0,1-.33-1.32h0A1.88,1.88,0,0,1,205.54,345.69Z"/><path class="cls-18" d="M481.54,192a2.84,2.84,0,0,0-1.34-3.54,1.27,1.27,0,0,1-.27-.18h0a1.42,1.42,0,0,1,1.12-2.49h0a1.09,1.09,0,0,1,.31.08,2.86,2.86,0,0,0,3.55-1.34,1.27,1.27,0,0,1,.18-.27h0a1.44,1.44,0,0,1,2-.13,1.46,1.46,0,0,1,.47,1.26h0a1.58,1.58,0,0,1-.09.31,2.86,2.86,0,0,0,1.35,3.54,1.51,1.51,0,0,1,.26.18h0A1.43,1.43,0,0,1,488,192h0a1.57,1.57,0,0,1-.31-.08,2.84,2.84,0,0,0-3.54,1.34,2.11,2.11,0,0,1-.18.27h0a1.44,1.44,0,0,1-2,.13,1.46,1.46,0,0,1-.47-1.26h0A1.09,1.09,0,0,1,481.54,192Z"/><path class="cls-18" d="M931.44,501a3.94,3.94,0,0,0,2.2-4.77,2.14,2.14,0,0,1-.08-.44h0a2,2,0,0,1,3.55-1.31h0a1.87,1.87,0,0,1,.22.39,3.94,3.94,0,0,0,4.77,2.2,1.64,1.64,0,0,1,.44-.09h0a2,2,0,0,1,1.31,3.56h0a1.87,1.87,0,0,1-.39.22,4,4,0,0,0-2.2,4.77,1.64,1.64,0,0,1,.09.44h0a2,2,0,0,1-3.56,1.31h0a1.47,1.47,0,0,1-.21-.39,3.94,3.94,0,0,0-4.77-2.2,3.12,3.12,0,0,1-.44.09h0a2,2,0,0,1-1.31-3.56h0A2.08,2.08,0,0,1,931.44,501Z"/><path class="cls-18" d="M322.5,538.86a4,4,0,0,0,2.2-4.77,1.57,1.57,0,0,1-.09-.43h0a2,2,0,0,1,3.56-1.32h0a1.87,1.87,0,0,1,.22.39,3.93,3.93,0,0,0,4.77,2.2,1.56,1.56,0,0,1,.43-.08h0a2,2,0,0,1,1.31,3.55h0a1.79,1.79,0,0,1-.38.22,3.94,3.94,0,0,0-2.2,4.77,2.14,2.14,0,0,1,.08.44h0a2,2,0,0,1-3.55,1.31h0a1.87,1.87,0,0,1-.22-.39,4,4,0,0,0-4.77-2.2,1.64,1.64,0,0,1-.44.09h0a2,2,0,0,1-1.31-3.56h0A1.87,1.87,0,0,1,322.5,538.86Z"/><path class="cls-18" d="M512.84,548.57a3.94,3.94,0,0,0,2.2-4.77,3.12,3.12,0,0,1-.09-.44h0a2,2,0,0,1,3.56-1.31h0a1.87,1.87,0,0,1,.22.39,3.93,3.93,0,0,0,4.77,2.19,2.14,2.14,0,0,1,.44-.08h0a2,2,0,0,1,1.31,3.55h0a1.87,1.87,0,0,1-.39.22,3.94,3.94,0,0,0-2.2,4.77,3.12,3.12,0,0,1,.09.44h0a2,2,0,0,1-3.56,1.31h0a1.87,1.87,0,0,1-.22-.39,4,4,0,0,0-4.77-2.2,1.64,1.64,0,0,1-.44.09h0a2,2,0,0,1-1.31-3.55h0A1.87,1.87,0,0,1,512.84,548.57Z"/><circle class="cls-1" cx="121.87" cy="103.29" r="16.5"/><circle class="cls-1" cx="944.65" cy="119.79" r="16.5"/><circle class="cls-1" cx="199.87" cy="21.37" r="9"/><circle class="cls-1" cx="1060.82" cy="283.28" r="9"/><circle class="cls-1" cx="138.37" cy="743.99" r="9"/><circle class="cls-1" cx="172.87" cy="784.52" r="9"/><circle class="cls-1" cx="105.37" cy="808.95" r="9"/></svg>