
<svg
   id="ab8ae2a1-21db-4159-bb67-e2c62dcc19dc"
   data-name="Layer 1"
   width=""
   height="25"
   viewBox="0 0 361.99999 228.54601"
   version="1.1"
   sodipodi:docname="logo.svg"
   inkscape:version="1.1 (c4e8f9e, 2021-05-24)"
   xmlns:inkscape="http://www.inkscape.org/namespaces/inkscape"
   xmlns:sodipodi="http://sodipodi.sourceforge.net/DTD/sodipodi-0.dtd"
   xmlns="http://www.w3.org/2000/svg"
   xmlns:svg="http://www.w3.org/2000/svg">
  <defs
     id="defs198" />
  <sodipodi:namedview
     id="namedview196"
     pagecolor="#ffffff"
     bordercolor="#666666"
     borderopacity="1.0"
     inkscape:pageshadow="2"
     inkscape:pageopacity="0.0"
     inkscape:pagecheckerboard="0"
     showgrid="false"
     inkscape:zoom="0.86065999"
     inkscape:cx="219.01797"
     inkscape:cy="-64.485396"
     inkscape:window-width="1296"
     inkscape:window-height="1081"
     inkscape:window-x="0"
     inkscape:window-y="23"
     inkscape:window-maximized="0"
     inkscape:current-layer="ab8ae2a1-21db-4159-bb67-e2c62dcc19dc" />
  <path
     d="m 47.71635,201.61343 -3.47308,-2.90485 0.25671,1.814 c 0,0 1.22724,0.38522 3.21637,1.09085 z"
     fill="none"
     id="path179" />
  <polygon
     points="543.307,387.986 577.189,380.853 488.026,430.784 493.376,416.518 "
     fill="#4caf50"
     id="polygon181"
     transform="translate(-215.189,-359.454)" />
  <polygon
     points="249.071,387.986 215.189,380.853 304.352,430.784 299.002,416.518 "
     fill="#4caf50"
     id="polygon183"
     transform="translate(-215.189,-359.454)" />
  <polygon
     points="284.736,359.454 507.642,359.454 491.593,434.35 300.785,434.35 "
     fill="#4caf50"
     id="polygon185"
     transform="translate(-215.189,-359.454)" />
  <polygon
     points="284.736,359.454 507.642,359.454 491.593,434.35 300.785,434.35 "
     opacity="0.1"
     style="isolation:isolate"
     id="polygon187"
     transform="translate(-215.189,-359.454)" />
  <rect
     x="84.704399"
     y="70.43763"
     width="192.59109"
     height="158.10837"
     fill="#4caf50"
     id="rect189" />
  <rect
     x="163.99997"
     y="181.52263"
     width="34"
     height="46"
     fill="#3f3d56"
     id="rect191" />
  <rect
     x="140.99997"
     y="102.796"
     width="80"
     height="25"
     fill="#ffffff"
     id="rect193" />
</svg>
