<svg xmlns="http://www.w3.org/2000/svg" data-name="Layer 1" width="927" height="534" viewBox="0 0 927 534" xmlns:xlink="http://www.w3.org/1999/xlink"><title>video_influencer</title>



<path d="M1063.5,717h-927V183h927Zm-925-2h923V185h-923Z" transform="translate(-136.5 -183)" fill="#ffffff"/><rect x="1" y="20.08643" width="925" height="2" fill="#ffffff"/><rect x="12" y="37" width="30" height="2" fill="#ffffff"/><rect x="12" y="45" width="30" height="2" fill="#ffffff"/><rect x="12" y="53" width="30" height="2" fill="#ffffff"/><path d="M775.5,238h-372V220h372Zm-370-2h368V222h-368Z" transform="translate(-136.5 -183)" fill="#ffffff"/><path d="M760.5,231.5a4,4,0,1,1,4-4A4.00427,4.00427,0,0,1,760.5,231.5Zm0-6a2,2,0,1,0,2,2A2.00229,2.00229,0,0,0,760.5,225.5Z" transform="translate(-136.5 -183)" fill="#ffffff"/><rect x="763.52978" y="228.84361" width="2.00002" height="5.49003" transform="translate(-70.53974 436.06727) rotate(-45.86843)" fill="#ffffff"/><path d="M999.5,238h-20V220h20Zm-18-2h16V222h-16Z" transform="translate(-136.5 -183)" fill="#ffffff"/><path d="M1024.5,238h-20V220h20Zm-18-2h16V222h-16Z" transform="translate(-136.5 -183)" fill="#ffffff"/><path d="M1049.5,238h-20V220h20Zm-18-2h16V222h-16Z" transform="translate(-136.5 -183)" fill="#ffffff"/><rect x="665" y="485" width="18" height="16" fill="#ff6584"/><rect x="690" y="485" width="18" height="16" fill="#ffffff"/><rect x="715" y="485" width="18" height="16" fill="#ffffff"/><path d="M868.5,657h-682V269h682Zm-680-2h678V271h-678Z" transform="translate(-136.5 -183)" fill="#ffffff"/><path d="M290.11364,621.37587v9.39546l-15.60682-9.525a.54752.54752,0,0,0-.825.47045v20.59091a.54752.54752,0,0,0,.825.47045l15.60682-9.525v9.39545a.27353.27353,0,0,0,.27272.27273h4.84091a.27353.27353,0,0,0,.27273-.27273V621.37587a.27353.27353,0,0,0-.27273-.27273h-4.84091A.27353.27353,0,0,0,290.11364,621.37587Z" transform="translate(-136.5 -183)" fill="#3f3d56"/><path d="M248.49318,642.92133h-4.35a.54854.54854,0,0,1-.55227-.54546V621.6486a.54854.54854,0,0,1,.55227-.54546h4.35a.54854.54854,0,0,1,.55227.54546v20.72727A.54854.54854,0,0,1,248.49318,642.92133Zm12,0h-4.35a.54854.54854,0,0,1-.55227-.54546V621.6486a.54854.54854,0,0,1,.55227-.54546h4.35a.54854.54854,0,0,1,.55227.54546v20.72727A.54854.54854,0,0,1,260.49318,642.92133Z" transform="translate(-136.5 -183)" fill="#3f3d56"/><path d="M215.5,621.66905v20.68637a.53263.53263,0,0,0,.79773.49091l16.39773-10.34318a.586.586,0,0,0,0-.975L216.29773,621.185A.52764.52764,0,0,0,215.5,621.66905Z" transform="translate(-136.5 -183)" fill="#ffffff"/><rect x="82.5" y="424" width="617" height="4" fill="#ffffff"/><rect x="82.5" y="424" width="107.5" height="4" fill="#ffffff"/><rect x="51" y="487" width="283" height="11" fill="#ffffff"/><rect x="51" y="512" width="62" height="11" fill="#ffffff"/>

<path d="M798.36274,608.82955l-2.0642-1.55853c-7.33987-5.64347-12.17948-9.29973-12.62069-14.34312a7.2022,7.2022,0,0,1,6.61739-7.9349,7.83435,7.83435,0,0,1,6.18061,2.268,7.83407,7.83407,0,0,1,5.6929-3.30679,7.20221,7.20221,0,0,1,7.89467,6.66534c.44122,5.04345-3.69007,9.48452-9.93846,16.31667Z" transform="translate(-136.5 -183)" fill="#ff6584"/><path d="M822.79109,583.12181l-1.13147-2.32588c-3.97715-8.3609-6.629-13.816-4.73206-18.50985a7.20219,7.20219,0,0,1,9.49882-4.06508,7.83431,7.83431,0,0,1,4.47692,4.82713,7.834,7.834,0,0,1,6.57369-.36135,7.20221,7.20221,0,0,1,4.00748,9.52327c-1.89691,4.69391-7.59429,6.77493-16.26363,10.025Z" transform="translate(-136.5 -183)" fill="#ff6584"/><path d="M812.79109,650.12181l-1.13147-2.32588c-3.97715-8.3609-6.629-13.816-4.73206-18.50985a7.20219,7.20219,0,0,1,9.49882-4.06508,7.83431,7.83431,0,0,1,4.47692,4.82713,7.834,7.834,0,0,1,6.57369-.36135,7.20221,7.20221,0,0,1,4.00748,9.52327c-1.89691,4.69391-7.59429,6.77493-16.26363,10.025Z" transform="translate(-136.5 -183)" fill="#ff6584"/></svg>