<svg id="Layer_1" data-name="Layer 1" xmlns="http://www.w3.org/2000/svg" viewBox="0 0 241.07 250.73"><defs><style>.cls-1{fill:#0c8dc4;}.cls-2{fill:#231f20;}</style></defs><path class="cls-1" d="M88.27,118.56s8.24.58,6.68,17.25c0,0,12.85-.43,12,17.67,0,0,12.68,4.21,9.72,19.32,0,0,12.87,6.5,10.17,17.58l-5.13,5.52s8.15,11.33,13.45,5.41,8.87-11.72,5.53-15.77-11.17-9.27-11.17-9.27,16.27,15.52,23.76,3.69-11.08-.19-19.93-11.4-5.91-18.51-15.11-26.32,6.7-17.84,2-23.68-24-5.58-24-10.31S112,94,107.28,91.35s-18.57,8-19,13.2-15.9,9.38-18,14.94-4.17,10.61,1,8.6S77.94,116.76,88.27,118.56Z"/><path class="cls-1" d="M105.36,119.14a9.47,9.47,0,0,0,2.35-.71c.36-.16.7-.31,1-.48l1-.55a22.88,22.88,0,0,0,3.4-2.59,16.33,16.33,0,0,0,1.49-1.41c.47-.51.94-.93,1.39-1.48s.89-1,1.32-1.51l1.26-1.59c.43-.47.82-1.07,1.23-1.6l1.2-1.6,1.16-1.67c.39-.56.79-1,1.15-1.65l2.27-3.38c.73-1.17,1.48-2.3,2.24-3.41a9.39,9.39,0,0,1,11.83-3.17l3.17,1.53q4.95,2.38,9.68,5.1t9.28,5.69c3,2,6,4.06,8.89,6.25s5.73,4.44,8.5,6.8L165,117.56a2.51,2.51,0,0,0-.43.33l-.11.12c0,.06-.06.1-.05.11s0,.06.08.09a1.18,1.18,0,0,0,.36-.08,3.29,3.29,0,0,0,.94-.58,4.81,4.81,0,0,0,1-1.18,8.12,8.12,0,0,0,.47-.84c.13-.32.24-.68.4-1l3.81-8.37a.84.84,0,0,1,.44-.43,127.78,127.78,0,0,1,14-5.18c1.21-.37,2.43-.72,3.68-1l1.86-.49,1.9-.43a62.74,62.74,0,0,1,7.91-1.31,63.61,63.61,0,0,1-3.82,7l-1,1.66-1.07,1.6c-.7,1.07-1.43,2.12-2.18,3.14a126,126,0,0,1-9.45,11.54l4.25-8.81c.16,1,.33,1.94.41,2.95a26,26,0,0,1-.91,9.6,25.62,25.62,0,0,1-2.83,6.38,23,23,0,0,1-2.16,3c-.43.49-.84,1-1.35,1.46-.24.24-.5.49-.81.76l-.49.43c-.21.16-.3.25-.83.62a12.09,12.09,0,0,1-12.72.66l-1.45-.81c-3.19-1.76-6.3-3.63-9.36-5.58s-6-4-9-6.13-5.79-4.37-8.59-6.69-5.52-4.75-8.17-7.28l15-1.64q-2,1.59-4.11,3.09c-1.39,1-2.93,1.9-4.39,2.8s-3.14,1.67-4.71,2.44a52.28,52.28,0,0,1-5.06,1.94,32,32,0,0,1-11,1.63,20.59,20.59,0,0,1-5.52-1A10.09,10.09,0,0,1,105.36,119.14Z"/><path class="cls-2" d="M92,137.77c-3.34,3-6.5,6.36-9.67,9.64-1.59,1.63-3.2,3.24-4.85,4.8a13.71,13.71,0,0,1-17,.91,14.36,14.36,0,0,1-3.31-3.29,15,15,0,0,1-2-4.16,14.43,14.43,0,0,1,5.64-15.89l11.19-7.58,5.64-3.72a13.88,13.88,0,0,1,3.63-1.76,13.19,13.19,0,0,1,4-.55,11.85,11.85,0,0,1,7.21,2.76,13.07,13.07,0,0,1,4.14,6.15,11.79,11.79,0,0,1-.09,7.22,11.49,11.49,0,0,1-1.71,3.18C94,136.48,92.77,137,92,137.77Zm-.47-.64c1-.55,1.39-1.69,2-2.5a10.07,10.07,0,0,0,1-8.9A10,10,0,0,0,93,123.14a8.19,8.19,0,0,0-2.29-1.87,8.78,8.78,0,0,0-2.72-1,9.3,9.3,0,0,0-2.78-.13,9,9,0,0,0-2.63.64,9.59,9.59,0,0,0-2.29,1.43L75,126.51l-10.57,8.42a8.54,8.54,0,0,0-1.53,1.77,7.06,7.06,0,0,0-.4,6.42,7.65,7.65,0,0,0,6.51,4.52,9.11,9.11,0,0,0,2.14-.15,10.77,10.77,0,0,0,1.07-.31,3.38,3.38,0,0,0,.52-.22l.27-.11.14-.06.18-.1c2-1.11,4-2.17,6-3.2C83.47,141.44,87.57,139.41,91.48,137.13Z"/><path class="cls-2" d="M103.33,156.22a28.77,28.77,0,0,0-4.82,4.22c-1.49,1.57-3,3.07-4.48,4.69l-2.15,2.46-1.09,1.21-.27.3-.38.36c-.27.23-.52.48-.81.7a7.87,7.87,0,0,1-3.93,1.65,13.36,13.36,0,0,1-4.24-.18,12.64,12.64,0,0,1-6.94-3.94,14.44,14.44,0,0,1-2.07-3.05,12.66,12.66,0,0,1-1.3-3.48,11.77,11.77,0,0,1-.23-3.59,16.12,16.12,0,0,1,.64-3.46,12.1,12.1,0,0,1,1.49-3.2,13.06,13.06,0,0,1,2.41-2.63c3.3-2.7,6.51-5.52,9.94-8l2.58-1.87c.86-.65,1.6-1.29,2.69-2.13a13.5,13.5,0,0,1,7.52-2.84,10.08,10.08,0,0,1,4.31.54,11,11,0,0,1,3.73,2.36,14.92,14.92,0,0,1,2.52,3.2,12.73,12.73,0,0,1,1.63,4,12.39,12.39,0,0,1-1,8.07,11.54,11.54,0,0,1-1,1.7,6.75,6.75,0,0,1-1.27,1.45,6.27,6.27,0,0,1-1.86.8A4.82,4.82,0,0,0,103.33,156.22Zm-.47-.64a2.29,2.29,0,0,0,.77-1.38c.14-.55.11-1.18.23-1.62a12.93,12.93,0,0,0,.58-2.53,8,8,0,0,0-.93-4.48,8.41,8.41,0,0,0-1.21-1.7,10.16,10.16,0,0,0-1.61-1.65c-.51-.4-1.09-.68-1.64-1.05a15.67,15.67,0,0,0-1.84-1.06,6.8,6.8,0,0,0-4.75-.24,12.85,12.85,0,0,0-2.54,1.54l-2.56,1.91c-3.43,2.52-7.07,4.75-10.64,7.09a9.91,9.91,0,0,0-2.06,1.88,8.59,8.59,0,0,0-1.37,2.48,7.17,7.17,0,0,0,.35,5.5,8.06,8.06,0,0,0,1.53,2.22,9.56,9.56,0,0,0,2.07,1.78,7.61,7.61,0,0,0,4.56,1.08,6.35,6.35,0,0,0,2.11-.52,10.91,10.91,0,0,1,2-.61c.18,0,.35-.11.53-.16l.29-.09.37-.17,1.49-.68,3-1.32c2-.91,3.87-1.93,5.81-2.87A29.25,29.25,0,0,0,102.86,155.58Z"/><path class="cls-2" d="M113.44,175.61a25.11,25.11,0,0,0-4.32,3.94c-1.32,1.48-2.52,3.12-3.78,4.68-.31.39-.63.77-1,1.15-.16.18-.32.37-.49.55s-.16.18-.27.28l-.36.32a9.75,9.75,0,0,1-3.38,2,10.66,10.66,0,0,1-7.76-.28,11.11,11.11,0,0,1-5.42-5.11l-1.34-2.82a14.5,14.5,0,0,1-1-3.19,14.14,14.14,0,0,1,.16-6.5,15,15,0,0,1,1.27-3.13,13.69,13.69,0,0,1,2.11-2.81c1.34-1.44,2.67-2.91,4.07-4.27s2.89-2.63,4.36-3.9l1.1-.95.55-.48.29-.24.41-.31A12.72,12.72,0,0,1,117,157.58a5.57,5.57,0,0,1,.42.71l.34.65.32.67c.12.24.29.58.42.87a10.7,10.7,0,0,1,.89,3.77,12.29,12.29,0,0,1-1.74,6.78,17.12,17.12,0,0,1-1.89,2.56A18.92,18.92,0,0,1,113.44,175.61ZM113,175a7.19,7.19,0,0,0,1.82-2.07,6.69,6.69,0,0,0,.8-2.57,6.83,6.83,0,0,0-1.36-4.67,7.85,7.85,0,0,0-1.46-1.52,5.23,5.23,0,0,1-.4-.34l-.54-.5-.51-.52a5.71,5.71,0,0,0-.47-.45,6.84,6.84,0,0,0-2.92-1.59,6.19,6.19,0,0,0-1.6-.23,6.33,6.33,0,0,0-3.2.67l-.2.09-.3.19-.62.38-1.23.77c-1.66,1-3.29,2.07-5,3s-3.52,1.77-5.3,2.62a8,8,0,0,0-2,1.28,6.87,6.87,0,0,0-1.43,2,6.6,6.6,0,0,0-.22,4.94,5.78,5.78,0,0,0,1.31,2.1l.45.45.54.5c.35.31.76.71,1.09.94a7.93,7.93,0,0,0,4,1.46,10.84,10.84,0,0,0,1.88.05,10.06,10.06,0,0,0,1.81-.22,11,11,0,0,0,1.85-.49l.25-.08c.09,0,.21-.1.32-.15s.45-.2.68-.3c.45-.21.92-.39,1.38-.58,1.86-.74,3.79-1.39,5.6-2.21A25.8,25.8,0,0,0,113,175Z"/><path class="cls-2" d="M124,194.66a21.78,21.78,0,0,0-3.92,3.65c-1.18,1.39-2.25,2.93-3.38,4.39a9.62,9.62,0,0,1-6.21,3.29,10.11,10.11,0,0,1-7-1.82A9.76,9.76,0,0,1,101,201.6a11.94,11.94,0,0,1-.84-1.48l-.54-1.26-1.16-2.68a16.41,16.41,0,0,1-.79-3,14.06,14.06,0,0,1,.35-6,13.12,13.12,0,0,1,3.12-5.48c1.22-1.35,2.41-2.72,3.68-4s2.61-2.43,4-3.61a12.87,12.87,0,0,1,6.9-2.94,12.19,12.19,0,0,1,7.48,1.64,11.88,11.88,0,0,1,3,2.5,7.3,7.3,0,0,1,.6.75c.17.24.41.56.51.74.24.37.45.77.67,1.15s.42.8.62,1.2l.37.77a5.83,5.83,0,0,1,.35.85,10.4,10.4,0,0,1,.61,3.55,11.81,11.81,0,0,1-.57,3.35,13.83,13.83,0,0,1-1.37,2.84A15.23,15.23,0,0,1,124,194.66Zm-.47-.64a6.66,6.66,0,0,0,1.65-1.9,6,6,0,0,0,.73-2.34,6.38,6.38,0,0,0-1.23-4.27,8.36,8.36,0,0,0-1.31-1.39c-.11-.1-.24-.19-.35-.28s-.19-.15-.39-.33-.64-.62-1-.95-.62-.64-.91-1a3,3,0,0,0-.31-.31,3.22,3.22,0,0,0-.28-.24,7.14,7.14,0,0,0-1.22-.77,6.21,6.21,0,0,0-5.68,0c-1.52.93-3,1.88-4.62,2.7s-3.25,1.57-4.89,2.32a7,7,0,0,0-1.84,1.12,6.12,6.12,0,0,0-1.35,1.78,6,6,0,0,0-.36,4.47,5.56,5.56,0,0,0,1.12,1.95,9.29,9.29,0,0,0,.84.8l1,.89,1,.88a5.58,5.58,0,0,0,.87.55,9.12,9.12,0,0,0,1.69.69,13.23,13.23,0,0,0,3.24.54,11.29,11.29,0,0,0,3.63-.32c1.73-.64,3.52-1.2,5.2-1.91A22.43,22.43,0,0,0,123.52,194Z"/><path class="cls-2" d="M149.67,138.2q5.57,3.35,11.05,6.8l5.46,3.42a9,9,0,0,0,5.19,1.28,8.2,8.2,0,0,0,2.55-.56,7.84,7.84,0,0,0,2.22-1.26,8,8,0,0,0,1.69-1.84,7.24,7.24,0,0,0,1.09-2.19,7.78,7.78,0,0,0-2.53-8.4L166,128.39c-3.56-2.41-7-4.93-10.71-7.16q-10.89-6.93-21.67-14l5.93-.51c-2,2-4,3.72-6,5.5s-4.16,3.48-6.37,5.13a66.46,66.46,0,0,1-7,4.67,38.57,38.57,0,0,1-4.07,2,18.74,18.74,0,0,1-5.14,1.4,12.86,12.86,0,0,1-1.66.07,12,12,0,0,1-1.92-.24,11.69,11.69,0,0,1-1.74-.57l-1-.44a30.94,30.94,0,0,1-4.12-2.24,19.11,19.11,0,0,1-4-3.37,14.85,14.85,0,0,1-1.77-2.41,13,13,0,0,1-1.23-3.08,11.9,11.9,0,0,1,.23-6.51,8.73,8.73,0,0,1,.52-1.39c.19-.43.38-.88.6-1.29a25.06,25.06,0,0,1,1.4-2.2l.76-1c.25-.31.53-.67.73-.9L99,98.41l2.71-3a156.28,156.28,0,0,1,11.6-11.26c2.05-1.79,4.19-3.49,6.41-5.13a61.37,61.37,0,0,1,7.09-4.56,30.6,30.6,0,0,1,8.47-3.21,16.89,16.89,0,0,1,2.51-.3,8.28,8.28,0,0,1,1.32,0l.68,0,.34,0,.25,0c1.34.17,2.68.37,4,.58,2.66.44,5.32,1,7.95,1.58q2,.47,3.93,1c1.32.38,2.57.75,4,1.25l-3,.63,8.87-7.23,8.94-7.16c3-2.4,6-4.71,9-7.07s6.06-4.66,9.12-6.95c-2.58,2.82-5.18,5.63-7.83,8.38s-5.25,5.55-7.94,8.26l-8,8.17-8.09,8.1-1.1,1.1-1.86-.47c-1.09-.27-2.38-.55-3.6-.78s-2.49-.44-3.75-.63q-3.77-.57-7.57-.9c-1.26-.11-2.53-.19-3.8-.26l-.23,0H139a2.85,2.85,0,0,0-.64,0A8.83,8.83,0,0,0,137,79a23.2,23.2,0,0,0-6,2.78A74.15,74.15,0,0,0,119.44,91c-3.7,3.44-7.19,7.17-10.6,11l-2.51,2.88-1.24,1.46c-.23.26-.33.43-.49.63l-.44.58c-.28.39-.43.76-.68,1.12l-.2.5a1.24,1.24,0,0,0-.17.46,1.9,1.9,0,0,1-.11.39,1.58,1.58,0,0,1,0,.31c0,.11,0,.18,0,.27a.38.38,0,0,0,0,.25,2.56,2.56,0,0,0,.22.56,5.92,5.92,0,0,0,.57.73,9.3,9.3,0,0,0,2,1.63,21.46,21.46,0,0,0,2.79,1.48l.78.33c.39.18.14,0,.11.06s0,0,0,0,.15,0,.29,0a9.35,9.35,0,0,0,2.4-.69,28,28,0,0,0,3-1.46,68.34,68.34,0,0,0,6.09-4A140.4,140.4,0,0,0,133,99.91l2.9-2.62,3,2.11q10.64,7.42,21.17,15c3.55,2.47,6.92,5.2,10.32,7.87l5.09,4,2.54,2c.86.72,1.59,1.22,2.73,2.27a13.78,13.78,0,0,1,4,7.21,13.5,13.5,0,0,1-.86,8,13.05,13.05,0,0,1-5.16,5.92,12.56,12.56,0,0,1-14.33-.78l-5-4.22Q154.51,142.54,149.67,138.2Z"/><path class="cls-2" d="M149.54,138.41a98.37,98.37,0,0,1,15.7,7.65l.93.56a5.24,5.24,0,0,1,.54.35l.58.41a13.76,13.76,0,0,1,2.07,2,13.11,13.11,0,0,1,2.67,5.14,13.83,13.83,0,0,1,.24,5.87,14.13,14.13,0,0,1-2.27,5.46c-.15.23-.26.36-.36.5l-.33.44c-.31.38-.63.77-1,1.14s-.69.71-1.07,1a14.66,14.66,0,0,1-1.17.91,13.91,13.91,0,0,1-5.45,2.2,13.12,13.12,0,0,1-10.77-3,97.92,97.92,0,0,1-12-12.72A98.46,98.46,0,0,1,153.62,164a7.42,7.42,0,0,0,5.52.6,6.72,6.72,0,0,0,2.37-1.2c.18-.13.33-.28.51-.42l.46-.46.41-.52.31-.43c.11-.15.21-.3.25-.37a6.87,6.87,0,0,0,1.19-5,7.12,7.12,0,0,0-.9-2.61,9.21,9.21,0,0,0-.85-1.15l-.25-.28-.31-.31-.8-.72A100.49,100.49,0,0,1,149.54,138.41Z"/><path class="cls-2" d="M126.19,174.48c2.58,1,5.16,2.05,7.61,3.26,1.22.6,2.44,1.21,3.63,1.85.61.31,1.2.64,1.79,1a17.5,17.5,0,0,0,1.6.84,6.7,6.7,0,0,0,5.05.12,6.17,6.17,0,0,0,2-1.25,5.57,5.57,0,0,0,.81-.87c.09-.1.32-.42.51-.69l.59-.82c.23-.31.31-.44.43-.61a3.78,3.78,0,0,0,.3-.51,5.7,5.7,0,0,0,.45-1.09,6.16,6.16,0,0,0,.27-2.39,7,7,0,0,0-.66-2.41,3.81,3.81,0,0,0-.31-.56,4.27,4.27,0,0,0-.37-.54,3.1,3.1,0,0,0-.44-.53,3,3,0,0,0-.25-.28l-.37-.35a86.48,86.48,0,0,1-11-12.25,87.12,87.12,0,0,1,14.73,7.21l.43.27.53.36a8.13,8.13,0,0,1,1.07.81,8.7,8.7,0,0,1,1,.95,9.89,9.89,0,0,1,.88,1.06,12.82,12.82,0,0,1,2.24,5,13.12,13.12,0,0,1-.12,5.61,12.89,12.89,0,0,1-1,2.66,10,10,0,0,1-.69,1.24c-.25.39-.54.83-.71,1l-.6.8c-.21.28-.37.5-.71.91a12.27,12.27,0,0,1-2,2,13.24,13.24,0,0,1-5,2.46,12.45,12.45,0,0,1-10.43-2.1,16.36,16.36,0,0,1-1.69-1.49c-.49-.47-1-.93-1.46-1.42q-1.46-1.43-2.85-2.91c-.93-1-1.86-2-2.75-3.07A27.42,27.42,0,0,1,126.19,174.48Z"/><path class="cls-2" d="M121.6,195c1.05.43,2.06.91,3.07,1.41.5.24,1,.5,1.49.76l.73.4a4.37,4.37,0,0,0,.64.31,6,6,0,0,0,3.76.34,5.69,5.69,0,0,0,3-1.75,3.17,3.17,0,0,1,.28-.34l.49-.65,1-1.32c.41-.52.51-.66.7-.92l.23-.38a3.62,3.62,0,0,1,.19-.4,5.81,5.81,0,0,0,.32-3.66,6.38,6.38,0,0,0-.77-1.87l-.29-.44a5.46,5.46,0,0,1-.38-.44c-.33-.36-.76-.78-1.14-1.18a78.8,78.8,0,0,1-8.69-10.43,79,79,0,0,1,12.27,5.68l1.48.84.9.61.87.72a12.09,12.09,0,0,1,2.74,3.69,12.79,12.79,0,0,1,1.21,4.53,13.2,13.2,0,0,1-.55,4.74l-.43,1.13c-.16.37-.34.73-.52,1.09a20.11,20.11,0,0,1-1.16,1.82l-1,1.34-.49.69c-.24.32-.51.63-.77.94a12.87,12.87,0,0,1-8.48,4.23,12.16,12.16,0,0,1-8.8-2.71,7.31,7.31,0,0,1-.71-.63l-.6-.59c-.39-.39-.79-.78-1.17-1.19-.77-.81-1.54-1.63-2.26-2.51Z"/><path class="cls-2" d="M177.78,132.36a20.3,20.3,0,0,0,2.26-4.45,28.74,28.74,0,0,0,1.26-4.44,37.31,37.31,0,0,0,.55-4.42c.05-.73,0-1.48.08-2.2s0-1.48,0-2.2l0-1.31,1.38-1.55c2.55-2.87,5.23-5.59,8-8.2s5.7-5.09,8.72-7.44a107.5,107.5,0,0,1,9.48-6.61,64.4,64.4,0,0,1,10.57-5.4,64.38,64.38,0,0,1-6.36,10,107.64,107.64,0,0,1-7.47,8.82c-2.62,2.8-5.37,5.45-8.22,8s-5.81,5-8.91,7.23l1.4-2.86a30.12,30.12,0,0,1-1.49,5.43,24.85,24.85,0,0,1-2.61,5,19.62,19.62,0,0,1-3.8,4.12A12.18,12.18,0,0,1,177.78,132.36Z"/><path class="cls-2" d="M62.58,132.36c-.17.21-.36.42-.54.62s-.25.22-.38.33-.4.24-.5.22l-.51-.26c-.34-.17-.65-.37-1-.57a13.77,13.77,0,0,1-1.77-1.4,13.43,13.43,0,0,1-2.78-3.67,14.4,14.4,0,0,1-1.43-4.42,17.51,17.51,0,0,1-.18-2.28,18.45,18.45,0,0,1,.19-2.24h0l1,2.81a50.81,50.81,0,0,1-9.92-7.8c-1.5-1.45-2.94-3-4.33-4.55S37.67,106,36.3,104.4c-2.73-3.2-5.4-6.45-8-9.82S23.26,87.79,21,84.14c3.72,2.17,7.22,4.57,10.68,7s6.79,5,10.07,7.64c1.63,1.32,3.26,2.65,4.87,4s3.19,2.72,4.69,4.17a51.23,51.23,0,0,1,8.12,9.67l1.3,2.1-.29.71h0c0,.52,0,1,0,1.54s0,1,0,1.5a16.06,16.06,0,0,0,.35,2.92,12.29,12.29,0,0,0,1,2.88,11.88,11.88,0,0,0,.77,1.39,7.85,7.85,0,0,0,.47.66l.24.32c0,.07,0,.19-.11.48l-.18.47C62.8,131.86,62.68,132.1,62.58,132.36Z"/><path class="cls-2" d="M54.94,47.71a103,103,0,0,1,10.19,5.92q4.91,3.18,9.54,6.66t9.09,7.16q2.23,1.83,4.4,3.74c1.47,1.25,2.9,2.54,4.32,3.84l-4.56-.83c.94-.34,1.7-.6,2.56-.84s1.67-.47,2.5-.68c1.67-.45,3.37-.77,5.07-1.06a52.08,52.08,0,0,1,10.39-.72,32.47,32.47,0,0,1,10.4,2,16.56,16.56,0,0,1,8.23,6.31,21.75,21.75,0,0,0-9.14-2.28,43.47,43.47,0,0,0-9.1.69,88.24,88.24,0,0,0-9,2.07c-1.49.4-3,.89-4.44,1.34-.74.24-1.46.49-2.19.74s-1.48.53-2.07.76l-2.48,1-2.09-1.8c-1.45-1.26-2.91-2.52-4.32-3.82S79.38,75.29,78,74q-4.2-4-8.19-8.17T62,57.12A101.16,101.16,0,0,1,54.94,47.71Z"/></svg>