<svg xmlns="http://www.w3.org/2000/svg" xmlns:xlink="http://www.w3.org/1999/xlink" data-name="Layer 1" width="974" height="714.52" viewBox="0 0 974 714.52"><defs><linearGradient id="0716a939-3e70-42e2-b2a4-62d4623bb7b7-3010" x1="574.72" y1="713.31" x2="574.72" y2="358.2" gradientUnits="userSpaceOnUse"><stop offset="0" stop-color="gray" stop-opacity="0.25"/><stop offset="0.54" stop-color="gray" stop-opacity="0.12"/><stop offset="1" stop-color="gray" stop-opacity="0.1"/></linearGradient><linearGradient id="246fdb29-47ea-4475-84d7-0cdffd1436cc-3011" x1="2975.38" y1="757.78" x2="2975.38" y2="205.6" gradientTransform="matrix(-1, 0, 0, 1, 3906, 0)" xlink:href="#0716a939-3e70-42e2-b2a4-62d4623bb7b7-3010"/></defs><title>make_it_rain</title>


<path d="M1003,716.43s18.64,23.43,22.95,22.95,14.34,9.08,8.61,12-38.72,4.78-55-7.65V725Z" transform="translate(-113 -92.74)" fill="#aca9c9"/><path d="M908.81,717.86s-11,19.6-18.64,22-14.34,11-4.3,13.39,45.9-2.87,49.24-8.61V719.29Z" transform="translate(-113 -92.74)" fill="#aca9c9"/><path d="M895,525.31l9.5,67.78V624.6a56.48,56.48,0,0,0,1.72,14.18c3.1,11.93.55,53.55-.89,73.3-.47,6.44-.83,10.56-.83,10.56,6.21-2.87,32.51,6.21,32.51,6.21l2.66-9.05,2.12-7.2c5.74-4.3,1-81.27,0-99-.65-12.11,4.75-51.37,8.21-74.9,1-6.65,1.81-12,2.3-15.22.31-2,.48-3.11.48-3.11a10.47,10.47,0,0,1,2.58,3.11,29.93,29.93,0,0,1,2.11,4.42c9.62,24.31,14,93.81,14,100v65.36a68.92,68.92,0,0,0,2.63,19.07,100,100,0,0,1,2.59,13.77c.68,5.19,1,9.37,1,9.37.48-2.87,30.12-15.78,30.12-15.78v-109s1.43-43,5.74-85.58a152.68,152.68,0,0,0-5.5-57.58c-1.19-4.07-2.38-7.52-3.41-10.25-1.75-4.65-3-7.22-3-7.22H904c-1.64.31-3,3.61-4.23,8.62-.8,3.36-1.5,7.48-2.11,12-1.81,13.31-2.85,29.88-3.35,39.46A79.86,79.86,0,0,0,895,525.31Z" transform="translate(-113 -92.74)" fill="#618fd8"/><g opacity="0.1"><path d="M1006.09,720V611s1.43-43,5.74-85.58-12-75.06-12-75.06h1.91s16.25,32.51,12,75.06S1008,611,1008,611V720s-29.64,12.91-30.12,15.78c0,0,0-.64-.15-1.74C984.19,729.55,1006.09,720,1006.09,720Z" transform="translate(-113 -92.74)"/><path d="M907.37,722.34a7.42,7.42,0,0,0-2.63.54l0-.48A17.06,17.06,0,0,1,907.37,722.34Z" transform="translate(-113 -92.74)"/><path d="M940.12,712.84c5.74-4.3,1-81.27,0-99s11-93.22,11-93.22a8.34,8.34,0,0,1,1.65,1.7c-1.76,11.28-11.6,75.41-10.73,91.52,1,17.69,5.74,94.66,0,99l-4.78,16.25-1.74-.58Z" transform="translate(-113 -92.74)"/></g><path d="M914.54,332.05l-10,35.38s-10.52,10-19.12,0S871.52,330.62,871,324.88s-8.13-35.38-11-35.38-31.55,1.91-34.9-10c-2.68-9.58,29.34-5,42.16-2.85a9.5,9.5,0,0,1,7.17,5.7l19.66,46.95S904.5,317.23,914.54,332.05Z" transform="translate(-113 -92.74)" fill="#f7c4a7"/><path d="M979.08,249.82s-12.43,34.9,3.35,47.33S926,312.93,926,312.93l9.8-9.32s6.93-27.49,2.15-50.44Z" transform="translate(-113 -92.74)" fill="#f7c4a7"/><path d="M963.78,297.15s12.67-3.11,12.67-6.45l11.23,6.45h28.21s20.56,11.47,3.35,45.9-9.56,119-9.56,119-61.19-11-111.87,5.74c0,0,7.65-37.77,4.78-59.28s4.78-51.63,4.78-51.63l4.3-18.17s-.24-17-17.93-8.37c0,0-2.63-24.62,15.54-27.49,0,0,21,2.87,27.25-7.65C936.53,295.24,950.4,303.37,963.78,297.15Z" transform="translate(-113 -92.74)" opacity="0.1"/><path d="M963.78,296.2s12.67-3.11,12.67-6.45l8.23,4.73a13,13,0,0,0,6.46,1.72h19.73a13,13,0,0,1,10.57,5.38c4.53,6.37,8.59,18.93-2.2,40.52-17.21,34.42-9.56,119-9.56,119s-61.19-11-111.87,5.74c0,0,7.65-37.77,4.78-59.28S907.37,356,907.37,356l4.3-18.17s-.24-17-17.93-8.37c0,0-2.56-23.94,14.79-27.36A4.9,4.9,0,0,1,910,302c3.71.39,21,1.64,26.54-7.73C936.53,294.28,950.4,302.41,963.78,296.2Z" transform="translate(-113 -92.74)" fill="#e14b5a"/><path d="M1012.07,339.7s-15.3,9.56-40.16,0c0,0-27.25-10-35.86-29.64s43.5,3.35,43.5,3.35,11,0,14.34-2.39S1020.67,329.18,1012.07,339.7Z" transform="translate(-113 -92.74)" opacity="0.1"/><path d="M1012.07,337.79s-15.3,9.56-40.16,0c0,0-27.25-10-35.86-29.64S907.37,267,907.37,267s-34.9-13.39-33-26.77,40.16,14.82,40.16,14.82l15.3,14.34,49.72,42.07s11,0,14.34-2.39S1020.67,327.27,1012.07,337.79Z" transform="translate(-113 -92.74)" fill="#f7c4a7"/><path d="M937.49,254.6l41.11-3.35a94.37,94.37,0,0,0-4.29,19.47,26.27,26.27,0,0,1-36.8,1A46.73,46.73,0,0,0,937.49,254.6Z" transform="translate(-113 -92.74)" opacity="0.1"/><circle cx="842.9" cy="158.28" r="26.29" fill="#f7c4a7"/><path d="M970.33,256.73c-1.54-2.54,1.59-5.85.56-8.63-.95-2.56-4.73-3-6-5.39-1-1.93,0-4.3-.4-6.43-.57-2.75-3.53-4.46-6.34-4.6s-5.52.91-8.19,1.81c-4.35,1.47-8.93,2.6-13.49,2.08s-9.11-3-11.14-7.07a4,4,0,0,1-.51-1.94c.08-1.5,1.46-2.53,2.35-3.73,1.56-2.09,1.74-4.94,3.16-7.12,2.9-4.44,9.27-4.33,14.57-4.35,7.8,0,15.56-1.46,23.36-1.2s16,2.47,21.17,8.33c6.2,7.05,6.48,17.37,6.43,26.77,0,3.87-.16,8.08-2.63,11.07-.72.87-1.6,1.59-2.29,2.48-1.5,2-1.9,4.56-3.31,6.59-2.5,3.61-7.38,4.49-11.73,5.07,1.28-.17.22-8.74,0-9.53C975.06,257,974.15,257.08,970.33,256.73Z" transform="translate(-113 -92.74)" opacity="0.1"/><path d="M970.33,255.78c-1.54-2.54,1.59-5.85.56-8.63-.95-2.56-4.73-3-6-5.39-1-1.93,0-4.3-.4-6.43-.57-2.75-3.53-4.46-6.34-4.6s-5.52.91-8.19,1.81c-4.35,1.47-8.93,2.6-13.49,2.08s-9.11-3-11.14-7.07a4,4,0,0,1-.51-1.94c.08-1.5,1.46-2.53,2.35-3.73,1.56-2.09,1.74-4.94,3.16-7.12,2.9-4.44,9.27-4.33,14.57-4.35,7.8,0,15.56-1.46,23.36-1.2s16,2.47,21.17,8.33c6.2,7.05,6.48,17.37,6.43,26.77,0,3.87-.16,8.08-2.63,11.07-.72.87-1.6,1.59-2.29,2.48-1.5,2-1.9,4.56-3.31,6.59-2.5,3.61-7.38,4.49-11.73,5.07,1.28-.17.22-8.74,0-9.53C975.06,256,974.15,256.12,970.33,255.78Z" transform="translate(-113 -92.74)" fill="#281c1c"/><path d="M1011.83,340.9s-12.91-33.47-22.95-34.42,19.12,0,19.12,0l9.56,17.21Z" transform="translate(-113 -92.74)" opacity="0.1"/><path d="M1012.79,340.9s-12.91-33.47-22.95-34.42,19.12,0,19.12,0l9.56,17.21Z" transform="translate(-113 -92.74)" fill="#e14b5a"/><path d="M976.65,726.18c.68,5.19,1,9.37,1,9.37.48-2.87,30.12-15.78,30.12-15.78V712a13.18,13.18,0,0,0-2.26.11c-5.75.77-11.08,3.56-16,6.54A145.93,145.93,0,0,1,976.65,726.18Z" transform="translate(-113 -92.74)" fill="#618fd8"/><path d="M976.65,726.18c.68,5.19,1,9.37,1,9.37.48-2.87,30.12-15.78,30.12-15.78V712a13.18,13.18,0,0,0-2.26.11c-5.75.77-11.08,3.56-16,6.54A145.93,145.93,0,0,1,976.65,726.18Z" transform="translate(-113 -92.74)" opacity="0.3"/><path d="M904.5,722.64c6.21-2.87,32.51,6.21,32.51,6.21l2.66-9.05c-4.59-.93-9.15-2.09-13.63-3.47a45.34,45.34,0,0,1-6.12-2.26,41,41,0,0,0-4.08-1.9c-3.43-1.18-7-.68-10.52-.09C904.86,718.52,904.5,722.64,904.5,722.64Z" transform="translate(-113 -92.74)" fill="#618fd8"/><path d="M904.5,722.64c6.21-2.87,32.51,6.21,32.51,6.21l2.66-9.05c-4.59-.93-9.15-2.09-13.63-3.47a45.34,45.34,0,0,1-6.12-2.26,41,41,0,0,0-4.08-1.9c-3.43-1.18-7-.68-10.52-.09C904.86,718.52,904.5,722.64,904.5,722.64Z" transform="translate(-113 -92.74)" opacity="0.3"/><path d="M1034.3,749.89a2.86,2.86,0,0,0,1.64-1.9,2.81,2.81,0,0,1-1.64,3.33c-5.74,2.87-38.72,4.78-55-7.65v-1.43C995.58,754.67,1028.56,752.76,1034.3,749.89Z" transform="translate(-113 -92.74)" fill="#fff" opacity="0.4"/><path d="M885.62,751.8c10,2.39,45.9-2.87,49.24-8.61v1.43c-3.35,5.74-39.2,11-49.24,8.61-4.1-1-5.41-3-5-5.19C880.94,749.66,882.44,751,885.62,751.8Z" transform="translate(-113 -92.74)" fill="#fff" opacity="0.4"/><path d="M943.94,403.53s-10.52-3.35-13.39,0-27.4,11.2-27.4,11.2" transform="translate(-113 -92.74)" opacity="0.1"/><rect x="824.9" y="271.1" width="51.15" height="1.08" transform="translate(1587.96 450.53) rotate(-180)" fill="#8ed16f"/><rect x="824.9" y="272.17" width="51.15" height="1.08" transform="translate(1587.96 452.68) rotate(-180)" fill="#8ed16f"/><rect x="824.9" y="272.17" width="51.15" height="1.08" transform="translate(1587.96 452.68) rotate(-180)" opacity="0.1"/><rect x="824.9" y="273.25" width="51.15" height="1.08" transform="translate(1587.96 454.84) rotate(-180)" fill="#8ed16f"/><rect x="824.9" y="274.33" width="51.15" height="1.08" transform="translate(1587.96 456.99) rotate(-180)" fill="#8ed16f"/><rect x="824.9" y="274.33" width="51.15" height="1.08" transform="translate(1587.96 456.99) rotate(-180)" opacity="0.1"/><rect x="824.9" y="275.4" width="51.15" height="1.08" transform="translate(1587.96 459.14) rotate(-180)" fill="#8ed16f"/><rect x="824.9" y="276.48" width="51.15" height="1.08" transform="translate(1587.96 461.29) rotate(-180)" fill="#8ed16f"/><rect x="824.9" y="276.48" width="51.15" height="1.08" transform="translate(1587.96 461.29) rotate(-180)" opacity="0.1"/><rect x="824.9" y="277.55" width="51.15" height="1.08" transform="translate(1587.96 463.44) rotate(-180)" fill="#8ed16f"/><rect x="824.9" y="278.63" width="51.15" height="1.08" transform="translate(1587.96 465.59) rotate(-180)" fill="#8ed16f"/><rect x="824.9" y="278.63" width="51.15" height="1.08" transform="translate(1587.96 465.59) rotate(-180)" opacity="0.1"/><rect x="824.9" y="262.49" width="51.15" height="1.08" transform="translate(1587.96 433.32) rotate(-180)" fill="#8ed16f"/><rect x="855.5" y="253.41" width="51.15" height="1.08" transform="translate(1283.12 919.84) rotate(-140.25)" fill="#8ed16f"/><rect x="819.64" y="236.2" width="51.15" height="1.08" transform="translate(1230.7 866.47) rotate(-140.25)" fill="#8ed16f"/><rect x="824.9" y="263.57" width="51.15" height="1.08" transform="translate(1587.96 435.47) rotate(-180)" fill="#8ed16f"/><rect x="824.9" y="263.57" width="51.15" height="1.08" transform="translate(1587.96 435.47) rotate(-180)" opacity="0.1"/><rect x="824.9" y="264.64" width="51.15" height="1.08" transform="translate(1587.96 437.63) rotate(-180)" fill="#8ed16f"/><rect x="824.9" y="265.72" width="51.15" height="1.08" transform="translate(1587.96 439.78) rotate(-180)" fill="#8ed16f"/><rect x="824.9" y="265.72" width="51.15" height="1.08" transform="translate(1587.96 439.78) rotate(-180)" opacity="0.1"/><rect x="824.9" y="266.8" width="51.15" height="1.08" transform="translate(1587.96 441.93) rotate(-180)" fill="#8ed16f"/><rect x="824.9" y="267.87" width="51.15" height="1.08" transform="translate(1587.96 444.08) rotate(-180)" fill="#8ed16f"/><rect x="824.9" y="267.87" width="51.15" height="1.08" transform="translate(1587.96 444.08) rotate(-180)" opacity="0.1"/><rect x="824.9" y="268.95" width="51.15" height="1.08" transform="translate(1587.96 446.23) rotate(-180)" fill="#8ed16f"/><rect x="824.9" y="270.02" width="51.15" height="1.08" transform="translate(1587.96 448.38) rotate(-180)" fill="#8ed16f"/><rect x="824.9" y="270.02" width="51.15" height="1.08" transform="translate(1587.96 448.38) rotate(-180)" opacity="0.1"/><rect x="821.56" y="278.75" width="18.64" height="36.33" transform="translate(1480.61 647.76) rotate(-169.48)" fill="#8ed16f"/><ellipse cx="831.11" cy="296.96" rx="7.65" ry="3.82" transform="translate(274.45 967.17) rotate(-79.48)" fill="#8ed16f"/><ellipse cx="831.11" cy="296.96" rx="7.65" ry="3.82" transform="translate(274.45 967.17) rotate(-79.48)" opacity="0.1"/><rect x="824.7" y="354.13" width="18.64" height="36.33" transform="translate(1473.07 797.84) rotate(-169.48)" fill="#8ed16f"/><ellipse cx="834.25" cy="372.34" rx="7.65" ry="3.82" transform="translate(202.89 1031.88) rotate(-79.48)" fill="#8ed16f"/><ellipse cx="834.25" cy="372.34" rx="7.65" ry="3.82" transform="translate(202.89 1031.88) rotate(-79.48)" opacity="0.1"/><rect x="757.49" y="201.78" width="18.64" height="36.33" transform="translate(95.43 696.93) rotate(-61.58)" fill="#8ed16f"/><ellipse cx="766.7" cy="220.15" rx="3.82" ry="7.65" transform="matrix(0.48, -0.88, 0.88, 0.48, 95.18, 696.94)" fill="#8ed16f"/><ellipse cx="766.7" cy="220.15" rx="3.82" ry="7.65" transform="matrix(0.48, -0.88, 0.88, 0.48, 95.18, 696.94)" opacity="0.1"/><rect x="687.34" y="525.31" width="18.64" height="36.33" transform="translate(-225.88 804.78) rotate(-61.58)" fill="#8ed16f"/><ellipse cx="696.55" cy="543.69" rx="3.82" ry="7.65" transform="translate(-226.12 804.8) rotate(-61.58)" fill="#8ed16f"/><ellipse cx="696.55" cy="543.69" rx="3.82" ry="7.65" transform="translate(-226.12 804.8) rotate(-61.58)" opacity="0.1"/><rect x="644.41" y="258.32" width="18.64" height="36.33" transform="translate(-13.56 627.11) rotate(-61.58)" fill="#8ed16f"/><ellipse cx="653.62" cy="276.69" rx="3.82" ry="7.65" transform="translate(-13.8 627.12) rotate(-61.58)" fill="#8ed16f"/><ellipse cx="653.62" cy="276.69" rx="3.82" ry="7.65" transform="translate(-13.8 627.12) rotate(-61.58)" opacity="0.1"/><rect x="698.21" y="201.78" width="18.64" height="36.33" transform="translate(64.36 644.79) rotate(-61.58)" fill="#8ed16f"/><ellipse cx="707.42" cy="220.15" rx="3.82" ry="7.65" transform="translate(64.12 644.8) rotate(-61.58)" fill="#8ed16f"/><ellipse cx="707.42" cy="220.15" rx="3.82" ry="7.65" transform="translate(64.12 644.8) rotate(-61.58)" opacity="0.1"/><rect x="733.11" y="270.67" width="18.64" height="36.33" transform="translate(-140.01 -10.27) rotate(-6.24)" fill="#8ed16f"/><ellipse cx="742.19" cy="288.87" rx="3.82" ry="7.65" transform="translate(-140.02 -10.3) rotate(-6.24)" fill="#8ed16f"/><ellipse cx="742.19" cy="288.87" rx="3.82" ry="7.65" transform="translate(-140.02 -10.3) rotate(-6.24)" opacity="0.1"/><rect x="860.17" y="468.42" width="18.64" height="36.33" transform="translate(-160.77 4.72) rotate(-6.24)" fill="#8ed16f"/><ellipse cx="869.25" cy="486.61" rx="3.82" ry="7.65" transform="translate(-160.77 4.7) rotate(-6.24)" fill="#8ed16f"/><ellipse cx="869.25" cy="486.61" rx="3.82" ry="7.65" transform="translate(-160.77 4.7) rotate(-6.24)" opacity="0.1"/><rect x="679.37" y="345.22" width="18.64" height="36.33" transform="translate(-71.67 703.39) rotate(-61.58)" fill="#8ed16f"/><ellipse cx="688.57" cy="363.6" rx="3.82" ry="7.65" transform="translate(-71.92 703.4) rotate(-61.58)" fill="#8ed16f"/><ellipse cx="688.57" cy="363.6" rx="3.82" ry="7.65" transform="translate(-71.92 703.4) rotate(-61.58)" opacity="0.1"/><rect x="598.74" y="322.19" width="18.64" height="36.33" transform="translate(-93.67 620.41) rotate(-61.58)" fill="#8ed16f"/><ellipse cx="607.95" cy="340.56" rx="3.82" ry="7.65" transform="matrix(0.48, -0.88, 0.88, 0.48, -93.91, 620.42)" fill="#8ed16f"/><ellipse cx="607.95" cy="340.56" rx="3.82" ry="7.65" transform="matrix(0.48, -0.88, 0.88, 0.48, -93.91, 620.42)" opacity="0.1"/><rect x="572.92" y="709.89" width="18.64" height="36.33" transform="translate(-448.18 800.89) rotate(-61.58)" fill="#8ed16f"/><ellipse cx="582.13" cy="728.27" rx="3.82" ry="7.65" transform="translate(-448.43 800.9) rotate(-61.58)" fill="#8ed16f"/><ellipse cx="582.13" cy="728.27" rx="3.82" ry="7.65" transform="translate(-448.43 800.9) rotate(-61.58)" opacity="0.1"/><rect x="554.27" y="711.81" width="18.64" height="36.33" transform="translate(-369.92 1058.26) rotate(-79.49)" fill="#8ed16f"/><rect x="554.27" y="711.81" width="18.64" height="36.33" transform="translate(-369.92 1058.26) rotate(-79.49)" opacity="0.05"/><ellipse cx="563.55" cy="730.21" rx="3.82" ry="7.65" transform="translate(-370.18 1058.41) rotate(-79.49)" fill="#8ed16f"/><ellipse cx="563.55" cy="730.21" rx="3.82" ry="7.65" transform="translate(-370.18 1058.41) rotate(-79.49)" opacity="0.1"/><rect x="557.62" y="722.8" width="18.64" height="36.33" transform="translate(-377.99 1070.54) rotate(-79.49)" fill="#8ed16f"/><ellipse cx="566.9" cy="741.2" rx="3.82" ry="7.65" transform="translate(-378.26 1070.69) rotate(-79.49)" fill="#8ed16f"/><ellipse cx="566.9" cy="741.2" rx="3.82" ry="7.65" transform="translate(-378.26 1070.69) rotate(-79.49)" opacity="0.1"/><rect x="610.61" y="757.01" width="18.64" height="36.33" transform="translate(-469.87 858.73) rotate(-61.58)" fill="#8ed16f"/><ellipse cx="619.82" cy="775.39" rx="3.82" ry="7.65" transform="translate(-470.11 858.74) rotate(-61.58)" fill="#8ed16f"/><ellipse cx="619.82" cy="775.39" rx="3.82" ry="7.65" transform="translate(-470.11 858.74) rotate(-61.58)" opacity="0.1"/><rect x="591.97" y="758.92" width="18.64" height="36.33" transform="translate(-385.42 1133.84) rotate(-79.49)" fill="#8ed16f"/><rect x="591.97" y="758.92" width="18.64" height="36.33" transform="translate(-385.42 1133.84) rotate(-79.49)" opacity="0.05"/><ellipse cx="601.25" cy="777.32" rx="3.82" ry="7.65" transform="translate(-385.69 1133.99) rotate(-79.49)" fill="#8ed16f"/><ellipse cx="601.25" cy="777.32" rx="3.82" ry="7.65" transform="translate(-385.69 1133.99) rotate(-79.49)" opacity="0.1"/><rect x="595.31" y="769.92" width="18.64" height="36.33" transform="translate(-393.5 1146.12) rotate(-79.49)" fill="#8ed16f"/><ellipse cx="604.59" cy="788.32" rx="3.82" ry="7.65" transform="translate(-393.76 1146.27) rotate(-79.49)" fill="#8ed16f"/><ellipse cx="604.59" cy="788.32" rx="3.82" ry="7.65" transform="translate(-393.76 1146.27) rotate(-79.49)" opacity="0.1"/><rect x="667.15" y="726.65" width="18.64" height="36.33" transform="translate(-413.53 892.54) rotate(-61.58)" fill="#8ed16f"/><ellipse cx="676.36" cy="745.02" rx="3.82" ry="7.65" transform="translate(-413.78 892.55) rotate(-61.58)" fill="#8ed16f"/><ellipse cx="676.36" cy="745.02" rx="3.82" ry="7.65" transform="translate(-413.78 892.55) rotate(-61.58)" opacity="0.1"/><rect x="648.51" y="728.56" width="18.64" height="36.33" transform="translate(-309.34 1164.61) rotate(-79.49)" fill="#8ed16f"/><rect x="648.51" y="728.56" width="18.64" height="36.33" transform="translate(-309.34 1164.61) rotate(-79.49)" opacity="0.05"/><ellipse cx="657.79" cy="746.96" rx="3.82" ry="7.65" transform="translate(-309.61 1164.76) rotate(-79.49)" fill="#8ed16f"/><ellipse cx="657.79" cy="746.96" rx="3.82" ry="7.65" transform="translate(-309.61 1164.76) rotate(-79.49)" opacity="0.1"/><rect x="651.85" y="739.55" width="18.64" height="36.33" transform="translate(-317.41 1176.89) rotate(-79.49)" fill="#8ed16f"/><ellipse cx="661.13" cy="757.96" rx="3.82" ry="7.65" transform="translate(-317.68 1177.04) rotate(-79.49)" fill="#8ed16f"/><ellipse cx="661.13" cy="757.96" rx="3.82" ry="7.65" transform="translate(-317.68 1177.04) rotate(-79.49)" opacity="0.1"/></svg>