<!--Scalable Vector Graphic-->
<svg xmlns="http://www.w3.org/2000/svg" xmlns:xlink="http://www.w3.org/1999/xlink"  width="100%" height="100%" viewBox="0 0 100% 100%" preserveAspectRatio="none">
  <path xmlns="http://www.w3.org/2000/svg" d="M1138.21,223.38c-45.43-72.74-122-123.89-204.79-136.89C858.71,74.77,780,94.28,718.11,139l13.64-10.77C683,160.08,619.67,158,564.21,141.42S457.81,95.27,403.76,74.27A551.27,551.27,0,0,0,262.81,40C193.94,32.6,117,41.56,69.05,93.13c-53.43,57.43-49.33,161,8.47,213.74,29.39,26.82,67.89,40,101.46,60.91s64.65,55.71,61.79,96.12C238.12,501.31,207.35,530,175.51,548c-24.62,13.93-54.93,29.13-57.9,58-2.87,27.9,22.62,49.76,47,62.2,79.4,40.55,177.22,40.16,256.32-1,28.22-14.69,54.16-34.24,83.75-45.69,77.7-30.07,163.32.2,245.6,11.27a524.39,524.39,0,0,0,208.88-14.2c40.75-11.24,81.65-28.42,110.27-60.42C1090,535,1102.89,505.83,1115,477q19.32-46.14,37.13-92.93c7.12-18.73,14.14-37.82,16-57.85C1171.41,289.9,1157.35,254,1138.21,223.38Zm-800.47,5.13H264.9a7.56,7.56,0,0,1,0-15.12h25a7.53,7.53,0,0,1,2.94-10.68h-8.19a7.56,7.56,0,0,1,0-15.12h72.83A7.56,7.56,0,0,1,361,201.86h8.2a7.56,7.56,0,1,1,0,15.12h-25a7.46,7.46,0,0,1,1.15,4A7.58,7.58,0,0,1,337.74,228.51ZM457.82,336.34h-25a7.54,7.54,0,0,1-6.41,11.54H353.58a7.56,7.56,0,0,1,0-15.12h25a7.53,7.53,0,0,1,2.95-10.68h-8.2a7.56,7.56,0,1,1,0-15.12h72.83a7.55,7.55,0,0,1,3.48,14.26h8.19a7.56,7.56,0,1,1,0,15.12ZM567.46,255.4l1.18,1.84a17.39,17.39,0,0,1-7.4-.74,19.17,19.17,0,0,1-10.09-3.83l6.39-1.07c-.08-1.91.61-4.44,2.51-7.8l4.26,6.67,11.42-1.9A19.9,19.9,0,0,1,567.46,255.4Zm168.25,76.84,1.18,1.84a17.57,17.57,0,0,1-7.4-.74,19.17,19.17,0,0,1-10.09-3.83l6.39-1.07c-.08-1.91.61-4.44,2.51-7.8l4.26,6.67,11.42-1.9A19.9,19.9,0,0,1,735.71,332.24ZM868.34,269l1.18,1.84a17.39,17.39,0,0,1-7.4-.74A19.17,19.17,0,0,1,852,266.22l6.39-1.07c-.08-1.91.61-4.44,2.51-7.8l4.26,6.67,11.41-1.9A19.84,19.84,0,0,1,868.34,269ZM958,189.69H933a7.54,7.54,0,0,1-6.41,11.54H853.78a7.56,7.56,0,1,1,0-15.12h25a7.53,7.53,0,0,1,3-10.68h-8.2a7.56,7.56,0,1,1,0-15.12h72.83a7.55,7.55,0,0,1,3.48,14.26H958a7.56,7.56,0,1,1,0,15.12Z" transform="translate(-31.44 -37.71)" fill="#0c8dc4" opacity="0.1"/>
  <ellipse cx="123.63" cy="680.6" rx="30.65" ry="4.21" fill="#005ea6" opacity="0.1"/>
  <ellipse cx="241.04" cy="692.51" rx="30.65" ry="4.21" fill="#005ea6" opacity="0.1"/>
  <ellipse cx="379.33" cy="676.39" rx="30.65" ry="4.21" fill="#005ea6" opacity="0.1"/>
  <ellipse cx="194.05" cy="726.4" rx="21.79" ry="2.99" fill="#005ea6" opacity="0.1"/>
  <ellipse cx="315.9" cy="723.41" rx="21.79" ry="2.99" fill="#005ea6" opacity="0.1"/>
  <path d="M273.13,729.27s-43-140.92,6.73-197.36c37.19-42.22,79.4-37.17,98.31-31.95a34.91,34.91,0,0,1,22.55,18.74c6.61,14.26,5.41,37.41-41.24,64.42-78.12,45.23-83,107.27-83,107.27Z" transform="translate(-31.44 -37.71)" fill="#fff"/>
  <path d="M271.4,730.39S321.74,628,335.57,630.21c6.57,1.07,9.6,7.53,11,14a41.18,41.18,0,0,1-2.74,24.93C336.65,685.55,317.46,716.68,271.4,730.39Z" transform="translate(-31.44 -37.71)" fill="#005ea6"/>
  <path d="M335.2,649.65s-52.85,76.63-63.06,80" transform="translate(-31.44 -37.71)" fill="none" stroke="#565987" stroke-miterlimit="10"/>
  <line x1="308.62" y1="623.91" x2="296.28" y2="623.91" fill="none" stroke="#565987" stroke-miterlimit="10"/>
  <line x1="293.84" y1="651.94" x2="274.51" y2="652.77" fill="none" stroke="#565987" stroke-miterlimit="10"/>
  <line x1="282.08" y1="629.51" x2="284.18" y2="639.58" fill="none" stroke="#565987" stroke-miterlimit="10"/>
  <line x1="261.52" y1="660.16" x2="261.89" y2="669.32" fill="none" stroke="#565987" stroke-miterlimit="10"/>
  <path d="M272.89,730.39S222.55,628,208.72,630.21c-6.57,1.07-9.6,7.53-11,14a41.25,41.25,0,0,0,2.74,24.93C207.64,685.55,226.83,716.68,272.89,730.39Z" transform="translate(-31.44 -37.71)" fill="#005ea6"/>
  <path d="M209.09,649.65s52.84,76.63,63,80" transform="translate(-31.44 -37.71)" fill="none" stroke="#565987" stroke-miterlimit="10"/>
  <line x1="172.79" y1="623.91" x2="185.13" y2="623.91" fill="none" stroke="#565987" stroke-miterlimit="10"/>
  <line x1="187.57" y1="651.94" x2="206.9" y2="652.77" fill="none" stroke="#565987" stroke-miterlimit="10"/>
  <line x1="199.33" y1="629.51" x2="197.23" y2="639.58" fill="none" stroke="#565987" stroke-miterlimit="10"/>
  <line x1="219.89" y1="660.16" x2="219.52" y2="669.32" fill="none" stroke="#565987" stroke-miterlimit="10"/>
  <path d="M359.33,754.31A8.73,8.73,0,0,0,362.2,750a3.85,3.85,0,0,0-2-4.4c-1.84-.7-3.81.57-5.3,1.86s-3.19,2.75-5.14,2.48a7.82,7.82,0,0,0,2.42-7.33,3.08,3.08,0,0,0-.67-1.49c-1-1.09-2.88-.62-4.1.24-3.89,2.73-5,8-5,12.76-.39-1.71-.06-3.5-.07-5.26s-.49-3.7-2-4.65a6,6,0,0,0-3-.71c-1.75-.06-3.69.11-4.89,1.39-1.48,1.59-1.1,4.25.19,6s3.26,2.85,5.06,4a11.26,11.26,0,0,1,3.62,3.45,5,5,0,0,1,.27.62h10.95A30.39,30.39,0,0,0,359.33,754.31Z" transform="translate(-31.44 -37.71)" fill="#005ea6"/>
  <path d="M167.5,713.06a8.79,8.79,0,0,0,2.86-4.32,3.85,3.85,0,0,0-2-4.41c-1.84-.7-3.8.57-5.29,1.86s-3.2,2.76-5.15,2.48a7.81,7.81,0,0,0,2.42-7.33,3.08,3.08,0,0,0-.67-1.49c-1-1.09-2.87-.62-4.1.24-3.88,2.73-5,8-5,12.76-.39-1.71-.06-3.5-.07-5.25s-.49-3.71-2-4.66a6,6,0,0,0-3-.71c-1.75-.06-3.69.12-4.89,1.39-1.48,1.59-1.09,4.26.2,6s3.25,2.85,5,4.06a11.23,11.23,0,0,1,3.62,3.44,3.87,3.87,0,0,1,.27.62h10.95A30.45,30.45,0,0,0,167.5,713.06Z" transform="translate(-31.44 -37.71)" fill="#005ea6"/>
  <path d="M231.43,754.31A8.73,8.73,0,0,0,234.3,750a3.85,3.85,0,0,0-2-4.4c-1.84-.7-3.81.57-5.3,1.86s-3.2,2.75-5.15,2.48a7.85,7.85,0,0,0,2.43-7.33,3.09,3.09,0,0,0-.68-1.49c-1-1.09-2.87-.62-4.09.24-3.89,2.73-5,8-5,12.76-.4-1.71-.07-3.5-.07-5.26s-.5-3.7-2-4.65a6,6,0,0,0-3-.71c-1.75-.06-3.7.11-4.89,1.39-1.48,1.59-1.1,4.25.19,6s3.25,2.85,5.06,4a11.26,11.26,0,0,1,3.62,3.45,3.84,3.84,0,0,1,.26.62h11A30.39,30.39,0,0,0,231.43,754.31Z" transform="translate(-31.44 -37.71)" fill="#005ea6"/>
  <path d="M412.76,670.93s4.1,5.37-1.9,13.48-10.95,15-8.95,20c0,0,9.06-15,16.43-15.26S420.86,680,412.76,670.93Z" transform="translate(-31.44 -37.71)" fill="#005ea6"/>
  <path d="M412.76,670.93a6.55,6.55,0,0,1,.83,1.68c7.2,8.45,11,16.34,4.12,16.54-6.44.18-14.17,11.69-16,14.6a4.64,4.64,0,0,0,.22.66s9.06-15,16.43-15.26S420.86,680,412.76,670.93Z" transform="translate(-31.44 -37.71)" opacity="0.1"/>
  <path d="M420.39,677.77c0,1.89-.21,3.43-.47,3.43s-.48-1.54-.48-3.43.27-1,.53-1S420.39,675.88,420.39,677.77Z" transform="translate(-31.44 -37.71)" fill="#ffd037"/>
  <path d="M423,680c-1.66.9-3.11,1.45-3.23,1.22s1.12-1.15,2.78-2,1-.25,1.13,0S424.67,679.13,423,680Z" transform="translate(-31.44 -37.71)" fill="#ffd037"/>
  <path d="M391.06,670.93s-4.1,5.37,1.9,13.48,11,15,9,20c0,0-9.06-15-16.43-15.26S383,680,391.06,670.93Z" transform="translate(-31.44 -37.71)" fill="#005ea6"/>
  <path d="M391.06,670.93a6.74,6.74,0,0,0-.84,1.68c-7.19,8.45-11,16.34-4.11,16.54,6.44.18,14.17,11.69,16,14.6a4.64,4.64,0,0,1-.22.66s-9.06-15-16.43-15.26S383,680,391.06,670.93Z" transform="translate(-31.44 -37.71)" opacity="0.1"/>
  <path d="M383.43,677.77c0,1.89.21,3.43.47,3.43s.48-1.54.48-3.43-.27-1-.53-1S383.43,675.88,383.43,677.77Z" transform="translate(-31.44 -37.71)" fill="#ffd037"/>
  <path d="M380.81,680c1.66.9,3.11,1.45,3.23,1.22s-1.12-1.15-2.78-2-1-.25-1.13,0S379.15,679.13,380.81,680Z" transform="translate(-31.44 -37.71)" fill="#ffd037"/>
  <path d="M384.74,703.71s11.48-.35,14.94-2.82,17.66-5.4,18.52-1.45,17.26,19.65,4.29,19.76-30.12-2-33.57-4.12S384.74,703.71,384.74,703.71Z" transform="translate(-31.44 -37.71)" fill="#a8a8a8"/>
  <path d="M422.72,717.82c-13,.11-30.12-2-33.57-4.12-2.63-1.6-3.68-7.35-4-10h-.38s.72,9.26,4.18,11.37,20.61,4.22,33.57,4.12c3.74,0,5-1.36,5-3.33C426.94,717.06,425.51,717.8,422.72,717.82Z" transform="translate(-31.44 -37.71)" opacity="0.2"/>
</svg>
