<svg id="Layer_1" data-name="Layer 1" xmlns="http://www.w3.org/2000/svg" xmlns:xlink="http://www.w3.org/1999/xlink" viewBox="0 0 1069.82 837.5"><defs><style>.cls-1,.cls-14,.cls-18{fill:#005ea6;}.cls-1,.cls-16,.cls-18,.cls-2,.cls-6{isolation:isolate;}.cls-1,.cls-12,.cls-16,.cls-2{opacity:0.1;}.cls-3{fill:url(#linear-gradient);}.cls-4{fill:#efb7b9;}.cls-5{fill:#e1e7ef;}.cls-6{opacity:0.05;}.cls-7{fill:#b07473;}.cls-8{fill:#444053;}.cls-9{fill:#67647e;}.cls-10{fill:url(#linear-gradient-2);}.cls-11{fill:#585268;}.cls-13{fill:#535461;}.cls-15{fill:#a8a8a8;}.cls-17{fill:#fff;}.cls-18{opacity:0.3;}</style><linearGradient id="linear-gradient" x1="1280.9" y1="7102.8" x2="1280.9" y2="7216.06" gradientTransform="matrix(1, -0.07, -0.07, -1, -198.75, 7651.65)" gradientUnits="userSpaceOnUse"><stop offset="0" stop-color="gray" stop-opacity="0.25"/><stop offset="0.54" stop-color="gray" stop-opacity="0.12"/><stop offset="1" stop-color="gray" stop-opacity="0.1"/></linearGradient><linearGradient id="linear-gradient-2" x1="1027.73" y1="7175.99" x2="1086.25" y2="7175.99" xlink:href="#linear-gradient"/></defs><path class="cls-1" d="M937.68,610.54a4.24,4.24,0,0,0,4.23,4h-5.8a4.23,4.23,0,0,0,0,8.46h8.45a4.23,4.23,0,1,0,0,8.46h19.5a419.41,419.41,0,0,1-40.76,52.38,437.52,437.52,0,0,1-31.51,31.2l-.3.27q-5.07,4.53-10.29,8.93l-.3.25c-.91.76-1.82,1.53-2.74,2.28q-9.36,7.74-19.2,15L857.35,743l-2,1.48q-8.37,6.09-17.06,11.8-3,2-6,3.92c-.91.59-1.83,1.17-2.75,1.75l-3.5,2.17-2.88,1.76q-7.14,4.32-14.47,8.42l-2.91,1.61-1.12.62-.23.12q-7.12,3.9-14.44,7.56l-.63.32q-4.76,2.37-9.56,4.65l-.12.05a1.23,1.23,0,0,1-.26.12l-.9.43-1,.46-1.21.57-1.15.52-.09,0c-1.82.84-3.65,1.66-5.49,2.48q-8.15,3.64-16.46,7l-4.31,1.7-1.35.52c-.61.24-1.22.48-1.84.7a.45.45,0,0,1-.18.07c-1.17.46-2.35.91-3.53,1.35q-5.14,1.93-10.34,3.76A515.19,515.19,0,0,1,561.44,837.5c-97.68,0-188.35-26.81-263.28-72.61h17.39a4.23,4.23,0,0,0,0-8.46h-8.46a4.23,4.23,0,1,0,0-8.46h6a4.23,4.23,0,0,0,0-8.46H264.16a4.2,4.2,0,0,0-2.37.74C194.91,690.18,144,623.74,116.91,547.74h39.71a4.23,4.23,0,0,0,0-8.46h-8.45a4.23,4.23,0,1,0,0-8.46h6a4.23,4.23,0,0,0,0-8.46H108.85A375.36,375.36,0,0,1,95,421.18C95,316.62,138.16,221.07,209.49,148H299a8.94,8.94,0,1,0-.6-17.87H280.51a8.93,8.93,0,0,0,0-17.86h12.73a8.94,8.94,0,0,0,0-17.87h-20.8c79.49-56,179.86-89.48,289-89.48,186.84,0,348,98,422.47,239.61H919a8.94,8.94,0,0,0,0,17.87H906.24a8.93,8.93,0,0,0,0,17.86H924.1a8.94,8.94,0,0,0,0,17.87h83a374.57,374.57,0,0,1,20.74,123.1c0,66.43-17.43,129.21-48.43,184.93H941.7A4.23,4.23,0,0,0,937.68,610.54Z"/><path class="cls-2" d="M777.25,386c-.87,1.75-6.13,4.19-14.22,7-2.67-5.58-4.14-15-4.64-18.72,1.52-.5,2.62-1.14,2.86-1.94C762.07,369.73,782.22,376,777.25,386Z"/><path class="cls-2" d="M795,402a15,15,0,0,0-4.53.23c-7.18,1.79-10.09-24.62-10.09-24.62s.21-1.25.65-3c5.93-.74,10.9-1.43,10.9-1.43C802.52,374.59,797.22,394.75,795,402Z"/><path class="cls-2" d="M489.34,468.57a75.43,75.43,0,0,0,11.43-4.33C506.88,461.27,489.34,468.57,489.34,468.57Z"/><path class="cls-3" d="M820.29,379.34c-4.12-.72-17.57-13.66-25.66-17.83-3.72-1.92-6.44,1.21-8.29,5.14-4.85-3.8-10.16-8-14.17-10.07a4.3,4.3,0,0,0-3.45-.38c-5.61,1.87-8,15.88-8,15.88l.11.91c-2.83,1.85-10.9,2.45-14.36,2.38-4.08-.1-9.49,0-11.47.8s-24.45,4.14-37.45,6.89-47.4,19.14-47.4,19.14l-31.61,4.26-4.28-1.22c-1-5.11-7.29-5.61-14.89-4.25-11.86-3.27-29.87-6.33-33.91-4.91,11.61-4.68,32.06-16.28,32.77-26.2,1-13.52-27.43,3.08-38.22,9.85l-.93.58-.15-.87s-7.64,2.23-23.34.47-23.24,9.13-24.72,9.74-16.3,4.2-17.44,4.29c-.88.06-25.92.14-38.56.16-17.2-3.09-42.49-2.55-44.09-.08-1.84,2.85-21.86,12.05-21.86,12.05l-6.68,1.14s-.95,1.92-2.08,4.4a18.09,18.09,0,0,1-1.34-3.22,53.71,53.71,0,0,1-1.6-8.33h0c0-.38-.1-.76-.16-1.13a1.35,1.35,0,0,0,0-.28l-.16-.95,0-.23a32.31,32.31,0,0,0-.87-3.62h0a18.76,18.76,0,0,0-1.4-3.45h0a11.76,11.76,0,0,0-3.44-4.07c-2.37-1.75-5.35-2.37-8.23-2.95a36.68,36.68,0,0,0-7.38-1c-2.14,0-4.27.41-6.4.35-3.44-.1-6.71-1.36-10.05-2.18s-7-1.13-10.08.51c-2.58,1.4-4.22,4-6,6.32a44,44,0,0,1-12.16,10.92c-3.18,1.9-6.76,3.69-8.15,7.08s-.18,6.9.18,10.39c.81,7.7-2.3,15.8-.27,23.07h0l.15.48c.12.39.24.8.4,1.18h0c.14.36.3.71.47,1.05a7.9,7.9,0,0,0,.58,1,5.31,5.31,0,0,0,.72.85,4.89,4.89,0,0,0,.87.69,6.83,6.83,0,0,0,3.84.78l.72,0,.67-.06a20.31,20.31,0,0,0,2.34-.35,9.25,9.25,0,0,0,2.22-.76,4.85,4.85,0,0,0,2.52-3.26,11.94,11.94,0,0,0,.3-1.87l0-.44.11.47h0a29.73,29.73,0,0,0,53.57,8.88l1.16-.28a69.57,69.57,0,0,1,11.3-1.6h0a23.2,23.2,0,0,0,1.17,2.53c10.58,20.19,48.85,24.21,48.85,24.21s42.49,2.08,45.84,1.51,13,1.78,15.58,4.65,14.92,5,19.55-1.38,9.15-4.71,9.15-4.71a20.51,20.51,0,0,0,2.45-3.45l2.69.37c7.08,1,18.46,2.75,20.84,4,3.52,1.78,19.19,3.05,28,.22s36.5-15.62,36.5-15.62S632,454.31,635,453.57s11.29-7.37,11.29-7.37l16.27-4.71S680,434,687.07,433.66s14-5.9,14-5.9l46.4-16.85a23.36,23.36,0,0,1,8.93,1.24c3.87,1.59,30.16.07,38.75-7.64,0,0,.39-1.06.93-2.8.36,0,.74,0,1.13,0,1.64.51,2.64.85,2.64.85a68.85,68.85,0,0,0,10,7.43c5.07,3,10.61,4.9,13,.72a8,8,0,0,0,.78-2.06c4.8,4.09,21,16.8,22.71,3.5C848.26,396.54,824.4,380.06,820.29,379.34Z"/><path class="cls-4" d="M395.49,445.42s-8-1.22-19.54,1.38a71.73,71.73,0,0,0-11.19,3.47c-17.23,6.86.4-36.77.4-36.77s4.59.41,10.15.42c6.65.05,14.65-.35,17.78-2.38C398.84,407.75,395.49,445.42,395.49,445.42Z"/><path class="cls-4" d="M597.81,367c-.22,12.58-22.9,22.9-33.65,27.09-3.34,1.3-5.55,2-5.55,2l-1.82-14.55s1.49-1.12,3.88-2.81C571,371.47,598,353.61,597.81,367Z"/><path class="cls-2" d="M564.16,394.08c-3.34,1.3-5.55,2-5.55,2l-1.82-14.55s1.49-1.12,3.88-2.81Z"/><path class="cls-5" d="M450.45,394.83s43.87-2.46,45-2.61,15.57-4.48,17-5.14,8.59-7.79,24.16-6.89,23-1.7,23-1.7l4.49,19.77-104.28,8.29Z"/><path class="cls-6" d="M450.45,394.83s43.87-2.46,45-2.61,15.57-4.48,17-5.14,8.59-7.79,24.16-6.89,23-1.7,23-1.7l4.49,19.77-104.28,8.29Z"/><path class="cls-7" d="M758.19,372.71s3.31-19.42,11.28-15.31,21.25,16.93,25.31,17.6,27.62,17,25.68,32.37-23.69-4.6-23.69-4.6-21.23-7.23-28.45-5.44S758.19,372.71,758.19,372.71Z"/><path class="cls-2" d="M820.46,407.4c-1.93,15.4-23.69-4.6-23.69-4.6s-21.22-7.23-28.45-5.44c-2.06.52-3.9-1.35-5.25-4.29-2.67-5.57-4.14-15-4.64-18.72-.14-1-.2-1.61-.2-1.61s3.31-19.42,11.28-15.29,21.24,16.87,25.3,17.59S822.37,392,820.46,407.4Z"/><path class="cls-8" d="M600.51,409.06l48.62-6.62s33.94-16.16,46.82-18.86,35-6,36.95-6.8,7.29-.9,11.3-.79,14.32-.76,15.14-3.42,21,3.57,16,13.62-153.8,42.58-153.8,42.58Z"/><path class="cls-2" d="M600.51,409.06l48.62-6.62s33.94-16.16,46.82-18.86,35-6,36.95-6.8,7.29-.9,11.3-.79,14.32-.76,15.14-3.42,21,3.57,16,13.62-153.8,42.58-153.8,42.58Z"/><path class="cls-7" d="M842.6,412.24c-1.92,15.41-23.69-4.6-23.69-4.6S804.07,402.58,795,402a15.29,15.29,0,0,0-4.53.23c-7.18,1.79-10.1-24.62-10.1-24.62s.21-1.24.66-3c1.32-5.31,4.67-15.34,10.63-12.27,8,4.12,21.24,16.92,25.3,17.59S844.51,396.86,842.6,412.24Z"/><path class="cls-8" d="M792.11,404.7c-8.49,7.62-34.44,9.12-38.24,7.56a22.78,22.78,0,0,0-8.78-1.23l-45.76,16.61s-6.81,5.49-13.81,5.82-24.17,7.71-24.17,7.71l-16.05,4.62s-8.22,6.63-11.18,7.38-19.59,4.21-19.59,4.21-27.34,12.66-36,15.42-24.1,1.53-27.58-.23c-2.34-1.21-13.57-2.91-20.55-3.9-3.31-.46-5.67-.76-5.67-.76L522,405.12s6.91-.91,15.66-2.18c12.69-1.84,29.26-4.46,33.94-6.18,7.91-2.91,47.5,11.2,54.92,12s46.38-8,46.38-8,49.7-22.56,59.29-21.73,22.39-2.25,30.21-2.64,27.52-3.11,27.52-3.11C802.87,375,792.11,404.7,792.11,404.7Z"/><path class="cls-2" d="M380.61,428.75A29.24,29.24,0,0,1,376,446.8a71.73,71.73,0,0,0-11.19,3.47c-17.23,6.86.4-36.77.4-36.77s4.59.41,10.15.42A29.2,29.2,0,0,1,380.61,428.75Z"/><path class="cls-4" d="M379.61,428.82a29.33,29.33,0,0,1-57.63,9.5h0c-.14-.51-.25-1-.37-1.55a28.48,28.48,0,0,1-.53-3.8,29.34,29.34,0,0,1,58.18-7A28.13,28.13,0,0,1,379.61,428.82Z"/><path class="cls-2" d="M531.93,442.13c5.14,12.64,1.2,22.07-1.53,26.5-3.32-.46-5.68-.76-5.68-.76L522,405.08s6.91-.91,15.66-2.18h.89S524.65,424.27,531.93,442.13Z"/><path class="cls-5" d="M528.94,442.34c7.27,17.87-3.58,29.33-3.58,29.33s-4.46-1.69-9,4.65-16.75,4.19-19.28,1.32-12.06-5.17-15.37-4.59-45.21-1.49-45.21-1.49-37.74-4-48.19-23.88a22.24,22.24,0,0,1-1.14-2.48s-8-18.71-7.94-22.73c0-1.56.87-4.2,1.91-6.85,1.63-4.13,3.74-8.27,3.74-8.27l6.59-1.13s19.75-9.08,21.55-11.88,34.2-3.08,50.24,1.63,46.94,7,46.94,7l25.41.09S521.71,424.48,528.94,442.34Z"/><path class="cls-2" d="M400.92,421s11.8,23.5,38.64,16.64,46.63-.68,46.63-.68,24.95-.72,29.59-2.5a188.51,188.51,0,0,1,21.24-6c4-.68,9.47-2.11,13.85-3.34s27.7-5.44,27.7-5.44-6.87-16.58-3.26-18.57c0,0-23,4-23.22,2.34s-25.83-3.4-28-1.79S499,404.29,497,405s-37.49,2.8-37.49,2.8S407.05,384.69,400.92,421Z"/><path class="cls-4" d="M569.51,402.66s42.38-23,43.45-7-39.84,20.66-39.84,20.66Z"/><path class="cls-2" d="M401.51,417.88s11.84,23.5,38.64,16.64,46.64-.68,46.64-.68,24.95-.72,29.58-2.5a184.56,184.56,0,0,1,21.25-6c3.94-.69,9.47-2.11,13.85-3.34s27.7-5.45,27.7-5.45S572.29,400,575.9,398c0,0-23,4-23.23,2.35s-25.82-3.41-28-1.8-25.08,2.61-27.1,3.3-37.46,2.79-37.46,2.79S407.65,381.58,401.51,417.88Z"/><path class="cls-5" d="M400.65,419s11.8,23.51,38.64,16.64,46.64-.67,46.64-.67,24.95-.73,29.58-2.51a188.13,188.13,0,0,1,21.25-6c3.94-.67,9.47-2.11,13.85-3.33s27.69-5.44,27.69-5.44-6.87-16.59-3.26-18.57c0,0-23,4-23.23,2.34s-25.82-3.4-28-1.79-25,2.61-27.1,3.31-37.49,2.77-37.49,2.77S406.79,382.7,400.65,419Z"/><path class="cls-2" d="M487.7,416.32c-.36-1.08,6.34-.38,19.67-2.56s35.81-7.67,35.81-7.67S490.45,424.48,487.7,416.32Z"/><path class="cls-2" d="M436.8,407.51s.57,1.82-6,5.53"/><path class="cls-2" d="M450.3,410.52a7.17,7.17,0,0,1-5,8.34"/><path class="cls-2" d="M389.14,446.65l4.72,5.23s5.25,3.47,5.7,5.12,11.68,2.34,11.68,2.34l12.23,9.3-4.82-8.15a15.1,15.1,0,0,0,12.93-1.59c6.72-4.15,20.3-15.28,20.3-15.28L476,428l1.37-11.3-17.52-4.43-45,38.27-9.49.5-9.86-2Z"/><path class="cls-9" d="M388.07,445.73l4.72,5.22s5.25,3.47,5.71,5.12,11.69,2.34,11.69,2.34l12.23,9.31-4.82-8.16A15,15,0,0,0,430.51,458c6.73-4.15,20.32-15.29,20.32-15.29L475,427.15l1.37-11.29-17.52-4.44-45.09,38.27-9.49.5-9.86-2Z"/><path class="cls-2" d="M402.1,444.45l-11.79,4.13a20.65,20.65,0,0,1-1.13-2.49s-8-18.7-7.95-22.73c0-1.56.87-4.2,1.92-6.85Z"/><path class="cls-5" d="M400,443.6l-11.78,4.12a23.33,23.33,0,0,1-1.15-2.49s-8-18.71-7.93-22.72c0-1.56.87-4.2,1.9-6.86Z"/><path class="cls-10" d="M379.26,425.92a5.26,5.26,0,0,1-1.88,1.32c-1.84.65-3.82-.33-5.76-.41s-4,.8-6,.79a15.47,15.47,0,0,1-4.14-.89c-2.59-.78-5.43-1.34-8-.36s-4.37,4.07-3.14,6.48c-1.75,2.06-4.85,2.51-7.5,1.9-6.2-1.44-11-7.3-17.75-3.67-2.94,1.6-3,4.46-3.19,7.22-.14-.51-.25-1-.37-1.54A28.94,28.94,0,0,1,321,433a29.34,29.34,0,0,1,58.18-7Z"/><path class="cls-11" d="M319,443.33a12.3,12.3,0,0,1-4.5,1.1,8.29,8.29,0,0,1-5.16-.69,6.88,6.88,0,0,1-2.59-3.46c-3.05-7.63.58-16.27-.28-24.45-.36-3.44-1.5-7.05-.18-10.25s4.94-5.1,8-7a43.89,43.89,0,0,0,12-10.77c1.75-2.29,3.37-4.85,5.9-6.23,3-1.62,6.62-1.3,9.92-.5s6.51,2,9.91,2.13c2.1.07,4.2-.32,6.31-.34a35.79,35.79,0,0,1,7.28,1c2.84.57,5.77,1.19,8.11,2.9,4.13,3,5.35,8.5,6.05,13.58s1.37,10.54,4.93,14.2a3.53,3.53,0,0,1,1.22,1.83,3,3,0,0,1-1.06,2.18l-5.08,5.64a6.76,6.76,0,0,1-2.55,2c-1.83.66-3.82-.33-5.76-.42s-4,.82-6,.79a14.64,14.64,0,0,1-4.14-.88c-2.59-.78-5.43-1.34-7.95-.36s-4.37,4.08-3.14,6.48c-1.76,2.07-4.87,2.52-7.5,1.9-6.21-1.42-11-7.29-17.75-3.67C319.57,433.07,324.23,440.65,319,443.33Z"/><g class="cls-12"><path d="M378.55,397.2c.54,3.87,1.06,8,2.88,11.36a51.36,51.36,0,0,1-1.58-8.16,28.73,28.73,0,0,0-2.65-9.58A38.51,38.51,0,0,1,378.55,397.2Z"/><path d="M384.78,414.55l-.29-.32a5.3,5.3,0,0,1-.85,1.18l-5.08,5.64A6.83,6.83,0,0,1,376,423.1c-1.82.66-3.81-.34-5.75-.43s-4,.83-6,.8a15,15,0,0,1-4.14-.89c-2.59-.77-5.44-1.34-8-.36s-4.37,4.08-3.14,6.48c-1.77,2.07-4.86,2.52-7.5,1.91-6.2-1.43-11-7.3-17.75-3.68-5.53,3-.87,10.57-6.07,13.25a12,12,0,0,1-4.49,1.09,8.25,8.25,0,0,1-5.16-.68,5.55,5.55,0,0,1-1.83-2,13.88,13.88,0,0,0,.55,1.65,6.93,6.93,0,0,0,2.59,3.46,8.36,8.36,0,0,0,5.16.68,12.49,12.49,0,0,0,4.5-1.09c5.19-2.69.53-10.27,6.07-13.25,6.71-3.63,11.5,2.24,17.75,3.67,2.63.62,5.73.17,7.5-1.9-1.23-2.4.61-5.5,3.14-6.48s5.36-.42,7.95.36a14.64,14.64,0,0,0,4.14.88c2,0,4-.88,6-.8s3.92,1.09,5.75.43a6.71,6.71,0,0,0,2.56-2l5.08-5.64a3,3,0,0,0,1.06-2.18A3.52,3.52,0,0,0,384.78,414.55Z"/></g><path class="cls-2" d="M618.71,421.8s6.55,14.63,4.7,16.79S618.71,421.8,618.71,421.8Z"/><path class="cls-2" d="M644.65,420s4.15,9,3,10.62"/><path class="cls-2" d="M675.76,402.7s5.31,4.49,3,6.89"/><path class="cls-2" d="M681.65,401s6.43,9.44,3.83,11.63"/><path class="cls-2" d="M782.81,385.58s-.2,14.83,4.25,13.95S782.81,385.58,782.81,385.58Z"/><path class="cls-13" d="M747.45,803.07c-.61.24-1.22.48-1.84.7a.45.45,0,0,1-.18.07c0-.18,0-.35,0-.53A39.42,39.42,0,0,0,742,787.62c-.27-.55-.52-1.11-.76-1.68a33.83,33.83,0,0,1-2-19.09c0-.1,0-.2,0-.3.23-1.14.5-2.27.8-3.39h0a56.6,56.6,0,0,1,2.15-6.36l.8.32.33.14.72.29a53.67,53.67,0,0,0-2.22,6.74h0c-.23.88-.44,1.77-.62,2.66a28.72,28.72,0,0,0-.52,4.24,31.47,31.47,0,0,0,3.08,15.56q.38.78.69,1.56c.16.38.3.76.44,1.14A44.05,44.05,0,0,1,747.45,803.07Z"/><path class="cls-14" d="M738.69,747.6c0,2.52,4.58,9.85,4.58,9.85s4.57-7.33,4.57-9.85a4.58,4.58,0,0,0-9.15,0Z"/><path class="cls-14" d="M731.13,761.59c1.38,2.12,9.2,5.78,9.2,5.78s-.15-8.63-1.52-10.75a4.58,4.58,0,0,0-7.68,5Z"/><path class="cls-14" d="M731.46,785.5c2.26,1.14,10.86.35,10.86.35s-4.48-7.38-6.74-8.52a4.58,4.58,0,0,0-4.12,8.17Z"/><path class="cls-14" d="M745.61,803.77a.45.45,0,0,1-.18.07c-1.17.46-2.35.91-3.53,1.35-2.42-.36-5.1-.91-6.11-1.66a4.57,4.57,0,0,1,5.44-7.35c1.31,1,3.08,4.65,4.18,7.13C745.49,803.47,745.55,803.62,745.61,803.77Z"/><path class="cls-14" d="M749.91,767.86c-1.81,1.76-10.25,3.58-10.25,3.58s2.06-8.38,3.88-10.14a4.57,4.57,0,0,1,6.37,6.56Z"/><path class="cls-14" d="M754.72,789c-2.26,1.13-10.86.35-10.86.35s4.48-7.38,6.74-8.52a4.58,4.58,0,0,1,4.12,8.17Z"/><path class="cls-13" d="M778.81,786.06c0,.55-.08,1.09-.12,1.61,0,.18,0,.35,0,.52q-.06.57-.12,1.11c0,.16,0,.32,0,.47l-1,.46-1.21.57c.13-1,.25-2.07.35-3.19.06-.72.11-1.47.15-2.23,0-.13,0-.25,0-.38q.06-1.17.06-2.37c0-.76,0-1.53,0-2.31h0v-.07a39.38,39.38,0,0,0-3.39-15.61q-.4-.82-.75-1.68a35.09,35.09,0,0,1-1.27-3.61v0a34,34,0,0,1-.75-15.47l.06-.3c.23-1.14.5-2.28.81-3.41a54.45,54.45,0,0,1,2.14-6.35l.79.32.35.14.71.29a53.4,53.4,0,0,0-2.28,7s0,0,0,0c-.2.8-.38,1.6-.55,2.4a29.15,29.15,0,0,0-.52,4.26,31.65,31.65,0,0,0,3.07,15.55c.25.52.48,1,.69,1.58.16.37.3.74.44,1.12a40.63,40.63,0,0,1,2.22,9.8A59,59,0,0,1,778.81,786.06Z"/><path class="cls-14" d="M770.14,724.61c0,2.52,4.58,9.85,4.58,9.85s4.57-7.33,4.57-9.85a4.58,4.58,0,0,0-9.15,0Z"/><path class="cls-14" d="M762.58,738.6c1.38,2.12,9.2,5.78,9.2,5.78s-.14-8.63-1.52-10.75a4.58,4.58,0,0,0-7.68,5Z"/><path class="cls-14" d="M762.91,762.51c2.25,1.14,10.85.35,10.85.35s-4.48-7.38-6.74-8.52a4.57,4.57,0,1,0-4.11,8.17Z"/><path class="cls-14" d="M767.24,780.54c2,1.5,10.64,2.18,10.64,2.18s-3.17-8-5.2-9.53a4.57,4.57,0,0,0-5.44,7.35Z"/><path class="cls-14" d="M781.38,744.87c-1.81,1.76-10.25,3.58-10.25,3.58s2.07-8.38,3.88-10.14a4.57,4.57,0,0,1,6.37,6.56Z"/><path class="cls-14" d="M786.17,766c-2.26,1.13-10.86.35-10.86.35s4.49-7.38,6.74-8.52a4.58,4.58,0,0,1,4.12,8.17Z"/><path class="cls-14" d="M790,784.2l-.63.32q-4.76,2.37-9.56,4.65h-.15l-.3,0-.78.08-1.17.11s.32-.8.82-1.95c.05-.11.09-.22.15-.34.14-.33.3-.69.48-1.06,1.09-2.39,2.6-5.32,3.75-6.19A4.58,4.58,0,0,1,790,784.2Z"/><path class="cls-15" d="M878.16,726.79q-9.36,7.74-19.2,15L857.35,743l-2,1.48q-8.37,6.09-17.06,11.8-3,2-6,3.92c-.91.59-1.83,1.17-2.75,1.75l-3.5,2.17-2.88,1.76q-7.14,4.32-14.47,8.42l-2.91,1.61-1.12.62-.23.12q-7.12,3.9-14.44,7.56l-.63.32q-4.76,2.37-9.56,4.65l-.12.05a1.23,1.23,0,0,1-.26.12l-.9.43-1,.46-1.21.57-1.15.52-.76-5,.84-2.38.11-.25,0-.06,0-.11,0,0,0-.08.37-.84,1-2.25,0,0,1.76-4,4.29-9.67,3.67-8.27h0l3.84-8.64a148.35,148.35,0,0,1,28-42.24c8.15-8.58,18-16.84,28.37-21a39.46,39.46,0,0,1,4.33-1.48,10.36,10.36,0,0,1,2.58-.46l.75,0a8.83,8.83,0,0,1,.89,0,11.15,11.15,0,0,1,5.78,2.22l.09.07C869.52,692.76,874.81,709.49,878.16,726.79Z"/><g class="cls-16"><path class="cls-17" d="M861.25,686.72a.25.25,0,0,1,0,.07c-6.31,12.72-22,44.23-26.81,53.61-2.33,4.55-2.64,12.16-2.15,19.79-.91.59-1.83,1.17-2.75,1.75l-3.5,2.17-2.88,1.76a195.49,195.49,0,0,1-.1-25.73c1.1-15.71,15.9-41,23.9-53.71a39.46,39.46,0,0,1,4.33-1.48,10.91,10.91,0,0,1,2.45-.46l.75,0A11.16,11.16,0,0,1,861.25,686.72Z"/></g><path class="cls-15" d="M779.64,789.22a1.23,1.23,0,0,1-.26.12l-.9.43-1,.46-1.21.57-1.15.52-.09,0c-1.82.84-3.65,1.66-5.49,2.48q-8.15,3.64-16.46,7l-4.31,1.7c3.52-8.75,7.24-14,10.74-17.16l0,0a14.83,14.83,0,0,1,8.58-4h0c.26,0,.53,0,.79,0h.19a11.11,11.11,0,0,1,4.48.94,9.77,9.77,0,0,1,1.5.79h0a3.11,3.11,0,0,1,.32.31l.15.15c.41.49.81,1,1.2,1.49.53.69,1,1.4,1.51,2.12a6.49,6.49,0,0,1,.36.55c.32.49.63,1,.92,1.51Z"/><g class="cls-16"><path class="cls-17" d="M775.06,791.37c-1.82.84-3.65,1.66-5.49,2.48a13.93,13.93,0,0,0-10-8.49h-.05a14.74,14.74,0,0,1,8.61-4.05l0,0A22.74,22.74,0,0,1,775.06,791.37Z"/></g><g class="cls-16"><path d="M775.13,783v0h0Z"/><path d="M779.38,789.34l-.9.43-1,.46-.86-2.62-1.22-3.69-.09-.27-.19-.6.29.39.11.17c.29.4.71,1,1.25,1.77.4.58.86,1.28,1.38,2.08l.47.73.66,1A.75.75,0,0,0,779.38,789.34Z"/></g><path class="cls-1" d="M515.33,54.75h12.76a8.94,8.94,0,0,1,0-17.87H631.45a8.94,8.94,0,0,1,0,17.87H618.69a8.93,8.93,0,0,1,0,17.86h17.86a8.94,8.94,0,0,1,0,17.87H533.19a8.94,8.94,0,0,1,0-17.87H515.33a8.93,8.93,0,0,1,0-17.86Z"/><path class="cls-1" d="M662.66,191.62h12.76a8.93,8.93,0,1,1,0-17.86H778.78a8.93,8.93,0,1,1,0,17.86H766a8.93,8.93,0,0,1,0,17.86h17.89a8.94,8.94,0,0,1,0,17.87H680.52a8.94,8.94,0,0,1,0-17.87H662.66a8.93,8.93,0,1,1,0-17.86Z"/><path class="cls-1" d="M512.91,619h6a4.23,4.23,0,1,1,0-8.46h49a4.23,4.23,0,1,1,0,8.46h-6a4.23,4.23,0,1,1,0,8.46h8.45a4.23,4.23,0,0,1,0,8.46h-49a4.23,4.23,0,0,1,0-8.46h-8.46a4.23,4.23,0,1,1,0-8.46Z"/><path class="cls-1" d="M378.2,690.92H383a3.38,3.38,0,0,1,0-6.75h39.06a3.38,3.38,0,0,1,0,6.75h-4.82a3.38,3.38,0,0,1,0,6.75H424a3.38,3.38,0,0,1,0,6.75h-39.1a3.38,3.38,0,1,1-.37-6.75h-6.38a3.38,3.38,0,1,1-.37-6.75h.41Z"/><path class="cls-1" d="M213.09,565.12h6a4.23,4.23,0,1,1,0-8.46h48.93a4.23,4.23,0,1,1,0,8.46h-6a4.23,4.23,0,1,1,0,8.46h8.46a4.23,4.23,0,1,1,0,8.46h-49a4.23,4.23,0,0,1,0-8.46h-8.46a4.23,4.23,0,1,1,0-8.46Z"/><path class="cls-1" d="M639.91,697.35h6a4.23,4.23,0,0,1,0-8.46h49a4.23,4.23,0,0,1,0,8.46h-6a4.23,4.23,0,1,1,0,8.46h8.46a4.23,4.23,0,0,1,0,8.45h-49a4.23,4.23,0,1,1-.41-8.45h-8a4.23,4.23,0,0,1,0-8.46Z"/><path class="cls-18" d="M707.91,307.75a2.84,2.84,0,0,0-.92-3.67,1.21,1.21,0,0,1-.24-.21h0a1.43,1.43,0,0,1,1.4-2.35h0a1.57,1.57,0,0,1,.3.12,2.86,2.86,0,0,0,3.68-.91,1.27,1.27,0,0,1,.21-.25h0a1.43,1.43,0,0,1,2.34,1.41h0a1.88,1.88,0,0,1-.12.3,2.84,2.84,0,0,0,.92,3.67,1.64,1.64,0,0,1,.25.21h0a1.43,1.43,0,0,1-1.41,2.34h0a.79.79,0,0,1-.3-.12,2.86,2.86,0,0,0-3.68.92,1.22,1.22,0,0,1-.2.25h0a1.43,1.43,0,0,1-2-.09,1.42,1.42,0,0,1-.33-1.32h0A1.88,1.88,0,0,1,707.91,307.75Z"/><path class="cls-18" d="M1024.59,139.07a2.83,2.83,0,0,0-.92-3.67,1.21,1.21,0,0,1-.24-.21h0a1.43,1.43,0,0,1,.09-2,1.42,1.42,0,0,1,1.32-.33h0a1.48,1.48,0,0,1,.29.12,2.84,2.84,0,0,0,3.68-.92,1.21,1.21,0,0,1,.21-.24h0a1.43,1.43,0,0,1,2.34,1.41h0a.81.81,0,0,1-.12.29,2.86,2.86,0,0,0,.92,3.68,1.64,1.64,0,0,1,.25.21h0a1.43,1.43,0,0,1-1.41,2.34h0a1.57,1.57,0,0,1-.3-.12,2.85,2.85,0,0,0-3.67.92,1.64,1.64,0,0,1-.21.25h0a1.43,1.43,0,0,1-2-.09,1.42,1.42,0,0,1-.33-1.32h0A1.88,1.88,0,0,1,1024.59,139.07Z"/><path class="cls-18" d="M1029.46,592.13a2.84,2.84,0,0,0-.92-3.67,1.21,1.21,0,0,1-.24-.21h0a1.42,1.42,0,0,1,1.4-2.34h0a.79.79,0,0,1,.3.12,2.86,2.86,0,0,0,3.68-.92,1.22,1.22,0,0,1,.2-.25h0a1.43,1.43,0,0,1,2,.09,1.42,1.42,0,0,1,.33,1.32h0a1.88,1.88,0,0,1-.12.3,2.84,2.84,0,0,0,.92,3.67,1.21,1.21,0,0,1,.24.21h0a1.42,1.42,0,0,1-1.36,2.3h0a1,1,0,0,1-.3-.11,2.86,2.86,0,0,0-3.68.91,1.27,1.27,0,0,1-.21.25h0a1.43,1.43,0,0,1-2.34-1.41h0A2,2,0,0,1,1029.46,592.13Z"/><path class="cls-18" d="M49.29,38a2.85,2.85,0,0,0-.92-3.68,1.21,1.21,0,0,1-.24-.21h0a1.42,1.42,0,0,1,1.4-2.34h0a1.57,1.57,0,0,1,.3.12A2.85,2.85,0,0,0,53.51,31a1.64,1.64,0,0,1,.21-.25h0a1.43,1.43,0,0,1,2.34,1.41h0a1.57,1.57,0,0,1-.12.3,2.85,2.85,0,0,0,.92,3.68,1.57,1.57,0,0,1,.25.2h0a1.43,1.43,0,0,1-.09,2,1.42,1.42,0,0,1-1.32.33h0a1.57,1.57,0,0,1-.3-.12,2.85,2.85,0,0,0-3.68.92,1.16,1.16,0,0,1-.2.24h0a1.43,1.43,0,0,1-2.35-1.4h0A1.57,1.57,0,0,1,49.29,38Z"/><path class="cls-18" d="M1.54,7.65A2.84,2.84,0,0,0,.62,4a1.21,1.21,0,0,1-.24-.21h0a1.43,1.43,0,0,1,1.4-2.35h0a1.57,1.57,0,0,1,.3.12A2.86,2.86,0,0,0,5.76.63,2.43,2.43,0,0,1,6,.38H6A1.43,1.43,0,0,1,8,.49a1.45,1.45,0,0,1,.33,1.26h0A1.48,1.48,0,0,1,8.19,2a2.86,2.86,0,0,0,.92,3.71A1.21,1.21,0,0,1,9.35,6h0a1.42,1.42,0,0,1,0,2,1.4,1.4,0,0,1-1.42.34h0a.79.79,0,0,1-.3-.12,2.86,2.86,0,0,0-3.68.92,1.27,1.27,0,0,1-.21.25h0A1.43,1.43,0,0,1,1.38,8h0A1.73,1.73,0,0,1,1.54,7.65Z"/><path class="cls-18" d="M381.91,228.2a2.84,2.84,0,0,0-.92-3.67,1.21,1.21,0,0,1-.24-.21h0a1.43,1.43,0,0,1,1.4-2.35h0a1.57,1.57,0,0,1,.3.12,2.86,2.86,0,0,0,3.68-.91,1.22,1.22,0,0,1,.2-.25h0a1.43,1.43,0,0,1,2,.09,1.42,1.42,0,0,1,.33,1.32h0a1.48,1.48,0,0,1-.12.29,2.85,2.85,0,0,0,.92,3.68,1.21,1.21,0,0,1,.24.21h0a1.42,1.42,0,0,1-1.4,2.34h0a.79.79,0,0,1-.3-.12,2.86,2.86,0,0,0-3.68.92,1.27,1.27,0,0,1-.21.25h0a1.43,1.43,0,0,1-2.34-1.41h0A1.88,1.88,0,0,1,381.91,228.2Z"/><path class="cls-18" d="M205.54,345.69a2.84,2.84,0,0,0-.92-3.67,1.21,1.21,0,0,1-.24-.21h0a1.42,1.42,0,0,1,1.4-2.34h0a.79.79,0,0,1,.3.12,2.86,2.86,0,0,0,3.68-.92,2.43,2.43,0,0,1,.2-.25h0a1.43,1.43,0,0,1,2,.09,1.42,1.42,0,0,1,.33,1.32h0a1.88,1.88,0,0,1-.12.3,2.84,2.84,0,0,0,.92,3.67,1.21,1.21,0,0,1,.24.21h0a1.42,1.42,0,0,1-1.4,2.34h0a.79.79,0,0,1-.3-.12,2.86,2.86,0,0,0-3.68.92,2.43,2.43,0,0,1-.2.25h0a1.43,1.43,0,0,1-2-.09,1.42,1.42,0,0,1-.33-1.32h0A1.88,1.88,0,0,1,205.54,345.69Z"/><path class="cls-18" d="M481.54,192a2.84,2.84,0,0,0-1.34-3.54,1.27,1.27,0,0,1-.27-.18h0a1.42,1.42,0,0,1,1.12-2.49h0a1.09,1.09,0,0,1,.31.08,2.86,2.86,0,0,0,3.55-1.34,1.27,1.27,0,0,1,.18-.27h0a1.44,1.44,0,0,1,2-.13,1.46,1.46,0,0,1,.47,1.26h0a1.58,1.58,0,0,1-.09.31,2.86,2.86,0,0,0,1.35,3.54,1.51,1.51,0,0,1,.26.18h0A1.43,1.43,0,0,1,488,192h0a1.57,1.57,0,0,1-.31-.08,2.84,2.84,0,0,0-3.54,1.34,2.11,2.11,0,0,1-.18.27h0a1.44,1.44,0,0,1-2,.13,1.46,1.46,0,0,1-.47-1.26h0A1.09,1.09,0,0,1,481.54,192Z"/><path class="cls-18" d="M931.44,501a3.94,3.94,0,0,0,2.2-4.77,2.14,2.14,0,0,1-.08-.44h0a2,2,0,0,1,3.55-1.31h0a1.87,1.87,0,0,1,.22.39,3.94,3.94,0,0,0,4.77,2.2,1.64,1.64,0,0,1,.44-.09h0a2,2,0,0,1,1.31,3.56h0a1.87,1.87,0,0,1-.39.22,4,4,0,0,0-2.2,4.77,1.64,1.64,0,0,1,.09.44h0a2,2,0,0,1-3.56,1.31h0a1.47,1.47,0,0,1-.21-.39,3.94,3.94,0,0,0-4.77-2.2,3.12,3.12,0,0,1-.44.09h0a2,2,0,0,1-1.31-3.56h0A2.08,2.08,0,0,1,931.44,501Z"/><path class="cls-18" d="M322.5,538.86a4,4,0,0,0,2.2-4.77,1.57,1.57,0,0,1-.09-.43h0a2,2,0,0,1,3.56-1.32h0a1.87,1.87,0,0,1,.22.39,3.93,3.93,0,0,0,4.77,2.2,1.56,1.56,0,0,1,.43-.08h0a2,2,0,0,1,1.31,3.55h0a1.79,1.79,0,0,1-.38.22,3.94,3.94,0,0,0-2.2,4.77,2.14,2.14,0,0,1,.08.44h0a2,2,0,0,1-3.55,1.31h0a1.87,1.87,0,0,1-.22-.39,4,4,0,0,0-4.77-2.2,1.64,1.64,0,0,1-.44.09h0a2,2,0,0,1-1.31-3.56h0A1.87,1.87,0,0,1,322.5,538.86Z"/><path class="cls-18" d="M512.84,548.57a3.94,3.94,0,0,0,2.2-4.77,3.12,3.12,0,0,1-.09-.44h0a2,2,0,0,1,3.56-1.31h0a1.87,1.87,0,0,1,.22.39,3.93,3.93,0,0,0,4.77,2.19,2.14,2.14,0,0,1,.44-.08h0a2,2,0,0,1,1.31,3.55h0a1.87,1.87,0,0,1-.39.22,3.94,3.94,0,0,0-2.2,4.77,3.12,3.12,0,0,1,.09.44h0a2,2,0,0,1-3.56,1.31h0a1.87,1.87,0,0,1-.22-.39,4,4,0,0,0-4.77-2.2,1.64,1.64,0,0,1-.44.09h0a2,2,0,0,1-1.31-3.55h0A1.87,1.87,0,0,1,512.84,548.57Z"/><circle class="cls-1" cx="121.87" cy="103.29" r="16.5"/><circle class="cls-1" cx="944.65" cy="119.79" r="16.5"/><circle class="cls-1" cx="199.87" cy="21.37" r="9"/><circle class="cls-1" cx="1060.82" cy="283.28" r="9"/><circle class="cls-1" cx="138.37" cy="743.99" r="9"/><circle class="cls-1" cx="172.87" cy="784.52" r="9"/><circle class="cls-1" cx="105.37" cy="808.95" r="9"/></svg>