<svg id="Layer_1" data-name="Layer 1" xmlns="http://www.w3.org/2000/svg" xmlns:xlink="http://www.w3.org/1999/xlink"  transform="scale(-1, 1) translate(0, -100)" viewBox="0 0 1069.82 837.5">
  <defs>
    <style>
.cls-1,.cls-15,.cls-2{fill:#005ea6;}.cls-1,.cls-17,.cls-2,.cls-3,.cls-7{isolation:isolate;}.cls-1,.cls-13,.cls-17,.cls-3{opacity:0.1;}.cls-2{opacity:0.3;}.cls-4{fill:url(#linear-gradient);}.cls-5{fill:#efb7b9;}.cls-6{fill:#e1e7ef;}.cls-7{opacity:0.05;}.cls-8{fill:#b07473;}.cls-9{fill:#444053;}.cls-10{fill:#67647e;}.cls-11{fill:url(#linear-gradient-2);}.cls-12{fill:#585268;}.cls-14{fill:#535461;}.cls-16{fill:#a8a8a8;}.cls-18{fill:#fff;}
</style>
    <linearGradient id="linear-gradient" x1="996.67" y1="2865.7" x2="996.67" y2="3004.58" gradientTransform="matrix(0.96, -0.28, -0.28, -0.96, 443.7, 3579.27)" gradientUnits="userSpaceOnUse">
      <stop offset="0" stop-color="gray" stop-opacity="0.25"/>
      <stop offset="0.54" stop-color="gray" stop-opacity="0.12"/>
      <stop offset="1" stop-color="gray" stop-opacity="0.1"/>
    </linearGradient>
    <linearGradient id="linear-gradient-2" x1="743.16" y1="2938.9" x2="801.68" y2="2938.9" xlink:href="#linear-gradient"/>
  </defs>
  <path class="cls-1" d="M512.91,569h6a4.23,4.23,0,1,1,0-8.46h49a4.23,4.23,0,1,1,0,8.46h-6a4.23,4.23,0,1,1,0,8.46h8.45a4.23,4.23,0,0,1,0,8.46h-49a4.23,4.23,0,0,1,0-8.46h-8.46a4.23,4.23,0,1,1,0-8.46Z"/>
  <path class="cls-2" d="M512.84,548.57a3.94,3.94,0,0,0,2.2-4.77,3.12,3.12,0,0,1-.09-.44h0a2,2,0,0,1,3.56-1.31h0a1.87,1.87,0,0,1,.22.39,3.93,3.93,0,0,0,4.77,2.19,2.14,2.14,0,0,1,.44-.08h0a2,2,0,0,1,1.31,3.55h0a1.87,1.87,0,0,1-.39.22,3.94,3.94,0,0,0-2.2,4.77,3.12,3.12,0,0,1,.09.44h0a2,2,0,0,1-3.56,1.31h0a1.87,1.87,0,0,1-.22-.39,4,4,0,0,0-4.77-2.2,1.64,1.64,0,0,1-.44.09h0a2,2,0,0,1-1.31-3.55h0A1.87,1.87,0,0,1,512.84,548.57Z"/>
  <path class="cls-3" d="M753.61,388.24c.56,1.87-1.61,7.25-5.57,14.85-5.76-2.24-13.25-8.09-16.19-10.49.77-1.4,1.14-2.62.76-3.37C731.38,386.72,750.36,377.51,753.61,388.24Z"/>
  <path class="cls-3" d="M777.46,387.8a15,15,0,0,0-3.15,3.26c-4,6.22-24.2-11.06-24.2-11.06s-.7-1.05-1.6-2.66c3.82-4.59,7-8.49,7-8.49C764.21,362.6,774.13,380.94,777.46,387.8Z"/>
  <path class="cls-3" d="M505.07,560.43a75.79,75.79,0,0,0,10.24-6.66C520.65,549.57,505.07,560.43,505.07,560.43Z"/>
  <path class="cls-4" d="M780.43,353.91c-3.5,2.3-22.16,2.06-30.92,4.54-4,1.15-3.87,5.29-2.53,9.42-6.14.54-12.89,1.1-17.23,2.34A4.3,4.3,0,0,0,727,372.3c-2.82,5.2,5,17.06,5,17.06l.7.58c-.8,3.29-6.27,9.25-8.85,11.56-3,2.72-14.91,9.61-16.68,10.79s-4.77,14.78-16.89,20.24a41.94,41.94,0,0,0-17.95,15.93l-54.26,23.76-4.44-.28c-2-4.78-8.31-3.93-15.45-1-12.28-.66-24.47-.85-28.12,1.4,10.34-7.05,22.8-17.72,21.38-27.56-1.94-13.43-26.15,8.84-35.25,17.76l-.78.77-.34-.83s-7,3.81-22.7,5.43-21.76,9.89-23.07,10.81-15,7.57-16.13,7.91c-.84.24-25.3,5.65-37.64,8.37-17.47.65-42.06,6.55-43.1,9.31-1.18,3.17-18.79,16.43-18.79,16.43l-6.28,2.54s-.52,2.08-1.09,4.74a18.13,18.13,0,0,1-2-2.86,53.06,53.06,0,0,1-3.34-7.8h0c-.12-.36-.26-.72-.4-1.07a1.39,1.39,0,0,0-.1-.26l-.36-.89-.08-.22a34.6,34.6,0,0,0-1.62-3.36h0a18.91,18.91,0,0,0-2.11-3.06h0a11.58,11.58,0,0,0-4.22-3.25c-2.69-1.2-5.74-1.18-8.68-1.13a37.58,37.58,0,0,0-7.41.62c-2.09.47-4.09,1.31-6.18,1.71-3.38.63-6.84.1-10.28,0s-7.11.4-9.75,2.65c-2.21,1.92-3.26,4.8-4.51,7.45a44.13,44.13,0,0,1-9.55,13.26c-2.7,2.53-5.82,5-6.46,8.65s1.29,6.78,2.39,10.12c2.44,7.35,1.12,15.92,4.66,22.59h0c.08.15.15.29.24.44.2.36.41.73.64,1.07h0a8.83,8.83,0,0,0,.69.92,6.62,6.62,0,0,0,.77.82,5.24,5.24,0,0,0,.88.67,4.64,4.64,0,0,0,1,.49,6.76,6.76,0,0,0,3.91-.05l.71-.19.64-.2a21.82,21.82,0,0,0,2.21-.84,8.67,8.67,0,0,0,2-1.21,4.8,4.8,0,0,0,1.77-3.73,10.89,10.89,0,0,0-.1-1.89l-.05-.43.2.43h0A29.72,29.72,0,0,0,386,564.76l1.08-.52a70.11,70.11,0,0,1,10.7-4h0a22.72,22.72,0,0,0,1.67,2.23c14.65,17.47,52.89,13.25,52.89,13.25s42-7,45.11-8.3,13.08-1,16.22,1.23,15.65,1.75,18.8-5.51,7.94-6.55,7.94-6.55a21.17,21.17,0,0,0,1.66-3.89l2.7-.22c7.14-.53,18.62-1.25,21.21-.57,3.82,1,19.4-1.11,27.37-5.74s32.34-23.05,32.34-23.05,15.71-7,18.49-8.41,9.46-9.59,9.46-9.59l14.9-8.08S684,486,690.83,484.2s12.41-8.74,12.41-8.74l45.64-48.7a23.26,23.26,0,0,1,7.36-5.21c3.92-1.48,22-20.57,23-32.08,0,0-.44-1-1.23-2.67.28-.23.53-.51.83-.76,1.55-.75,2.51-1.18,2.51-1.18a70.37,70.37,0,0,0,12.36-1.4c5.75-1.27,11.09-3.69,10-8.36a8,8,0,0,0-.83-2c6.29-.3,26.85-2.13,19-13C812.6,347.33,783.92,351.63,780.43,353.91Z"/>
  <path class="cls-5" d="M408.44,557.8s-8.08.52-18.79,5.52a71.1,71.1,0,0,0-10.2,5.77c-15.37,10.37-7.44-36-7.44-36s4.58-.58,10-1.75c6.5-1.36,14.24-3.46,16.86-6.12C403.7,520.29,408.44,557.8,408.44,557.8Z"/>
  <path class="cls-5" d="M591.24,445.51c1.79,12.45-19,26.26-28.88,32.12-3.1,1.82-5.16,2.87-5.16,2.87l-4.13-14.07s1.29-1.35,3.39-3.4C565.48,454.22,589.32,432.26,591.24,445.51Z"/>
  <path class="cls-3" d="M562.36,477.63c-3.1,1.82-5.16,2.87-5.16,2.87l-4.13-14.07s1.29-1.35,3.39-3.4Z"/>
  <path class="cls-6" d="M450.23,496.57s42.91-9.45,44-9.78,14.65-6.91,15.95-7.8,7.24-9.06,22.75-10.66,22.4-5.35,22.4-5.35l7.6,18.79L461.35,506.64Z"/>
  <path class="cls-7" d="M450.23,496.57s42.91-9.45,44-9.78,14.65-6.91,15.95-7.8,7.24-9.06,22.75-10.66,22.4-5.35,22.4-5.35l7.6,18.79L461.35,506.64Z"/>
  <path class="cls-8" d="M730.58,391.54s-10.86-16.43-2.23-18.88,27.07-2.18,30.5-4.47,31.76-6.5,40.87,6.06-20.43,12.84-20.43,12.84-20.43,9.24-24.48,15.49S730.58,391.54,730.58,391.54Z"/>
  <path class="cls-3" d="M799.74,374.27c9.13,12.56-20.43,12.85-20.43,12.85s-20.43,9.23-24.48,15.48c-1.14,1.79-3.77,1.68-6.76.46-5.76-2.24-13.25-8.08-16.19-10.48-.8-.65-1.25-1-1.25-1s-10.86-16.43-2.22-18.87,27-2.22,30.48-4.47S790.6,361.73,799.74,374.27Z"/>
  <path class="cls-9" d="M601,478.61l70.37-29.7a39.49,39.49,0,0,1,17.46-15.54c12-5.38,18.79-17.41,20.54-18.57s7.49-4,11.72-9.82c2.37-3.24,11.45-11.82,10.22-14.33s17.75-11.73,21-1c1,3.35-5.11,22.75-22.06,36.82-37.29,31-104.49,66.92-104.49,66.92Z"/>
  <path class="cls-3" d="M601,478.61l70.37-29.7a39.49,39.49,0,0,1,17.46-15.54c12-5.38,22.38-17.15,24.13-18.31s4.19-9.32,8.13-10.08,11.45-11.82,10.22-14.33,17.75-11.73,21-1c1,3.41-4.41,24.14-21.88,38.58-37.37,30.91-104.67,65.16-104.67,65.16Z"/>
  <path class="cls-8" d="M819.2,362.66c9.14,12.56-20.43,12.84-20.43,12.84s-14.29,6.46-21.33,12.23a15,15,0,0,0-3.15,3.26c-4,6.21-24.2-11.06-24.2-11.06s-.7-1.05-1.6-2.66c-2.66-4.78-7.08-14.39-.63-16.23,8.64-2.44,27.06-2.17,30.49-4.46S810.08,350.14,819.2,362.66Z"/>
  <path class="cls-9" d="M779.06,391c-1,11.36-20.75,30.88-24.58,32.35a22.75,22.75,0,0,0-7.25,5.1l-45.71,47.25s-5.48,6.81-12.25,8.62-22,12.69-22,12.69L652.6,505s-6.62,8.23-9.35,9.59S625,522.83,625,522.83,601,541,593.11,545.57s-23.23,6.63-27,5.65c-2.55-.68-13.88,0-20.91.56-3.33.26-5.7.47-5.7.47l-16.08-60.76s6.56-2.36,14.84-5.47c12-4.5,27.64-10.59,31.84-13.26,7.12-4.53,48.8.82,56.22,0s43.62-17.67,43.62-17.67,38.38-27.21,44.76-34.41c6.63-7.5,16-23.67,21.46-29.31S745.32,381,745.32,381C756,373.35,779.06,391,779.06,391Z"/>
  <path class="cls-3" d="M390.35,544.69a29.21,29.21,0,0,1-.7,18.63,71.1,71.1,0,0,0-10.2,5.77c-15.37,10.37-7.44-36-7.44-36s4.58-.58,10-1.75A29.2,29.2,0,0,1,390.35,544.69Z"/>
  <path class="cls-5" d="M389.39,545a29.33,29.33,0,0,1-54.28,21.55h0c-.25-.47-.47-.95-.69-1.43a28.76,28.76,0,0,1-1.33-3.6,29.34,29.34,0,0,1,55.34-19.27A25.52,25.52,0,0,1,389.39,545Z"/>
  <path class="cls-3" d="M541.05,525.53c7.72,11.25,5.88,21.3,4.15,26.21-3.34.26-5.71.47-5.71.47l-16.07-60.76s6.56-2.36,14.83-5.47l.88-.18S530.13,509.62,541.05,525.53Z"/>
  <path class="cls-6" d="M538.17,526.37c10.92,15.91,2.76,29.42,2.76,29.42s-4.72-.7-7.83,6.46-15.47,7.67-18.55,5.4-12.89-2.48-16-1.21-44.49,8.17-44.49,8.17-37.71,4.18-52.17-13.06a23.52,23.52,0,0,1-1.65-2.18s-11.78-16.58-12.59-20.51c-.33-1.53,0-4.29.4-7.11.72-4.38,1.89-8.87,1.89-8.87l6.21-2.51s17.36-13.08,18.52-16.2,32.76-10.3,49.43-9.11,47.36-3.16,47.36-3.16l24.84-5.32S527.31,510.46,538.17,526.37Z"/>
  <path class="cls-3" d="M412.2,538.7s21.79,14.73,41.85-4.38,40.35-23.38,40.35-23.38,21.41-12.83,24.59-16.65a185.2,185.2,0,0,1,15.62-15.58c3.11-2.53,7.23-6.47,10.45-9.68s21.49-18.29,21.49-18.29-14.09-11.11-11.91-14.61c0,0-18.12,14.75-19.12,13.4s-24.19,9.65-25.27,12.1-20.61,14.54-22,16.13-31.34,20.77-31.34,20.77S399.81,504,412.2,538.7Z"/>
  <path class="cls-5" d="M550.32,440.31s25.74-40.76,34.5-27.33-24.66,37.49-24.66,37.49Z"/>
  <path class="cls-3" d="M411.2,535.7s21.82,14.72,41.85-4.37,40.35-23.39,40.35-23.39S514.82,495.11,518,491.3a185.32,185.32,0,0,1,15.62-15.59c3.1-2.53,7.23-6.47,10.45-9.68s21.5-18.29,21.5-18.29-14.1-11.11-11.93-14.61c0,0-18.1,14.75-19.11,13.4s-24.2,9.65-25.27,12.1-20.61,14.54-22,16.13-31.32,20.75-31.32,20.75S398.82,501,411.2,535.7Z"/>
  <path class="cls-6" d="M411,537.09s21.79,14.74,41.85-4.37,40.36-23.39,40.36-23.39,21.41-12.82,24.58-16.64A185.32,185.32,0,0,1,533.4,477.1c3.1-2.52,7.23-6.48,10.45-9.69s21.5-18.28,21.5-18.28-14.1-11.11-11.92-14.6c0,0-18.11,14.74-19.12,13.39S510.12,457.58,509,460s-20.56,14.51-22,16.14-31.34,20.73-31.34,20.73S398.61,502.43,411,537.09Z"/>
  <path class="cls-3" d="M485.63,492.21c-.84-.77,5.35-3.43,15.91-11.85S529,456.16,529,456.16,492,498,485.63,492.21Z"/>
  <path class="cls-3" d="M436.92,509.41s1.39,1.3-2.53,7.76"/>
  <path class="cls-3" d="M455.16,513.38a7.17,7.17,0,0,1-3.61,9"/>
  <path class="cls-3" d="M403.52,562.84l6.37,3s6.19,1.19,7.23,2.53S428.8,566,428.8,566l16.79,1-9.51-2.76a15.11,15.11,0,0,0,11.33-6.43c4.6-6.42,9.72-22.76,9.72-22.76l5.3-23.52L454.24,505l-16.7,4.92s-.17,19.36-1.67,24.09l-7.14,22.55-8.56,4.11-9.87,2Z"/>
  <path class="cls-10" d="M402.18,562.39l6.37,3s6.18,1.18,7.24,2.53,11.69-2.34,11.69-2.34l16.61.52-9.33-2.31a15,15,0,0,0,11.31-6.43c4.62-6.42,10.43-14.37,13.18-21.53s4.88-26.53,4.88-26.53l-9.06-7.38-16.38,5.23s-.63,22.9-1.84,27.91-9.45,21.1-9.45,21.1l-8.56,4.12-9.87,2Z"/>
  <path class="cls-3" d="M414.69,555.45,404.06,562a20.94,20.94,0,0,1-1.64-2.2s-11.8-16.56-12.61-20.5a23.73,23.73,0,0,1,.42-7.11Z"/>
  <path class="cls-6" d="M412.5,555.06l-10.64,6.54a25.08,25.08,0,0,1-1.65-2.19s-11.79-16.58-12.59-20.51c-.33-1.53-.05-4.29.4-7.11Z"/>
  <path class="cls-11" d="M388.43,542.22a5.44,5.44,0,0,1-1.55,1.69c-1.66,1-3.8.48-5.72.82s-3.72,1.63-5.69,2a15.44,15.44,0,0,1-4.24,0c-2.69-.21-5.59-.15-7.89,1.35s-3.4,4.92-1.68,7c-1.28,2.4-4.22,3.49-6.93,3.46-6.36-.08-12.29-4.79-18.12.19-2.54,2.19-2,5-1.58,7.74-.25-.47-.47-.95-.69-1.43a28.76,28.76,0,0,1-1.33-3.6,29.34,29.34,0,0,1,55.34-19.27Z"/>
  <path class="cls-12" d="M333.3,572.06a12.14,12.14,0,0,1-4.15,2,8.26,8.26,0,0,1-5.19.43,6.86,6.86,0,0,1-3.28-2.83c-4.6-6.81-2.89-16-5.47-23.82-1.09-3.29-3-6.58-2.37-10s3.75-6,6.36-8.53a43.84,43.84,0,0,0,9.42-13.08c1.23-2.62,2.27-5.46,4.45-7.34,2.55-2.23,6.18-2.69,9.57-2.61s6.8.6,10.14,0c2.07-.39,4-1.22,6.1-1.68a35.16,35.16,0,0,1,7.31-.61c2.9-.05,5.9-.07,8.55,1.1,4.67,2.07,7,7.17,8.8,12s3.59,10,7.84,12.82a3.49,3.49,0,0,1,1.58,1.53,3,3,0,0,1-.57,2.36l-3.76,6.59a6.78,6.78,0,0,1-2.06,2.54c-1.64,1-3.8.48-5.71.81s-3.72,1.65-5.7,2.06a15,15,0,0,1-4.23,0c-2.7-.21-5.6-.15-7.84,1.35s-3.41,4.91-1.69,7c-1.29,2.39-4.22,3.49-6.93,3.46-6.37-.08-12.29-4.79-18.12.19C331.63,561.92,337.81,568.33,333.3,572.06Z"/>
  <g class="cls-13">
    <path d="M381.62,514.3c1.35,3.67,2.74,7.6,5.23,10.5a52.07,52.07,0,0,1-3.27-7.65,29,29,0,0,0-4.64-8.79A39.12,39.12,0,0,1,381.62,514.3Z"/>
    <path d="M391.4,529.93l-.34-.25a5.52,5.52,0,0,1-.59,1.34l-3.76,6.59a6.87,6.87,0,0,1-2.06,2.54c-1.64,1-3.8.48-5.71.81s-3.71,1.65-5.7,2.06a15,15,0,0,1-4.23,0c-2.7-.2-5.59-.15-7.89,1.36s-3.41,4.91-1.69,7c-1.28,2.39-4.21,3.49-6.93,3.45-6.36-.07-12.28-4.79-18.12.19-4.77,4.1,1.41,10.51-3.11,14.24a12,12,0,0,1-4.14,2c-1.69.55-3.52,1-5.19.44a5.58,5.58,0,0,1-2.21-1.53,13.88,13.88,0,0,0,.88,1.49,6.86,6.86,0,0,0,3.28,2.83,8.26,8.26,0,0,0,5.19-.43,12.14,12.14,0,0,0,4.15-2c4.51-3.74-1.67-10.14,3.11-14.24,5.79-5,11.71-.26,18.12-.19,2.71,0,5.65-1.07,6.93-3.46-1.72-2.09-.57-5.5,1.69-7s5.14-1.55,7.84-1.34a15.36,15.36,0,0,0,4.23,0c2-.4,3.71-1.72,5.7-2.06s4.06.23,5.71-.81a6.8,6.8,0,0,0,2.07-2.54l3.75-6.59a3.07,3.07,0,0,0,.58-2.36A3.5,3.5,0,0,0,391.4,529.93Z"/>
  </g>
  <path class="cls-3" d="M621.51,487.18s9.52,12.89,8.17,15.41S621.51,487.18,621.51,487.18Z"/>
  <path class="cls-3" d="M646.46,479.85s6,7.92,5.2,9.74"/>
  <path class="cls-3" d="M673.18,456.37s6.15,3.24,4.38,6.09"/>
  <path class="cls-3" d="M678.58,453.47s8.29,7.85,6.22,10.54"/>
  <path class="cls-3" d="M757.35,384.09s10,11,12.64,7.28S757.35,384.09,757.35,384.09Z"/>
  <path class="cls-1" d="M645.19,31.85a8.93,8.93,0,0,1-8.64,8.63H533.19a8.94,8.94,0,0,1,0-17.87H515.33a8.93,8.93,0,1,1,0-17.86h12.76a9,9,0,0,1-3-.62Q544.81,2.63,565,2.62A524.15,524.15,0,0,1,622.9,5.81a8.93,8.93,0,0,1-4.21,16.8h17.86A8.94,8.94,0,0,1,645.19,31.85Z"/>
  <path class="cls-1" d="M662.66,141.62h12.76a8.93,8.93,0,1,1,0-17.86H778.78a8.93,8.93,0,1,1,0,17.86H766a8.93,8.93,0,0,1,0,17.86h17.89a8.94,8.94,0,0,1,0,17.87H680.52a8.94,8.94,0,0,1,0-17.87H662.66a8.93,8.93,0,1,1,0-17.86Z"/>
  <path class="cls-1" d="M378.2,640.92H383a3.38,3.38,0,0,1,0-6.75h39.06a3.38,3.38,0,0,1,0,6.75h-4.82a3.38,3.38,0,0,1,0,6.75H424a3.38,3.38,0,0,1,0,6.75h-39.1a3.38,3.38,0,1,1-.37-6.75h-6.38a3.38,3.38,0,1,1-.37-6.75h.41Z"/>
  <path class="cls-1" d="M213.09,515.12h6a4.23,4.23,0,0,1,0-8.46h48.93a4.23,4.23,0,1,1,0,8.46h-6a4.23,4.23,0,1,1,0,8.46h8.46a4.23,4.23,0,1,1,0,8.46h-49a4.23,4.23,0,0,1,0-8.46h-8.46a4.23,4.23,0,1,1,0-8.46Z"/>
  <path class="cls-1" d="M639.91,647.35h6a4.23,4.23,0,0,1,0-8.46h49a4.23,4.23,0,0,1,0,8.46h-6a4.23,4.23,0,0,1,0,8.46h8.46a4.23,4.23,0,0,1,0,8.45h-49a4.23,4.23,0,1,1-.41-8.45h-8a4.23,4.23,0,0,1,0-8.46Z"/>
  <path class="cls-2" d="M707.91,307.75a2.84,2.84,0,0,0-.92-3.67,1.21,1.21,0,0,1-.24-.21h0a1.43,1.43,0,0,1,1.4-2.35h0a1.57,1.57,0,0,1,.3.12,2.86,2.86,0,0,0,3.68-.91,1.27,1.27,0,0,1,.21-.25h0a1.43,1.43,0,0,1,2.34,1.41h0a1.88,1.88,0,0,1-.12.3,2.84,2.84,0,0,0,.92,3.67,1.64,1.64,0,0,1,.25.21h0a1.43,1.43,0,0,1-1.41,2.34h0a.79.79,0,0,1-.3-.12,2.86,2.86,0,0,0-3.68.92,1.22,1.22,0,0,1-.2.25h0a1.43,1.43,0,0,1-2-.09,1.42,1.42,0,0,1-.33-1.32h0A1.88,1.88,0,0,1,707.91,307.75Z"/>
  <path class="cls-2" d="M1024.59,139.07a2.83,2.83,0,0,0-.92-3.67,1.21,1.21,0,0,1-.24-.21h0a1.43,1.43,0,0,1,.09-2,1.42,1.42,0,0,1,1.32-.33h0a1.48,1.48,0,0,1,.29.12,2.84,2.84,0,0,0,3.68-.92,1.21,1.21,0,0,1,.21-.24h0a1.43,1.43,0,0,1,2.34,1.41h0a.81.81,0,0,1-.12.29,2.86,2.86,0,0,0,.92,3.68,1.64,1.64,0,0,1,.25.21h0a1.43,1.43,0,0,1-1.41,2.34h0a1.57,1.57,0,0,1-.3-.12,2.85,2.85,0,0,0-3.67.92,1.64,1.64,0,0,1-.21.25h0a1.43,1.43,0,0,1-2-.09,1.42,1.42,0,0,1-.33-1.32h0A1.88,1.88,0,0,1,1024.59,139.07Z"/>
  <path class="cls-2" d="M1029.46,592.13a2.84,2.84,0,0,0-.92-3.67,1.21,1.21,0,0,1-.24-.21h0a1.42,1.42,0,0,1,1.4-2.34h0a.79.79,0,0,1,.3.12,2.86,2.86,0,0,0,3.68-.92,1.22,1.22,0,0,1,.2-.25h0a1.43,1.43,0,0,1,2,.09,1.42,1.42,0,0,1,.33,1.32h0a1.88,1.88,0,0,1-.12.3,2.84,2.84,0,0,0,.92,3.67,1.21,1.21,0,0,1,.24.21h0a1.42,1.42,0,0,1-1.36,2.3h0a1,1,0,0,1-.3-.11,2.86,2.86,0,0,0-3.68.91,1.27,1.27,0,0,1-.21.25h0a1.43,1.43,0,0,1-2.34-1.41h0A2,2,0,0,1,1029.46,592.13Z"/>
  <path class="cls-2" d="M49.29,38a2.85,2.85,0,0,0-.92-3.68,1.21,1.21,0,0,1-.24-.21h0a1.42,1.42,0,0,1,1.4-2.34h0a1.57,1.57,0,0,1,.3.12A2.85,2.85,0,0,0,53.51,31a1.64,1.64,0,0,1,.21-.25h0a1.43,1.43,0,0,1,2.34,1.41h0a1.57,1.57,0,0,1-.12.3,2.85,2.85,0,0,0,.92,3.68,1.57,1.57,0,0,1,.25.2h0a1.43,1.43,0,0,1-.09,2,1.42,1.42,0,0,1-1.32.33h0a1.57,1.57,0,0,1-.3-.12,2.85,2.85,0,0,0-3.68.92,1.16,1.16,0,0,1-.2.24h0a1.43,1.43,0,0,1-2.35-1.4h0A1.57,1.57,0,0,1,49.29,38Z"/>
  <path class="cls-2" d="M1.54,7.65A2.84,2.84,0,0,0,.62,4a1.21,1.21,0,0,1-.24-.21h0a1.43,1.43,0,0,1,1.4-2.35h0a1.57,1.57,0,0,1,.3.12A2.86,2.86,0,0,0,5.76.63,2.43,2.43,0,0,1,6,.38H6A1.43,1.43,0,0,1,8,.49a1.45,1.45,0,0,1,.33,1.26h0A1.48,1.48,0,0,1,8.19,2a2.86,2.86,0,0,0,.92,3.71A1.21,1.21,0,0,1,9.35,6h0a1.42,1.42,0,0,1,0,2,1.4,1.4,0,0,1-1.42.34h0a.79.79,0,0,1-.3-.12,2.86,2.86,0,0,0-3.68.92,1.27,1.27,0,0,1-.21.25h0A1.43,1.43,0,0,1,1.38,8h0A1.73,1.73,0,0,1,1.54,7.65Z"/>
  <path class="cls-2" d="M381.91,228.2a2.84,2.84,0,0,0-.92-3.67,1.21,1.21,0,0,1-.24-.21h0a1.43,1.43,0,0,1,1.4-2.35h0a1.57,1.57,0,0,1,.3.12,2.86,2.86,0,0,0,3.68-.91,1.22,1.22,0,0,1,.2-.25h0a1.43,1.43,0,0,1,2,.09,1.42,1.42,0,0,1,.33,1.32h0a1.48,1.48,0,0,1-.12.29,2.85,2.85,0,0,0,.92,3.68,1.21,1.21,0,0,1,.24.21h0a1.42,1.42,0,0,1-1.4,2.34h0a.79.79,0,0,1-.3-.12,2.86,2.86,0,0,0-3.68.92,1.27,1.27,0,0,1-.21.25h0a1.43,1.43,0,0,1-2.34-1.41h0A1.88,1.88,0,0,1,381.91,228.2Z"/>
  <path class="cls-2" d="M205.54,345.69a2.84,2.84,0,0,0-.92-3.67,1.21,1.21,0,0,1-.24-.21h0a1.42,1.42,0,0,1,1.4-2.34h0a.79.79,0,0,1,.3.12,2.86,2.86,0,0,0,3.68-.92,2.43,2.43,0,0,1,.2-.25h0a1.43,1.43,0,0,1,2,.09,1.42,1.42,0,0,1,.33,1.32h0a1.88,1.88,0,0,1-.12.3,2.84,2.84,0,0,0,.92,3.67,1.21,1.21,0,0,1,.24.21h0a1.42,1.42,0,0,1-1.4,2.34h0a.79.79,0,0,1-.3-.12,2.86,2.86,0,0,0-3.68.92,2.43,2.43,0,0,1-.2.25h0a1.43,1.43,0,0,1-2-.09,1.42,1.42,0,0,1-.33-1.32h0A1.88,1.88,0,0,1,205.54,345.69Z"/>
  <path class="cls-2" d="M481.54,192a2.84,2.84,0,0,0-1.34-3.54,1.27,1.27,0,0,1-.27-.18h0a1.42,1.42,0,0,1,1.12-2.49h0a1.09,1.09,0,0,1,.31.08,2.86,2.86,0,0,0,3.55-1.34,1.27,1.27,0,0,1,.18-.27h0a1.44,1.44,0,0,1,2-.13,1.46,1.46,0,0,1,.47,1.26h0a1.58,1.58,0,0,1-.09.31,2.86,2.86,0,0,0,1.35,3.54,1.51,1.51,0,0,1,.26.18h0A1.43,1.43,0,0,1,488,192h0a1.57,1.57,0,0,1-.31-.08,2.84,2.84,0,0,0-3.54,1.34,2.11,2.11,0,0,1-.18.27h0a1.44,1.44,0,0,1-2,.13,1.46,1.46,0,0,1-.47-1.26h0A1.09,1.09,0,0,1,481.54,192Z"/>
  <path class="cls-2" d="M931.44,501a3.94,3.94,0,0,0,2.2-4.77,2.14,2.14,0,0,1-.08-.44h0a2,2,0,0,1,3.55-1.31h0a1.87,1.87,0,0,1,.22.39,3.94,3.94,0,0,0,4.77,2.2,1.64,1.64,0,0,1,.44-.09h0a2,2,0,0,1,1.31,3.56h0a1.87,1.87,0,0,1-.39.22,4,4,0,0,0-2.2,4.77,1.64,1.64,0,0,1,.09.44h0a2,2,0,0,1-3.56,1.31h0a1.47,1.47,0,0,1-.21-.39,3.94,3.94,0,0,0-4.77-2.2,3.12,3.12,0,0,1-.44.09h0a2,2,0,0,1-1.31-3.56h0A2.08,2.08,0,0,1,931.44,501Z"/>
  <path class="cls-2" d="M322.5,538.86a4,4,0,0,0,2.2-4.77,1.57,1.57,0,0,1-.09-.43h0a2,2,0,0,1,3.56-1.32h0a1.87,1.87,0,0,1,.22.39,3.93,3.93,0,0,0,4.77,2.2,1.56,1.56,0,0,1,.43-.08h0a2,2,0,0,1,1.31,3.55h0a1.79,1.79,0,0,1-.38.22,3.94,3.94,0,0,0-2.2,4.77,2.14,2.14,0,0,1,.08.44h0a2,2,0,0,1-3.55,1.31h0a1.87,1.87,0,0,1-.22-.39,4,4,0,0,0-4.77-2.2,1.64,1.64,0,0,1-.44.09h0a2,2,0,0,1-1.31-3.56h0A1.87,1.87,0,0,1,322.5,538.86Z"/>
  <circle class="cls-1" cx="121.87" cy="103.29" r="16.5"/>
  <circle class="cls-1" cx="944.65" cy="119.79" r="16.5"/>
  <circle class="cls-1" cx="199.87" cy="21.37" r="9"/>
  <circle class="cls-1" cx="1060.82" cy="283.28" r="9"/>
  <circle class="cls-1" cx="138.37" cy="743.99" r="9"/>
  <circle class="cls-1" cx="172.87" cy="784.52" r="9"/>
  <circle class="cls-1" cx="105.37" cy="808.95" r="9"/>
  <path class="cls-1" d="M640.09,806.54a8.93,8.93,0,0,1-8.64,8.63H618.69a8.93,8.93,0,0,1,3.92,17A515.38,515.38,0,0,1,565,835.25q-18,0-35.64-1.2a8.92,8.92,0,0,1,3.85-1H515.33a8.93,8.93,0,0,1,0-17.86h12.76a8.94,8.94,0,0,1,0-17.87H631.45A8.94,8.94,0,0,1,640.09,806.54Z"/>
</svg>
