<svg id="Layer_1" data-name="Layer 1" xmlns="http://www.w3.org/2000/svg" xmlns:xlink="http://www.w3.org/1999/xlink" transform="scale(-1, 1) translate(0, -100)" viewBox="0 0 1169.82 937.5">
  <defs>
    <style>
.cls-1,.cls-14,.cls-17{fill:#005ea6;}.cls-1,.cls-16,.cls-17,.cls-19,.cls-3,.cls-9{isolation:isolate;}.cls-1,.cls-12,.cls-16,.cls-3{opacity:0.1;}.cls-16,.cls-2{fill:#fff;}.cls-4{fill:url(#linear-gradient);}.cls-5{fill:#efb7b9;}.cls-6{fill:#b07473;}.cls-7{fill:#444053;}.cls-8{fill:#e1e7ef;}.cls-19,.cls-9{opacity:0.05;}.cls-10{fill:url(#linear-gradient-2);}.cls-11{fill:#585268;}.cls-13{fill:none;stroke:#535461;stroke-miterlimit:10;stroke-width:2px;}.cls-15{fill:#a8a8a8;}.cls-17{opacity:0.3;}.cls-18{fill:#67647e;}
</style>
    <linearGradient id="linear-gradient" x1="-471.78" y1="-62.23" x2="-471.78" y2="51.04" gradientTransform="matrix(0.16, 0.99, 0.99, -0.16, 582.34, 945.56)" gradientUnits="userSpaceOnUse">
      <stop offset="0" stop-color="gray" stop-opacity="0.25"/>
      <stop offset="0.54" stop-color="gray" stop-opacity="0.12"/>
      <stop offset="1" stop-color="gray" stop-opacity="0.1"/>
    </linearGradient>
    <linearGradient id="linear-gradient-2" x1="-724.94" y1="10.97" x2="-666.42" y2="10.97" xlink:href="#linear-gradient"/>
  </defs>
  <path class="cls-2" d="M761.21,169.76c-9.76,9.21-34.06,23.63-35.54,24.52,1.59-.55,31.29-10.79,33-5.13S719,208.71,716.78,209.47c2.1-.49,37.1-8.41,35,.79-2.19,9.49-50,20.79-50,20.79s36.22-1.81,37.39,5.7c1,6.25-36.14,7.79-48.62,8.13,9.27-.07,31.59.54,35.5,8,.85,1.64-.14,2.87-2.37,3.8-.23.1-.48.19-.75.29-11.37,4-47.29,1.6-49,1.49,1.2.27,20.45,4.7,25.77,11.33a6.68,6.68,0,0,1,.6.86,4.49,4.49,0,0,1,.45,4.13c-3.53,9.07-37.52-1.37-41-2.44,2.57,1.08,22.79,9.6,21.51,17-1.35,7.82-40.34-2.31-41.22-2.53.71.42,25.74,15.26,20.47,19.87-5.08,4.45-35.15-5.68-38.18-6.72,1.91.84,14.33,6.35,20.46,11.39a14.7,14.7,0,0,1,2.5,2.5c1.23,1.65,1.34,3.14-.38,4.24-7.81,5-41.73-4.69-42.47-4.9.52.52,19,18.94,14.88,27.16s-33.51-22.16-34.19-22.85c.5.85,18.75,31.68,13.77,38.18s-26-29.52-27.55-32.06c1,2,12.26,24.87,6.58,25.75-5.85.92-18.08-28.25-18.45-29.15.21.83,8.8,34.48,4.22,32.65s-17.27-30.12-18-31.73c.21.69,1.88,6,3.09,11.26,1.12,4.92,1.84,9.83.61,11a.83.83,0,0,1-.21.16c-3.17,1.77-3.75-18.65-10.14-15.09s-7.18,15.23-36,19.73l-3.4-21.83-.11-.7s29.89-8.51,37.57-59.72-10.26-54.82,69-59.48S762.9,121.5,764.86,134c1.9,12.2-30.36,38.26-32,39.59,1.47-.8,29.63-16,32.24-10.13C765.7,164.8,764.09,167.06,761.21,169.76Z"/>
  <path class="cls-3" d="M494.52,465.75a76.28,76.28,0,0,0,11-5.31C511.35,457,494.52,465.75,494.52,465.75Z"/>
  <path class="cls-3" d="M779.61,357.42s1.1,14.79,5.45,13.53S779.61,357.42,779.61,357.42Z"/>
  <path class="cls-4" d="M564.26,722.38c.36-4.17,12.07-18.7,15.52-27.12,1.59-3.88-1.77-6.31-5.85-7.81,3.37-5.16,7.1-10.82,8.8-15a4.32,4.32,0,0,0,.07-3.47c-2.35-5.42-16.52-6.58-16.52-6.58l-.89.19c-2.09-2.66-3.4-10.64-3.63-14.1-.26-4.07-.86-9.45-1.8-11.35s-6.26-24-10.14-36.71-23.21-45.54-23.21-45.54l-7-31.12.84-4.37c5-1.39,4.95-7.75,2.93-15.2,2.22-12.1,4-24.17,2.18-28.07,5.68,11.15,19.17-2.36,11.48-12.52l.2-1.1s-2.89-7.41-2.51-23.21-13.4-40.13-13.59-41.25c-.14-.87-2.4-25.81-3.53-38.4,1.57-17.41-1.17-42.55-3.77-43.93-3-1.58-13.92-20.72-13.92-20.72l-1.72-6.56s-2-.78-4.56-1.68a17.82,17.82,0,0,1,3.09-1.62,53.49,53.49,0,0,1,8.16-2.32h0l1.11-.26a1.34,1.34,0,0,0,.27-.07l.93-.24.23-.06A32.48,32.48,0,0,0,511,281h0a18.49,18.49,0,0,0,3.31-1.7h0a11.81,11.81,0,0,0,3.76-3.78c1.53-2.51,1.89-5.54,2.22-8.46a37.68,37.68,0,0,0,.32-7.43c-.2-2.13-.78-4.22-.91-6.35-.2-3.43.77-6.8,1.29-10.2s.51-7.1-1.39-10c-1.62-2.44-4.35-3.85-6.82-5.42a44.08,44.08,0,0,1-11.94-11.16c-2.17-3-4.26-6.41-7.76-7.5s-6.89.42-10.34,1.09c-7.6,1.48-15.94-.91-23,1.75h0l-.47.19c-.38.15-.77.31-1.14.5h0a10.73,10.73,0,0,0-1,.56,7.55,7.55,0,0,0-.91.66,5.29,5.29,0,0,0-.78.79,4.66,4.66,0,0,0-.61.93,6.75,6.75,0,0,0-.45,3.89l.1.72.12.66a17.9,17.9,0,0,0,.55,2.3,8.9,8.9,0,0,0,.95,2.14,4.77,4.77,0,0,0,3.47,2.23,10.79,10.79,0,0,0,1.89.14h.44l-.46.15h0a29.73,29.73,0,0,0-4.16,54.14l.38,1.13a70.62,70.62,0,0,1,2.58,11.12h0a21.31,21.31,0,0,0-2.42,1.38c-19.19,12.31-19.85,50.78-19.85,50.78s1.65,42.51,2.51,45.8-.64,13.1-3.27,15.93-3.72,15.3,3.08,19.35,5.49,8.7,5.49,8.7a19.61,19.61,0,0,0,3.65,2.14l-.13,2.71c-.38,7.15-1.12,18.63-2.12,21.11-1.47,3.66-1.36,19.38,2.22,27.88s18.76,35,18.76,35,5,16.48,6,19.41,8.32,10.6,8.32,10.6l6.12,15.8s9,16.69,9.94,23.73,7.1,13.42,7.1,13.42l20.84,44.75a23.52,23.52,0,0,1-.45,9c-1.25,4,2.57,30,11,37.94,0,0,1.09.29,2.87.68,0,.36.07.73.08,1.12-.37,1.68-.62,2.71-.62,2.71a69.38,69.38,0,0,0-6.53,10.58c-2.55,5.31-3.95,11,.42,13a7.69,7.69,0,0,0,2.12.6c-3.65,5.14-14.9,22.44-1.5,22.93C549.57,751.75,563.9,726.54,564.26,722.38Z"/>
  <path class="cls-5" d="M461.3,305s.51-8.08-3.09-19.34a72,72,0,0,0-4.43-10.85c-8.34-16.56,36.66-2.81,36.66-2.81s0,4.61.47,10.15c.53,6.62,1.63,14.56,3.93,17.5C499.11,305,461.3,305,461.3,305Z"/>
  <path class="cls-6" d="M565.44,659.94s19.63,1.6,16.23,9.9-15,22.64-15.32,26.75-14.49,29-30,28.41,2.51-24,2.51-24,5.35-21.78,2.94-28.82S565.44,659.94,565.44,659.94Z"/>
  <path class="cls-3" d="M536.32,725c-15.51-.57,2.51-24,2.51-24s5.35-21.77,2.94-28.82c-.7-2,1-4,3.81-5.6,5.32-3.15,14.54-5.43,18.24-6.26,1-.23,1.59-.34,1.59-.34s19.63,1.6,16.22,9.9-15,22.63-15.31,26.74S551.83,725.56,536.32,725Z"/>
  <path class="cls-7" d="M515.44,506l10.84,47.85s19.07,32.4,22.89,45,9.07,34.33,10,36.21,1.53,7.18,1.78,11.19,2,14.2,4.73,14.78-1.73,21.2-12.17,17.13-55.87-149.49-55.87-149.49Z"/>
  <path class="cls-3" d="M515.44,506l10.84,47.85s19.07,32.4,22.89,45,9.07,34.33,10,36.21,1.53,7.18,1.78,11.19,2,14.2,4.73,14.78-1.73,21.2-12.17,17.13-55.87-149.49-55.87-149.49Z"/>
  <path class="cls-6" d="M533.44,747.48c-15.52-.57,2.51-24,2.51-24s3.74-15.23,3.56-24.33a15.17,15.17,0,0,0-.62-4.49c-2.41-7,23.64-12.21,23.64-12.21s1.26.1,3.08.39c5.4.85,15.69,3.31,13.15,9.52-3.41,8.3-15,22.63-15.31,26.74S548.92,748,533.44,747.48Z"/>
  <path class="cls-3" d="M539.44,699.12a15.17,15.17,0,0,0-.62-4.49c-2.41-7,23.64-12.21,23.64-12.21s1.26.1,3.08.39c1.25,5.84,2.37,10.73,2.37,10.73C567.44,704.26,546.89,700.74,539.44,699.12Z"/>
  <path class="cls-7" d="M536.53,696.52c-8.33-7.79-12.09-33.51-10.87-37.43a23.15,23.15,0,0,0,.46-8.85L505.57,606.1s-6.06-6.3-7-13.24-9.8-23.41-9.8-23.41l-6-15.58s-7.33-7.61-8.33-10.49-5.91-19.15-5.91-19.15-15-26.13-18.51-34.52-3.63-23.88-2.18-27.5c1-2.44,1.71-13.77,2.09-20.81.17-3.34.26-5.72.26-5.72l62.31-8.24s1.51,6.81,3.54,15.41c2.94,12.49,7,28.76,9.12,33.27,3.59,7.63-7,48.3-7.15,55.76s12,45.51,12,45.51,26.82,47.54,26.83,57.16,4.2,22.11,5.27,29.87,5.51,27.14,5.51,27.14C567,704.65,536.53,696.52,536.53,696.52Z"/>
  <path class="cls-3" d="M476.6,288.7a29.19,29.19,0,0,1-18.39-3.06,72,72,0,0,0-4.43-10.85c-8.34-16.56,36.66-2.81,36.66-2.81s0,4.61.47,10.15A29.13,29.13,0,0,1,476.6,288.7Z"/>
  <path class="cls-5" d="M476.44,287.71a29.33,29.33,0,0,1-14.5-56.58h0c.5-.18,1-.34,1.51-.5a29.33,29.33,0,1,1,15.84,56.48A25.32,25.32,0,0,1,476.44,287.71Z"/>
  <path class="cls-3" d="M476.5,440.61c-12.14,6.23-21.88,3.13-26.53.79.17-3.34.26-5.72.26-5.72l62.31-8.24s1.51,6.81,3.54,15.41l.07.89S493.66,431.8,476.5,440.61Z"/>
  <path class="cls-8" d="M476,437.65c-17.17,8.81-29.53-1-29.53-1s1.29-4.59-5.42-8.58-5.64-16.32-3-19.09,4.09-12.47,3.23-15.71-2.47-45.17-2.47-45.17.64-37.94,19.57-50.09a23.23,23.23,0,0,1,2.38-1.36s17.94-9.59,21.94-9.89c1.56-.13,4.26.5,7,1.3,4.25,1.27,8.56,3,8.56,3l1.7,6.47s10.77,18.88,13.72,20.43,6.06,33.8,2.77,50.19-2.87,47.37-2.87,47.37l2.13,25.32S493.19,428.89,476,437.65Z"/>
  <path class="cls-9" d="M758.69,189.15c1.72,5.65-39.66,19.56-41.91,20.32,2.1-.49,37.1-8.41,35,.79-2.19,9.49-50,20.79-50,20.79s36.22-1.81,37.39,5.7c1,6.25-36.14,7.79-48.62,8.13,9.27-.07,31.59.54,35.5,8,.85,1.64-.14,2.87-2.37,3.8-3.15,0-5.9-.05-8-.08,2,.06,4.49.18,7.28.37-11.37,4-47.29,1.6-49,1.49,1.2.27,20.45,4.7,25.77,11.33-2.47-.22-3.93-.37-3.93-.37s1.81.44,4.53,1.23a4.49,4.49,0,0,1,.45,4.13c-3.53,9.07-37.52-1.37-41-2.44,2.57,1.08,22.79,9.6,21.51,17-1.35,7.82-40.34-2.31-41.22-2.53.71.42,25.74,15.26,20.47,19.87-5.08,4.45-35.15-5.68-38.18-6.72,1.91.84,14.33,6.35,20.46,11.39-4.39-1.4-7.64-2.54-8.48-2.83,1,.47,5.81,2.59,11,5.33,1.23,1.65,1.34,3.14-.38,4.24-7.81,5-41.73-4.69-42.47-4.9.52.52,19,18.94,14.88,27.16s-33.51-22.16-34.19-22.85c.5.85,18.75,31.68,13.77,38.18s-26-29.52-27.55-32.06c1,2,12.26,24.87,6.58,25.75-5.85.92-18.08-28.25-18.45-29.15.21.83,8.8,34.48,4.22,32.65s-17.27-30.12-18-31.73c.21.69,1.88,6,3.09,11.26-1.58-3.56-2.64-6.1-2.75-6.36.15.56,3,10.85,3.36,17.4.15,2.72-.12,4.8-1.19,5.27-3.71,1.63-2.75-18.82-10.24-15.56-5.5,2.4-7.94,9.32-21.9,14.07l-4.69-27.84c10.4-8,22.75-22.58,29.31-48.85,12.7-50.86-7.24-55.31,82.44-56.3,50.73-.57,103.5-25.35,140-44.5-9.76,9.21-34.06,23.63-35.54,24.52C727.26,193.73,757,183.49,758.69,189.15Z"/>
  <path class="cls-2" d="M816,166.25c-.48-12.66-100.81,58.37-190.4,54.18s-69.93,1.41-85.56,51.45c-7.78,24.92-20.29,38.7-30.9,46.26l7.25,27.09c9.71-4,12.48-9.2,17.32-11,7.67-2.83,5.53,17.53,9.33,16.12s-.87-22.79-.87-22.79,11,31.28,15.9,33.63-.28-33-.28-33,9.94,31.32,16.74,31.06-3.93-26.47-3.93-26.47,20,41.07,26.61,35.08S587,328.41,587,328.41s29.5,34.37,35.28,26.54-13-28.66-13-28.66,37.47,13.78,47,9.61-23.15-20.67-23.15-20.67,35.57,15.13,42.22,11.07S655,304.25,655,304.25s43.34,14.83,46,7.12-22.13-19.44-22.13-19.44,40.48,16.21,46,7.12-28-19.22-28-19.22,63.58,10.25,59.31.27c-3.37-7.87-28.35-11-38.77-11.93,14.06,1.06,56,3.66,55.71-2.66-.29-7.59-41.21-9.84-41.21-9.84s55.19-5.91,58.94-15.09-39.28-4.67-39.28-4.67,51.16-9.57,50-15.55-37.86,1.45-37.86,1.45,50.76-20,48.57-26.26-37.66,6.51-37.66,6.51S816.48,178.91,816,166.25Z"/>
  <path class="cls-3" d="M472.72,308.49s-16.59,20.41.69,42.07,19.77,42.24,19.77,42.24,15.57,28.3,19.09,31.8c5.05,5.35-.37-7.55,2.66-3.14,2.25,3.33,9.81,9.6,13.74,11.9,1.52.89,6.67,8,6.67,8s24.14,14.21,27.44,16.68c0,0-13.46-18-12-18.86s-7.49-24.94-9.84-26.23-12.68-21.8-14.14-23.36-17.95-33-17.95-33S508.33,299.18,472.72,308.49Z"/>
  <path class="cls-5" d="M558.64,454.69S597,483.9,582.85,491.45s-35.2-27.85-35.2-27.85Z"/>
  <path class="cls-3" d="M475.79,307.75s-16.57,20.45.7,42.07,19.76,42.25,19.76,42.25,10.91,22.45,14.43,25.95a186,186,0,0,1,14.16,16.92c2.24,3.31,5.81,7.77,8.73,11.26s16.34,23,16.34,23,10.92-12.14,14.22-9.67c0,0-16.88-18.88-15.45-19.76s-6.18-24.27-8.52-25.56-20.81-43.3-22.27-44.86-6-13.57-6-13.57S511.41,298.45,475.79,307.75Z"/>
  <path class="cls-8" d="M474.42,307.43s-16.58,20.41.69,42.06,19.77,42.25,19.77,42.25,10.9,22.46,14.43,25.95a187.74,187.74,0,0,1,14.17,16.92c2.23,3.32,5.81,7.77,8.73,11.26s16.32,23,16.32,23,12.31-13.08,15.6-10.6c0,0-13.1-19.33-11.67-20.22s-7.5-24.94-9.85-26.23S530,390.09,528.46,388.49s-17.91-33-17.91-33S510,298.13,474.42,307.43Z"/>
  <path class="cls-3" d="M512.6,385.7c.84-.77,2.95,5.63,10.41,16.89s21.7,29.5,21.7,29.5S506.29,391.56,512.6,385.7Z"/>
  <path class="cls-3" d="M499.73,335.67s-1.42,1.28-7.51-3.19"/>
  <path class="cls-3" d="M502.54,349.22a7.17,7.17,0,0,1-9.65-1.1"/>
  <path class="cls-3" d="M462.84,311.48l-5.15-11.38a20.69,20.69,0,0,1,2.39-1.35s17.93-9.6,21.94-9.9c1.56-.13,4.26.5,7,1.31Z"/>
  <path class="cls-8" d="M463.51,309.35,458.37,298a23.23,23.23,0,0,1,2.38-1.36s17.94-9.59,21.94-9.89c1.56-.13,4.26.5,7,1.3Z"/>
  <path class="cls-10" d="M479.3,287.11a5.13,5.13,0,0,1-1.48-1.76c-.81-1.77,0-3.83-.09-5.77s-1.15-3.9-1.31-5.91a15.3,15.3,0,0,1,.52-4.2c.55-2.65.86-5.53-.34-8s-4.44-4-6.73-2.56c-2.21-1.57-2.92-4.62-2.55-7.31.89-6.3,6.31-11.58,2.11-18-1.85-2.79-4.71-2.61-7.48-2.55.5-.18,1-.34,1.51-.5A29.33,29.33,0,1,1,479.3,287Z"/>
  <path class="cls-11" d="M456.69,228.64a12.16,12.16,0,0,1-1.48-4.38,8.2,8.2,0,0,1,.23-5.2,6.85,6.85,0,0,1,3.22-2.89c7.34-3.7,16.26-.84,24.33-2.41,3.4-.66,6.9-2.11,10.2-1.08s5.51,4.48,7.65,7.39a43.47,43.47,0,0,0,11.78,11c2.44,1.55,5.13,2.94,6.72,5.34,1.88,2.82,1.88,6.48,1.37,9.83s-1.46,6.67-1.26,10.06c.12,2.1.69,4.16.89,6.26a35.92,35.92,0,0,1-.32,7.33c-.32,2.88-.68,5.86-2.18,8.34-2.64,4.37-8,6.07-13,7.21s-10.38,2.29-13.71,6.15a3.48,3.48,0,0,1-1.72,1.38,3,3,0,0,1-2.26-.87l-6.06-4.56a6.58,6.58,0,0,1-2.26-2.37c-.82-1.76,0-3.83-.08-5.77s-1.17-3.89-1.32-5.91a14.53,14.53,0,0,1,.52-4.2c.55-2.65.86-5.53-.34-8s-4.44-4-6.73-2.56c-2.21-1.58-2.93-4.63-2.55-7.31.88-6.31,6.31-11.59,2.11-18C467,228.27,459.82,233.58,456.69,228.64Z"/>
  <g class="cls-12">
    <path d="M507.85,283.89c-3.81.88-7.88,1.76-11.07,3.86a52.56,52.56,0,0,1,8-2.28,29,29,0,0,0,9.31-3.48A39.35,39.35,0,0,1,507.85,283.89Z"/>
    <path d="M491.11,291.61l.29-.31a5.13,5.13,0,0,1-1.25-.75L484.09,286a6.75,6.75,0,0,1-2.26-2.37c-.82-1.76,0-3.83-.08-5.77s-1.17-3.89-1.32-5.91a14.53,14.53,0,0,1,.52-4.2c.55-2.65.86-5.53-.34-8s-4.44-4-6.73-2.56c-2.21-1.58-2.93-4.62-2.55-7.31.88-6.3,6.31-11.58,2.11-18-3.46-5.25-10.6.06-13.73-4.89a11.92,11.92,0,0,1-1.48-4.37c-.33-1.74-.56-3.62.23-5.2a5.55,5.55,0,0,1,1.79-2,14.12,14.12,0,0,0-1.59.69,6.85,6.85,0,0,0-3.22,2.89,8.2,8.2,0,0,0-.23,5.2,12.16,12.16,0,0,0,1.48,4.38c3.13,4.94,10.27-.37,13.73,4.89,4.2,6.37-1.23,11.65-2.11,18-.38,2.68.34,5.73,2.55,7.31,2.29-1.44,5.53.13,6.73,2.56s.89,5.3.34,7.95a14.53,14.53,0,0,0-.52,4.2c.15,2,1.23,3.89,1.32,5.91s-.74,4,.08,5.77a6.58,6.58,0,0,0,2.26,2.37l6.06,4.56a3,3,0,0,0,2.26.87A3.47,3.47,0,0,0,491.11,291.61Z"/>
  </g>
  <path class="cls-3" d="M504.34,525.28s-14,7.81-16.32,6.15S504.34,525.28,504.34,525.28Z"/>
  <path class="cls-3" d="M508.44,551s-8.61,4.92-10.32,3.92"/>
  <path class="cls-3" d="M528.35,580.44s-4,5.69-6.6,3.58"/>
  <path class="cls-3" d="M530.54,586.17s-8.84,7.23-11.25,4.83"/>
  <path class="cls-3" d="M554.77,685.59S540,686.69,541.24,691,554.77,685.59,554.77,685.59Z"/>
  <path class="cls-1" d="M699.91,460h12.76a8.93,8.93,0,1,1,0-17.86H816A8.93,8.93,0,1,1,816,460H803.27a8.93,8.93,0,0,1,0,17.86h17.89a8.94,8.94,0,0,1,0,17.87H717.77a8.94,8.94,0,0,1,0-17.87H699.91a8.93,8.93,0,1,1,0-17.86Z"/>
  <path class="cls-1" d="M512.91,639h6a4.23,4.23,0,1,1,0-8.46h49a4.23,4.23,0,1,1,0,8.46h-6a4.23,4.23,0,1,1,0,8.46h8.45a4.23,4.23,0,0,1,0,8.46h-49a4.23,4.23,0,0,1,0-8.46h-8.46a4.23,4.23,0,1,1,0-8.46Z"/>
  <path class="cls-1" d="M392,728h4.82a3.38,3.38,0,0,1,0-6.75h39.06a3.38,3.38,0,0,1,0,6.75H431a3.38,3.38,0,0,1,0,6.75h6.75a3.38,3.38,0,0,1,0,6.75h-39.1a3.38,3.38,0,1,1-.36-6.75h-6.39a3.38,3.38,0,1,1-.36-6.75h.4Z"/>
  <path class="cls-1" d="M213.09,585.12h6a4.23,4.23,0,1,1,0-8.46h48.93a4.23,4.23,0,1,1,0,8.46h-6a4.23,4.23,0,1,1,0,8.46h8.46a4.23,4.23,0,1,1,0,8.46h-49a4.23,4.23,0,0,1,0-8.46h-8.46a4.23,4.23,0,1,1,0-8.46Z"/>
  <path class="cls-1" d="M648,627.32h6a4.23,4.23,0,0,1,0-8.46h49a4.23,4.23,0,0,1,0,8.46h-6a4.23,4.23,0,1,1,0,8.46h8.46a4.23,4.23,0,0,1,0,8.45h-49a4.23,4.23,0,1,1-.41-8.45h-8a4.23,4.23,0,0,1,0-8.46Z"/>
  <path class="cls-17" d="M707.91,307.75a2.84,2.84,0,0,0-.92-3.67,1.21,1.21,0,0,1-.24-.21h0a1.43,1.43,0,0,1,1.4-2.35h0a1.57,1.57,0,0,1,.3.12,2.86,2.86,0,0,0,3.68-.91,1.27,1.27,0,0,1,.21-.25h0a1.43,1.43,0,0,1,2.34,1.41h0a1.88,1.88,0,0,1-.12.3,2.84,2.84,0,0,0,.92,3.67,1.64,1.64,0,0,1,.25.21h0a1.43,1.43,0,0,1-1.41,2.34h0a.79.79,0,0,1-.3-.12,2.86,2.86,0,0,0-3.68.92,1.22,1.22,0,0,1-.2.25h0a1.43,1.43,0,0,1-2-.09,1.42,1.42,0,0,1-.33-1.32h0A1.88,1.88,0,0,1,707.91,307.75Z"/>
  <path class="cls-17" d="M1024.59,139.07a2.83,2.83,0,0,0-.92-3.67,1.21,1.21,0,0,1-.24-.21h0a1.43,1.43,0,0,1,.09-2,1.42,1.42,0,0,1,1.32-.33h0a1.48,1.48,0,0,1,.29.12,2.84,2.84,0,0,0,3.68-.92,1.21,1.21,0,0,1,.21-.24h0a1.43,1.43,0,0,1,2.34,1.41h0a.81.81,0,0,1-.12.29,2.86,2.86,0,0,0,.92,3.68,1.64,1.64,0,0,1,.25.21h0a1.43,1.43,0,0,1-1.41,2.34h0a1.57,1.57,0,0,1-.3-.12,2.85,2.85,0,0,0-3.67.92,1.64,1.64,0,0,1-.21.25h0a1.43,1.43,0,0,1-2-.09,1.42,1.42,0,0,1-.33-1.32h0A1.88,1.88,0,0,1,1024.59,139.07Z"/>
  <path class="cls-17" d="M1029.46,592.13a2.84,2.84,0,0,0-.92-3.67,1.21,1.21,0,0,1-.24-.21h0a1.42,1.42,0,0,1,1.4-2.34h0a.79.79,0,0,1,.3.12,2.86,2.86,0,0,0,3.68-.92,1.22,1.22,0,0,1,.2-.25h0a1.43,1.43,0,0,1,2,.09,1.42,1.42,0,0,1,.33,1.32h0a1.88,1.88,0,0,1-.12.3,2.84,2.84,0,0,0,.92,3.67,1.21,1.21,0,0,1,.24.21h0a1.42,1.42,0,0,1-1.36,2.3h0a1,1,0,0,1-.3-.11,2.86,2.86,0,0,0-3.68.91,1.27,1.27,0,0,1-.21.25h0a1.43,1.43,0,0,1-2.34-1.41h0A2,2,0,0,1,1029.46,592.13Z"/>
  <path class="cls-17" d="M49.29,38a2.85,2.85,0,0,0-.92-3.68,1.21,1.21,0,0,1-.24-.21h0a1.42,1.42,0,0,1,1.4-2.34h0a1.57,1.57,0,0,1,.3.12A2.85,2.85,0,0,0,53.51,31a1.64,1.64,0,0,1,.21-.25h0a1.43,1.43,0,0,1,2.34,1.41h0a1.57,1.57,0,0,1-.12.3,2.85,2.85,0,0,0,.92,3.68,1.57,1.57,0,0,1,.25.2h0a1.43,1.43,0,0,1-.09,2,1.42,1.42,0,0,1-1.32.33h0a1.57,1.57,0,0,1-.3-.12,2.85,2.85,0,0,0-3.68.92,1.16,1.16,0,0,1-.2.24h0a1.43,1.43,0,0,1-2.35-1.4h0A1.57,1.57,0,0,1,49.29,38Z"/>
  <path class="cls-17" d="M1.54,7.65A2.84,2.84,0,0,0,.62,4a1.21,1.21,0,0,1-.24-.21h0a1.43,1.43,0,0,1,1.4-2.35h0a1.57,1.57,0,0,1,.3.12A2.86,2.86,0,0,0,5.76.63,2.43,2.43,0,0,1,6,.38H6A1.43,1.43,0,0,1,8,.49a1.45,1.45,0,0,1,.33,1.26h0A1.48,1.48,0,0,1,8.19,2a2.86,2.86,0,0,0,.92,3.71A1.21,1.21,0,0,1,9.35,6h0a1.42,1.42,0,0,1,0,2,1.4,1.4,0,0,1-1.42.34h0a.79.79,0,0,1-.3-.12,2.86,2.86,0,0,0-3.68.92,1.27,1.27,0,0,1-.21.25h0A1.43,1.43,0,0,1,1.38,8h0A1.73,1.73,0,0,1,1.54,7.65Z"/>
  <path class="cls-17" d="M381.91,228.2a2.84,2.84,0,0,0-.92-3.67,1.21,1.21,0,0,1-.24-.21h0a1.43,1.43,0,0,1,1.4-2.35h0a1.57,1.57,0,0,1,.3.12,2.86,2.86,0,0,0,3.68-.91,1.22,1.22,0,0,1,.2-.25h0a1.43,1.43,0,0,1,2,.09,1.42,1.42,0,0,1,.33,1.32h0a1.48,1.48,0,0,1-.12.29,2.85,2.85,0,0,0,.92,3.68,1.21,1.21,0,0,1,.24.21h0a1.42,1.42,0,0,1-1.4,2.34h0a.79.79,0,0,1-.3-.12,2.86,2.86,0,0,0-3.68.92,1.27,1.27,0,0,1-.21.25h0a1.43,1.43,0,0,1-2.34-1.41h0A1.88,1.88,0,0,1,381.91,228.2Z"/>
  <path class="cls-17" d="M205.54,345.69a2.84,2.84,0,0,0-.92-3.67,1.21,1.21,0,0,1-.24-.21h0a1.42,1.42,0,0,1,1.4-2.34h0a.79.79,0,0,1,.3.12,2.86,2.86,0,0,0,3.68-.92,2.43,2.43,0,0,1,.2-.25h0a1.43,1.43,0,0,1,2,.09,1.42,1.42,0,0,1,.33,1.32h0a1.88,1.88,0,0,1-.12.3,2.84,2.84,0,0,0,.92,3.67,1.21,1.21,0,0,1,.24.21h0a1.42,1.42,0,0,1-1.4,2.34h0a.79.79,0,0,1-.3-.12,2.86,2.86,0,0,0-3.68.92,2.43,2.43,0,0,1-.2.25h0a1.43,1.43,0,0,1-2-.09,1.42,1.42,0,0,1-.33-1.32h0A1.88,1.88,0,0,1,205.54,345.69Z"/>
  <path class="cls-17" d="M481.54,192a2.84,2.84,0,0,0-1.34-3.54,1.27,1.27,0,0,1-.27-.18h0a1.42,1.42,0,0,1,1.12-2.49h0a1.09,1.09,0,0,1,.31.08,2.86,2.86,0,0,0,3.55-1.34,1.27,1.27,0,0,1,.18-.27h0a1.44,1.44,0,0,1,2-.13,1.46,1.46,0,0,1,.47,1.26h0a1.58,1.58,0,0,1-.09.31,2.86,2.86,0,0,0,1.35,3.54,1.51,1.51,0,0,1,.26.18h0A1.43,1.43,0,0,1,488,192h0a1.57,1.57,0,0,1-.31-.08,2.84,2.84,0,0,0-3.54,1.34,2.11,2.11,0,0,1-.18.27h0a1.44,1.44,0,0,1-2,.13,1.46,1.46,0,0,1-.47-1.26h0A1.09,1.09,0,0,1,481.54,192Z"/>
  <path class="cls-17" d="M931.44,501a3.94,3.94,0,0,0,2.2-4.77,2.14,2.14,0,0,1-.08-.44h0a2,2,0,0,1,3.55-1.31h0a1.87,1.87,0,0,1,.22.39,3.94,3.94,0,0,0,4.77,2.2,1.64,1.64,0,0,1,.44-.09h0a2,2,0,0,1,1.31,3.56h0a1.87,1.87,0,0,1-.39.22,4,4,0,0,0-2.2,4.77,1.64,1.64,0,0,1,.09.44h0a2,2,0,0,1-3.56,1.31h0a1.47,1.47,0,0,1-.21-.39,3.94,3.94,0,0,0-4.77-2.2,3.12,3.12,0,0,1-.44.09h0a2,2,0,0,1-1.31-3.56h0A2.08,2.08,0,0,1,931.44,501Z"/>
  <path class="cls-17" d="M322.5,538.86a4,4,0,0,0,2.2-4.77,1.57,1.57,0,0,1-.09-.43h0a2,2,0,0,1,3.56-1.32h0a1.87,1.87,0,0,1,.22.39,3.93,3.93,0,0,0,4.77,2.2,1.56,1.56,0,0,1,.43-.08h0a2,2,0,0,1,1.31,3.55h0a1.79,1.79,0,0,1-.38.22,3.94,3.94,0,0,0-2.2,4.77,2.14,2.14,0,0,1,.08.44h0a2,2,0,0,1-3.55,1.31h0a1.87,1.87,0,0,1-.22-.39,4,4,0,0,0-4.77-2.2,1.64,1.64,0,0,1-.44.09h0a2,2,0,0,1-1.31-3.56h0A1.87,1.87,0,0,1,322.5,538.86Z"/>
  <path class="cls-17" d="M512.84,548.57a3.94,3.94,0,0,0,2.2-4.77,3.12,3.12,0,0,1-.09-.44h0a2,2,0,0,1,3.56-1.31h0a1.87,1.87,0,0,1,.22.39,3.93,3.93,0,0,0,4.77,2.19,2.14,2.14,0,0,1,.44-.08h0a2,2,0,0,1,1.31,3.55h0a1.87,1.87,0,0,1-.39.22,3.94,3.94,0,0,0-2.2,4.77,3.12,3.12,0,0,1,.09.44h0a2,2,0,0,1-3.56,1.31h0a1.87,1.87,0,0,1-.22-.39,4,4,0,0,0-4.77-2.2,1.64,1.64,0,0,1-.44.09h0a2,2,0,0,1-1.31-3.55h0A1.87,1.87,0,0,1,512.84,548.57Z"/>
  <circle class="cls-1" cx="121.87" cy="103.29" r="16.5"/>
  <circle class="cls-1" cx="944.65" cy="119.79" r="16.5"/>
  <circle class="cls-1" cx="199.87" cy="21.37" r="9"/>
  <circle class="cls-1" cx="1060.82" cy="283.28" r="9"/>
  <circle class="cls-1" cx="138.37" cy="743.99" r="9"/>
  <circle class="cls-1" cx="172.87" cy="784.52" r="9"/>
  <circle class="cls-1" cx="105.37" cy="808.95" r="9"/>
  <path class="cls-3" d="M451.51,304.43s-5.18,5.11-11,38.62c-5.48,31.46-10.65,44.79-10.65,44.79l6.22,8.74L450,387.84s-1.71-35.19-.64-49.76l4.56,14.36,1.24-6.43a55.79,55.79,0,0,1-4.73-21.64A163.41,163.41,0,0,1,451.51,304.43Z"/>
  <path class="cls-18" d="M451.51,304.43s-7.57,4.92-13.41,38.43c-5.49,31.47-10.66,44.79-10.66,44.79l6.22,8.74,13.93-8.74s-1.72-35.19-.65-49.76l4.57,14.36,1.23-6.43A55.79,55.79,0,0,1,448,324.18,53.46,53.46,0,0,1,451.51,304.43Z"/>
  <g class="cls-19">
    <path d="M526.78,311.38a149.82,149.82,0,0,0,11.57-15.57A141.05,141.05,0,0,0,547.77,279a96.17,96.17,0,0,0,6.4-18.07,73.59,73.59,0,0,0,1.62-9.4c.06-.79.15-1.58.21-2.38l.11-2.37a34.89,34.89,0,0,1,.44-5,17.77,17.77,0,0,1,1.57-4.94,12.5,12.5,0,0,1,3.29-4.14c2.78-2.29,6.25-3.12,9.52-3.51a56.9,56.9,0,0,1,9.85-.09c3.26.18,6.5.5,9.73.82,6.46.65,12.91,1.37,19.38,1.85s12.94.74,19.4.76a211.88,211.88,0,0,0,38.5-3.46,368.37,368.37,0,0,0,37.49-9.71,324,324,0,0,0,36.24-13.64c1.49-.62,2.92-1.37,4.39-2s2.94-1.35,4.38-2.08c2.89-1.45,5.78-2.89,8.61-4.47a162.66,162.66,0,0,0,16.53-10.15l.19.23a94.65,94.65,0,0,1-7.78,5.9l-2,1.4-2.05,1.34q-2,1.35-4.13,2.59c-5.56,3.41-11.29,6.53-17.14,9.41-2.95,1.38-5.86,2.85-8.87,4.12s-6,2.64-9,3.81-6,2.44-9.14,3.47l-4.61,1.62-2.31.81-2.34.73c-3.11,1-6.22,2-9.36,2.83l-9.45,2.5c-3.17.79-6.36,1.44-9.54,2.17s-6.37,1.41-9.6,1.93a182.38,182.38,0,0,1-39,2.33c-13-.47-25.93-2.13-38.84-3.28-6.44-.5-13-1-19.27-.05-3.1.5-6.18,1.46-8.38,3.45a12.55,12.55,0,0,0-3.76,7.89,34,34,0,0,0-.29,4.68l-.07,2.49c0,.82-.14,1.65-.21,2.47a65.85,65.85,0,0,1-1.68,9.77,88,88,0,0,1-2.94,9.43c-1.18,3.07-2.51,6.07-4,9A123.33,123.33,0,0,1,527,311.59Z"/>
  </g>
</svg>
