<svg xmlns="http://www.w3.org/2000/svg" data-name="Layer 1" width="891.65252" height="180.57229" viewBox="0 0 891.65252 180.57229" xmlns:xlink="http://www.w3.org/1999/xlink"><path d="M1015.113,498.55672a11.188,11.188,0,0,1-6.56314-.44029,8.17132,8.17132,0,0,1-3.71569-11.84834l-1.43489.07054a32.91978,32.91978,0,0,0-1.41844,7.35907,11.06279,11.06279,0,0,0,1.93867,7.10512,9.80042,9.80042,0,0,0,9.1496,3.42941,14.58893,14.58893,0,0,0,8.65994-5.0771,29.26019,29.26019,0,0,0,4.97894-8.90095A17.57471,17.57471,0,0,1,1015.113,498.55672Z" transform="translate(-154.17374 -359.71386)" fill="#0c8dc4"/><path d="M1017.74409,426.5712a21.42935,21.42935,0,0,1-12.571-.84332,15.65129,15.65129,0,0,1-7.117-22.69423l-2.74839.13511c-1.2633,4.62644-2.53447,9.30243-2.71687,14.09551s.81967,9.7832,3.71331,13.60911c3.94864,5.22094,11.04762,7.51558,17.52509,6.56867s12.29178-4.78407,16.5872-9.72465c4.29429-4.93945,7.20482-10.93277,9.53662-17.04882A33.66245,33.66245,0,0,1,1017.74409,426.5712Z" transform="translate(-154.17374 -359.71386)" fill="#0c8dc4"/><path d="M705.67611,530.0711l.532-.9758-.39678-.02116Q705.74341,529.5732,705.67611,530.0711Z" transform="translate(-154.17374 -359.71386)" fill="#0c8dc4"/><path d="M705.52268,506.0758a17.99777,17.99777,0,0,0-5.12178-8.57353,10.45239,10.45239,0,0,0-9.39884-2.463c-3.24954.90879-5.85716,4.16009-5.49212,7.51485.27334,2.51122,2.03273,5.06064.98462,7.35966-1.25855,2.76045-5.29754,2.57646-7.71059,4.41579-2.23024,1.69942-2.6958,5.09-1.51543,7.63359a10.49292,10.49292,0,0,0,6.338,5.17292,31.12848,31.12848,0,0,0,8.29843,1.198q6.95346.37033,13.90634.74008C706.84648,521.39411,707.73587,513.48072,705.52268,506.0758Z" transform="translate(-154.17374 -359.71386)" fill="#0c8dc4"/><path d="M261.796,435.04272a9.74777,9.74777,0,0,0,.91349-5.54972C262.43494,431.35466,262.11751,433.20927,261.796,435.04272Z" transform="translate(-154.17374 -359.71386)" fill="#0c8dc4"/><path d="M261.97,410.07867c-2.70638-7.96747-11.05889-14.694-19.19036-12.52846-5.635,1.50132-9.43118,6.56138-13.43138,10.80376a63.04621,63.04621,0,0,1-39.40473,19.30676c-6.46674.62545-13.402.34976-18.90526,3.80209a16.21727,16.21727,0,0,0-6.40678,18.73009l-1.44078-.01939c3.99491,5.31694,12.40561,4.47634,18.204,1.21916,5.79838-3.25659,10.61213-8.336,16.91663-10.45342,6.00823-2.018,12.5414-1.07573,18.86588-.65367,6.3239.42207,13.20565.12345,18.17812-3.8068,5.63848-4.45635,8.058-13.00343,14.93387-15.09552a9.95288,9.95288,0,0,1,10.25767,3.035,9.72937,9.72937,0,0,1,2.16263,5.07475C263.67644,422.93808,264.07852,416.28441,261.97,410.07867Z" transform="translate(-154.17374 -359.71386)" fill="#0c8dc4"/><path d="M426.06907,424.92286a221.67946,221.67946,0,0,0,28.53069,99.61155,237.70856,237.70856,0,0,1,8.27133-137.93216l2.34548-3.094c-9.10522-8.08181-24.64027-3.51164-31.76807,6.35847C426.32073,399.73626,425.55852,412.75914,426.06907,424.92286Z" transform="translate(-154.17374 -359.71386)" fill="#0c8dc4"/><path d="M189.3682,479.90914c-13.94924.34557-13.91242,20.78176.00065,21.16544C203.31873,500.729,203.28192,480.29282,189.3682,479.90914Z" transform="translate(-154.17374 -359.71386)"/><path d="M253.04794,477.5509c-13.94924.34556-13.91307,20.78176,0,21.16543C266.99783,498.37044,266.961,477.93425,253.04794,477.5509Z" transform="translate(-154.17374 -359.71386)"/><path d="M251.97055,523.9575c-8.86651,6.45208-14.43109,8.92142-24.82779,11.31519-4.88959.91365-14.27736.2687-21.02268-.23124,7.12576,3.0497,14.72563,5.85395,22.60518,5.12924,11.45858-1.12842,21.45868-8.799,27.363-18.43256.49284-.80288.95855-1.62384,1.423-2.44157C255.79309,520.87971,253.51494,522.802,251.97055,523.9575Z" transform="translate(-154.17374 -359.71386)"/><path d="M276.799,390.21346c-5.17961-7.40771-13.583-12.35157-22.19309-14.71692-21.63243-3.79476-34.7,17.51116-47.39163,31.24595-6.79376,6.14558-7.85371,7.43839-18.36408,9.91193-.75444.06976-2.811.26935-3.42337.292a41.46488,41.46488,0,0,0-11.00191,2.04917,35.23469,35.23469,0,0,0-13.97314,9.33319c-7.61537,9.89966-6.578,23.5676-5.60786,35.34785,2.01139-11.12658,3.52348-22.29579,10.87209-29.66894,6.92423-4.391,9.53956-5.08661,16.22674-5.25971,17.22275,2.354,31.681-4.69776,42.88571-17.54636,11.59229-13.16832,20.38581-21.04723,26.0602-20.54535a26.25121,26.25121,0,0,1,16.30877,8.32071c6.33323,8.98149,10.52394,22.34908,9.89805,36.80117-.14017,7.63927-1.60834,13.96474-3.67075,21.75709.96952-1.71168,1.91837-3.44016,2.82524-5.18737C286.29785,433.47606,288.05151,408.93344,276.799,390.21346Z" transform="translate(-154.17374 -359.71386)"/><path d="M443.13183,467.52419c-13.94924.34557-13.91242,20.78176.00065,21.16543C457.08236,488.34406,457.04554,467.90787,443.13183,467.52419Z" transform="translate(-154.17374 -359.71386)"/><path d="M506.81157,465.16594c-13.94924.34557-13.91307,20.78176,0,21.16544C520.76145,485.98549,520.72464,465.5493,506.81157,465.16594Z" transform="translate(-154.17374 -359.71386)"/><path d="M486.52956,510.13117a16.68595,16.68595,0,0,0-14.45112.632c.38949-.06136.76864-.08332,1.15167-.12176-6.44174,2.36826-13.00491,6.75663-11.76345,14.55027,1.73816,9.47529,12.06251,17.85769,21.75192,14.23086C494.847,535.28288,498.70511,515.8976,486.52956,510.13117Zm-.50446,17.65455c-5.32172,8.85585-15.12481,5.86945-19.89233-2.46515-3.249-6.26443,2.8317-11.35685,7.48166-14.7195C484.10866,509.75751,491.9191,517.48462,486.0251,527.78572Z" transform="translate(-154.17374 -359.71386)"/><path d="M530.56261,377.8285c-5.17961-7.40771-13.583-12.35156-22.19309-14.71691-21.63243-3.79477-34.7,17.51115-47.39163,31.24595-6.79376,6.14558-7.85371,7.43838-18.36409,9.91193-.75443.06976-2.811.26934-3.42336.29195a41.46464,41.46464,0,0,0-11.00192,2.04918,35.23471,35.23471,0,0,0-13.97313,9.33318c-7.61537,9.89966-6.578,23.5676-5.60786,35.34785,2.01139-11.12658,3.52348-22.29579,10.87209-29.66894,6.92423-4.39095,9.53955-5.0866,16.22674-5.25971,17.22275,2.35405,31.681-4.69776,42.88571-17.54635,11.59228-13.16833,20.38581-21.04723,26.0602-20.54535A26.25118,26.25118,0,0,1,520.961,386.592c6.33323,8.98149,10.52394,22.34908,9.89805,36.80116-.14017,7.63927-1.60834,13.96474-3.67075,21.7571.96952-1.71169,1.91837-3.44016,2.82524-5.18737C540.06148,421.0911,541.81514,396.54849,530.56261,377.8285Z" transform="translate(-154.17374 -359.71386)"/><path d="M950.65909,481.10783c-13.94924.34557-13.91242,20.78176.00064,21.16544C964.60962,501.9277,964.5728,481.49151,950.65909,481.10783Z" transform="translate(-154.17374 -359.71386)"/><path d="M1014.33883,478.74959c-13.94924.34556-13.91307,20.78176,0,21.16543C1028.28871,499.56913,1028.25189,479.13294,1014.33883,478.74959Z" transform="translate(-154.17374 -359.71386)"/><path d="M1038.08987,391.41214c-5.17962-7.4077-13.583-12.35156-22.19309-14.71691-21.63243-3.79476-34.7,17.51115-47.39163,31.24595-6.79376,6.14558-7.85371,7.43839-18.36409,9.91193-.75443.06976-2.811.26935-3.42336.29195a41.46537,41.46537,0,0,0-11.00192,2.04918,35.23483,35.23483,0,0,0-13.97314,9.33319c-7.61537,9.89966-6.578,23.5676-5.60785,35.34785,2.01138-11.12658,3.52348-22.29579,10.87208-29.66894,6.92424-4.391,9.53956-5.08661,16.22675-5.25971,17.22275,2.354,31.681-4.69776,42.88571-17.54636,11.59228-13.16832,20.38581-21.04723,26.06019-20.54535a26.25123,26.25123,0,0,1,16.30878,8.32071c6.33322,8.98149,10.52394,22.34908,9.898,36.80117-.14016,7.63927-1.60833,13.96474-3.67075,21.75709.96952-1.71168,1.91838-3.44016,2.82525-5.18737C1047.58873,434.67475,1049.3424,410.13213,1038.08987,391.41214Z" transform="translate(-154.17374 -359.71386)"/><path d="M1012.19336,532.16147c-6.44368-7.27756-15.13-15.02566-25.45691-14.56738-9.3038.39013-16.34689,6.32967-21.14541,13.89143,3.22894-2.5291,5.93275-5.31009,9.71654-6.97818,3.60551-1.8667,10.25394-2.83493,13.12634-2.19353,4.03892.44536,10.79974,4.1132,16.27971,7.82335a106.08213,106.08213,0,0,1,13.02558,10.149A50.20287,50.20287,0,0,0,1012.19336,532.16147Z" transform="translate(-154.17374 -359.71386)"/><path d="M696.89546,464.572c-13.94924.34557-13.91242,20.78176.00065,21.16543C710.846,485.39187,710.80917,464.95568,696.89546,464.572Z" transform="translate(-154.17374 -359.71386)"/><path d="M760.5752,462.21375c-13.94924.34557-13.91307,20.78176,0,21.16544C774.52508,483.0333,774.48827,462.59711,760.5752,462.21375Z" transform="translate(-154.17374 -359.71386)"/><path d="M784.32624,374.87631c-5.17962-7.40771-13.583-12.35156-22.19309-14.71691-21.63243-3.79477-34.7,17.51115-47.39163,31.24595-6.79376,6.14558-7.85371,7.43838-18.36409,9.91193-.75443.06976-2.811.26934-3.42336.292a41.46464,41.46464,0,0,0-11.00192,2.04918,35.23481,35.23481,0,0,0-13.97314,9.33318c-7.61537,9.89966-6.578,23.5676-5.60785,35.34785,2.01138-11.12658,3.52348-22.29579,10.87208-29.66894,6.92424-4.391,9.53956-5.0866,16.22675-5.25971,17.22275,2.354,31.681-4.69776,42.88571-17.54635,11.59228-13.16833,20.38581-21.04723,26.06019-20.54535a26.25118,26.25118,0,0,1,16.30878,8.32071c6.33322,8.98149,10.52394,22.34908,9.898,36.80116-.14016,7.63927-1.60833,13.96474-3.67075,21.7571.96953-1.71169,1.91838-3.44016,2.82525-5.18737C793.8251,418.13891,795.57877,393.5963,784.32624,374.87631Z" transform="translate(-154.17374 -359.71386)"/><path d="M726.72631,532.28516c.29454-1.91127.996-2.75581,1.72718-4.50721a3.80182,3.80182,0,0,0-.51285-3.88261c-.71245-.83388-1.576-1.06512-2.209-1.88544-2.69025-4.3115,3.36071-6.44432,6.1782-8.32911-3.00739.86941-6.8112,1.17687-8.58425,4.10675a6.35461,6.35461,0,0,0-.051,5.89109c.44826,1.10807,1.87962,1.63643,2.21162,2.61532-1.9778,5.07207-1.93646,9.30509,2.93763,12.64a16.75953,16.75953,0,0,0,2.26653,1.35222,21.23686,21.23686,0,0,1-2.21292-2.6292C727.38062,536.08574,726.41562,534.263,726.72631,532.28516Z" transform="translate(-154.17374 -359.71386)"/><path d="M693.75213,497.49281c-5.70637,1.54658-5.29111,8.37251-5.6648,13.24346-6.26239.89866-8.32282,9.58493-3.69473,13.71282,7.56468,5.8565,18.422,6.33618,27.52305,4.58723a47.97174,47.97174,0,0,1-19.39035-5.08658c-1.56315-.76425-6.52659-2.9025-5.0245-6.26379,1.27711-1.65444,2.03822-.5105,3.72877-1.25466,4.96644-2.13265,2.27922-8.91582,3.71047-12.83245.35954-1.53054,3.08983.83945,4.12154,1.83,5.39647,5.73651,8.33367,11.94563,11.24789,19.65028.63466,1.84428.70771,2.15692.45715-.04478C709.89742,516.31408,705.21732,496.20865,693.75213,497.49281Z" transform="translate(-154.17374 -359.71386)"/></svg>