<svg id="Layer_1" data-name="Layer 1" xmlns="http://www.w3.org/2000/svg" viewBox="0 0 241.07 250.73"><defs><style>.cls-1{fill:#0c8dc4}.cls-2{fill:#231f20;}</style></defs><path class="cls-1" d="M127.82,208.54A83.16,83.16,0,0,1,63.66,72.48,16,16,0,0,1,88.34,92.85a51.15,51.15,0,0,0,39.48,83.69,16,16,0,1,1,0,32Z"/><path class="cls-2" d="M55.61,71.84A71.49,71.49,0,0,1,78.72,48.49,80.09,80.09,0,0,1,110.34,37a92.22,92.22,0,0,1,33.93,2c2.79.66,5.52,1.53,8.25,2.42s5.46,1.84,8.15,2.92a50.24,50.24,0,0,1,7.77,3.87,68,68,0,0,1,7,5.18,79.32,79.32,0,0,1,11.93,12.45,84.59,84.59,0,0,1,8.94,14.5,99.38,99.38,0,0,1,9.12,31.94,108.13,108.13,0,0,1,.6,16.38c-.17,5.46-.54,10.93-1.24,16.44a86.06,86.06,0,0,1-3.58,16.45,64.2,64.2,0,0,1-7.47,15.33,80.44,80.44,0,0,1-24.39,23.89,91.55,91.55,0,0,1-31.76,12.71,90.25,90.25,0,0,1-66-12.7,94.22,94.22,0,0,1-13.88-10.26c-.53-.5-1.08-1-1.58-1.49l-1.5-1.57c-1-1-1.93-2.14-2.84-3.26s-1.77-2.29-2.61-3.47-1.63-2.37-2.41-3.58a90.16,90.16,0,0,1-7.84-15.3,87.91,87.91,0,0,1-4.62-16.41A84.24,84.24,0,0,1,33,128.63a81.91,81.91,0,0,1,2-16.56A80.4,80.4,0,0,1,48.24,82.28l1.21.72a85.85,85.85,0,0,0-8.27,30,83.18,83.18,0,0,0,3,30.13A78.26,78.26,0,0,0,49.79,157a77.09,77.09,0,0,0,7.94,12.45c.76,1,1.51,1.93,2.34,2.84s1.6,1.85,2.45,2.73c1.64,1.81,3.33,3.56,5,5.3a73.21,73.21,0,0,0,11.1,9.61A75.56,75.56,0,0,0,105.8,201a76.63,76.63,0,0,0,29.38.06,74.88,74.88,0,0,0,27.2-11,90.76,90.76,0,0,0,21.41-20.17,135.64,135.64,0,0,0,8.35-12.4,78.26,78.26,0,0,0,6.64-13.79,53.43,53.43,0,0,0,3-15.2A67,67,0,0,0,196,98.3a73.81,73.81,0,0,0-7.7-13.17,88,88,0,0,0-21.43-20.49c-2-1.39-4.11-2.63-6.18-3.9l-6.18-3.9A50,50,0,0,0,148,53.35c-1.11-.55-2.29-.92-3.44-1.37s-2.33-.79-3.51-1.17a77.53,77.53,0,0,0-29.45-2.89,90.59,90.59,0,0,0-29,7.71A107,107,0,0,0,56.69,72.74Z"/><path class="cls-2" d="M148.84,98.23A37.13,37.13,0,0,1,163,123.89c0,.52.1,1,.11,1.55l0,1.56c-.05,1,0,2.07-.17,3.1a37.49,37.49,0,0,1-3.6,11.83,42,42,0,0,1-7.2,9.8l-2.2,2.05a11.68,11.68,0,0,1-1.14,1l-1.18.91-1.16.93c-.39.29-.82.55-1.22.83-.83.54-1.63,1.11-2.48,1.61A47.06,47.06,0,0,1,120.53,166a43.58,43.58,0,0,1-11.85-1.13,42.24,42.24,0,0,1-11.12-4.68,41.68,41.68,0,0,1-16.21-18.06,44.88,44.88,0,0,1-2.12-5.85l-.43-1.5-.2-.76-.14-.77c-.19-1-.34-2-.49-3.08a25,25,0,0,1,0-3.12l0-1.56.17-1.54a42.13,42.13,0,0,1,1.24-6.05A38.47,38.47,0,0,1,92.23,98.23l.72.69a38.35,38.35,0,0,0-7.44,20,35.8,35.8,0,0,0,0,5.18l.11,1.28.19,1.27c.14.84.18,1.68.31,2.51A41.84,41.84,0,0,0,88.47,139a40.1,40.1,0,0,0,5,8.92,38.65,38.65,0,0,0,7.39,7.23,39.27,39.27,0,0,0,9.27,4.88,41.19,41.19,0,0,0,10.43,2.17h2.7a12.11,12.11,0,0,0,1.35,0l1.35-.16,1.34-.16a7.64,7.64,0,0,0,1.34-.22l2.64-.64a30.54,30.54,0,0,0,17.14-12.43A42.65,42.65,0,0,0,153,139.2,56.42,56.42,0,0,0,155.34,119a42.45,42.45,0,0,0-7.22-20.09Z"/><path class="cls-2" d="M120.53,73.55a19.73,19.73,0,0,1,3,4.66,24.94,24.94,0,0,1,1.64,4.66,19,19,0,0,1,.57,4.66c0,1.55-.11,3.1-.17,4.66a66.12,66.12,0,0,1-.57,9.31c-.13.78-.31,1.56-.5,2.33a15.56,15.56,0,0,1-.71,2.33,12.87,12.87,0,0,1-3.23,4.66,13,13,0,0,1-3.22-4.66,15.56,15.56,0,0,1-.71-2.33,23.58,23.58,0,0,1-.5-2.33,64.65,64.65,0,0,1-.57-9.31c-.06-1.56-.17-3.11-.17-4.66a18.13,18.13,0,0,1,.57-4.66,24.89,24.89,0,0,1,1.63-4.66A20.05,20.05,0,0,1,120.53,73.55Z"/></svg>