<svg id="Layer_1" data-name="Layer 1" xmlns="http://www.w3.org/2000/svg" viewBox="0 0 241.07 250.73"><defs><style>.cls-1{fill:#0c8dc4;}.cls-2{fill:#231f20;}</style></defs><path class="cls-1" d="M83.52,101.08l-2.85,21.21a8.25,8.25,0,0,0,2,6.54L155,211.38a8.26,8.26,0,0,0,11.92.52L198,182.22a8.25,8.25,0,0,0-6.4-14.2c-11.6,1-24.74.39-34.52-5.24-22.08-12.73-52-55.17-52-55.17l-6.44-9.92A8.26,8.26,0,0,0,83.52,101.08Z"/><path class="cls-2" d="M97.8,129.75c-5.27-6.08-10.6-12.11-15.82-18.21l-.27-.32-.08-.66c-.48-3.88-.79-7.76-1-11.63s-.41-7.75-.53-11.62-.15-7.74-.15-11.61,0-7.73.14-11.59l.11-4.48,4.65-.17c4-.14,7.9-.26,11.85-.3s7.9,0,11.85,0l5.93.13,5.93.22c4,.13,7.91.37,11.86.55l1.63.07.79.89C141,68.2,147.35,75.35,154,82.23s13.47,13.51,20.47,20,14.2,12.79,21.41,19.07,14.41,12.57,21.4,19.07l3.37,3.14-3.32,3.66c-3.88,4.26-7.86,8.42-11.78,12.64s-7.9,8.38-11.88,12.53l-12,12.44c-4,4.1-8,8.24-12.14,12.28l-4.12,4.07-4-4c-5.5-5.41-10.77-11-16.07-16.65l-15.88-16.83-15.84-16.88C108.28,141.13,103,135.51,97.8,129.75Zm3.52-3.4c5.56,5.26,11.26,10.47,16.93,15.68l17.08,15.58,17.12,15.55c5.71,5.18,11.46,10.33,17,15.69l-8.17.08c4-4.16,8.06-8.22,12.1-12.32l12.26-12.16q6.15-6.07,12.36-12.07c4.16-4,8.27-8,12.47-12l.05,6.8c-6.6-6.9-13-14-19.38-21.13s-12.79-14.2-19.37-21.12-13.35-13.65-20.3-20.19S137.23,72,130,65.79l2.42,1c-3.94.33-7.89.72-11.83,1l-5.92.45-5.92.35q-5.92.31-11.85.46c-3.94.11-7.89.15-11.85.15l4.77-4.65q-.34,5.79-.83,11.56c-.33,3.85-.69,7.7-1.13,11.55s-.9,7.69-1.49,11.54-1.2,7.68-2,11.51l-.35-1C89.81,115.22,95.54,120.81,101.32,126.35Z"/><path class="cls-2" d="M145.62,93.64a75,75,0,0,0-10.13.12,23.7,23.7,0,0,0-8,2.07,14.47,14.47,0,0,0-5.1,4.39,55.65,55.65,0,0,0-3.91,6.84c-.29.68-.66,1.35-1,2l-.48,1c-.13.32-.28.64-.43,1a14.11,14.11,0,0,0-1.08,3.38,3.18,3.18,0,0,0,0,1.26,2.19,2.19,0,0,0,.66,1.17,4.86,4.86,0,0,0,1.55,1,12,12,0,0,0,2.13.57,26.08,26.08,0,0,0,9.76-.9,78.1,78.1,0,0,0,9.83-3.42,81.74,81.74,0,0,1,10.31-3.61,33.66,33.66,0,0,1,12.26-1,21.17,21.17,0,0,1,3.68.76,16.79,16.79,0,0,1,3.91,1.72,16.17,16.17,0,0,1,1.91,1.31c.52.45,1,.91,1.54,1.38a15.59,15.59,0,0,1,1.42,1.59,13.12,13.12,0,0,1,1.26,1.8,17.73,17.73,0,0,1,2.62,8.39,19.74,19.74,0,0,1-1.23,7.93,26,26,0,0,1-8.12,11.2,28.5,28.5,0,0,1-11.55,5.81,24.23,24.23,0,0,1-12.6-.18,19.77,19.77,0,0,1-9.74-6.5l.78-1.23a26.34,26.34,0,0,0,9.68.25,21.93,21.93,0,0,0,7.75-3.12,23.79,23.79,0,0,0,5.83-5.26,17.5,17.5,0,0,0,3.18-6,8.73,8.73,0,0,0,.36-2.25,4.76,4.76,0,0,0-.24-1.47.85.85,0,0,0-.16-.37c-.09-.12-.08-.28-.22-.41a4.91,4.91,0,0,1-.31-.44c-.06-.07-.08-.16-.17-.24a4.25,4.25,0,0,0-2.05-1.12c-2.14-.69-5.24-.81-8.42-.95s-6.66-.21-10.15-.21-7,.11-10.56.42-7,.7-10.88.74a24.15,24.15,0,0,1-3-.18,13,13,0,0,1-3.28-.84,10,10,0,0,1-3.26-2.18,11.15,11.15,0,0,1-2.23-3.38,19.19,19.19,0,0,1-1.37-6.92,27.4,27.4,0,0,1,.09-3.16c.12-1,.23-2,.4-3a23.49,23.49,0,0,1,5.53-11.5,22,22,0,0,1,5.35-4.5,21.42,21.42,0,0,1,6.51-2.51A23.17,23.17,0,0,1,136.7,86a26.17,26.17,0,0,1,5.21,2.61,21.82,21.82,0,0,1,4.39,3.71Z"/><path class="cls-2" d="M106.07,85.18a89.82,89.82,0,0,1,11.49,6c3.64,2.21,7.12,4.59,10.52,7.06a193,193,0,0,1,19.14,16.07,189.41,189.41,0,0,1,17,18.35c2.62,3.27,5.16,6.64,7.54,10.17a89.2,89.2,0,0,1,6.55,11.21,90.09,90.09,0,0,1-11.51-6c-3.64-2.2-7.12-4.58-10.51-7a189.31,189.31,0,0,1-19.13-16.09,191.89,191.89,0,0,1-17-18.36c-2.62-3.27-5.16-6.64-7.54-10.17A89.71,89.71,0,0,1,106.07,85.18Z"/><path class="cls-2" d="M98.38,78.53c-.73-8.08-2.29-15.42-5.54-20.87a24.53,24.53,0,0,0-2.7-3.73c-.45-.6-1-1.09-1.54-1.64s-1.11-1-1.7-1.48a64.16,64.16,0,0,0-8.09-5.1,64.64,64.64,0,0,0-9.91-4.5,25.49,25.49,0,0,0-2.73-.87c-.92-.25-1.86-.54-2.79-.71A30,30,0,0,0,57.73,39a25.77,25.77,0,0,0-11,2.14A22.81,22.81,0,0,0,42.11,44a21.82,21.82,0,0,0-3.61,3.79,23.53,23.53,0,0,0-3.86,8.53c-.19.72-.3,1.44-.45,2.15s-.21,1.45-.28,2.18a35.23,35.23,0,0,0-.13,4.5,41.85,41.85,0,0,0,.45,4.74c.07.4.12.82.2,1.22s.19.79.28,1.2.19.8.26,1.22l.12.62.2.59.79,2.4,1.08,2.31.28.59.35.54.72,1.08c.24.36.48.73.74,1.09l.89,1a20.83,20.83,0,0,0,4,3.49c.77.47,1.58.88,2.37,1.33A7.73,7.73,0,0,0,47.8,89l1.28.5A31.65,31.65,0,0,0,60,91.46a18.63,18.63,0,0,0,2.79-.09c.93-.09,1.86-.09,2.79-.25A41.31,41.31,0,0,0,71,89.93a40.89,40.89,0,0,0,10.25-4.49l3.42,8.21a118.2,118.2,0,0,1-12.4,2.47c-2.06.36-4.17.45-6.24.62-1,.09-2.09,0-3.14.07H61.35c-.53,0-1.05,0-1.57-.08A45.88,45.88,0,0,1,35.72,88.9c-7.4-4.85-13.61-13-14.84-22.58a27.91,27.91,0,0,1,0-7.36,24,24,0,0,1,2.17-7.15,25.24,25.24,0,0,1,9.74-10.63,36.64,36.64,0,0,1,6.12-3c2.08-.76,4.16-1.36,6.22-1.89a101.9,101.9,0,0,1,12.33-2c.51-.05,1-.12,1.54-.19L60.58,34c1-.14,2.08-.19,3.12-.29s2.08-.13,3.13-.23,2.1-.2,3.16-.21l3.22-.09,3.27.12a33.89,33.89,0,0,1,6.62,1,28.9,28.9,0,0,1,20.22,18.92,29.83,29.83,0,0,1,1.06,13.67A28.64,28.64,0,0,1,99.78,79Z"/></svg>