<svg id="Layer_1" data-name="Layer 1" xmlns="http://www.w3.org/2000/svg" viewBox="0 0 241.07 250.73"><defs><style>.cls-1{fill:#0c8dc4;}.cls-2{fill:#231f20;}</style></defs><circle class="cls-1" cx="100.26" cy="158.32" r="11.66"/><circle class="cls-1" cx="185.46" cy="158.32" r="11.66"/><path class="cls-1" d="M163.36,118.54v-17A3.55,3.55,0,0,1,166.91,98h13.82a3.56,3.56,0,0,1,2.57,1.1l16.16,17a3.54,3.54,0,0,1-2.57,6h-30A3.55,3.55,0,0,1,163.36,118.54Z"/><path class="cls-2" d="M114.85,156.62c3.64-.48,7.28-.87,10.92-1.2l5.45-.48,5.46-.39c7.27-.53,14.55-.86,21.82-1.11l-3.64,3.63c-.22-6.5-.33-13-.4-19.5s.06-13,.42-19.49.84-13,1.29-19.5.81-13,.91-19.5l1.42,1.42c-8.05-.16-16.11,0-24.17.28s-16.11.89-24.17,1.36S94,83,86,83.18s-16.12.42-24.18.56l4.67-4.66c.16,6.5.19,13,.16,19.5s-.18,13-.37,19.5-.4,13-.75,19.49-.69,13-1.12,19.5l-2.59-2.58,6,.44c2,.13,4,.33,6,.49q6,.51,11.94,1.2v.9q-6,.71-11.94,1.2c-2,.17-4,.37-6,.5l-6,.44-2.4.18-.18-2.77c-.43-6.5-.84-13-1.12-19.5s-.52-13-.76-19.49-.32-13-.36-19.5,0-13,.16-19.5l.11-4.75,4.55.08c8.06.14,16.12.36,24.18.56s16.11.51,24.17,1,16.11,1,24.17,1.36,16.12.44,24.17.29l1.4,0,0,1.45c.11,6.5.49,13,.92,19.5s1,13,1.29,19.5.47,13,.41,19.49-.18,13-.4,19.5l-.13,3.77-3.51-.13c-7.27-.25-14.55-.58-21.82-1.11l-5.46-.39-5.45-.48c-3.64-.33-7.28-.72-10.92-1.21Z"/><path class="cls-2" d="M100.26,139.93a17.07,17.07,0,0,1,11.94,5.21,18.11,18.11,0,0,1,5.08,11.93,18.67,18.67,0,0,1-4.36,12.65,18.17,18.17,0,0,1-5.57,4.46,19,19,0,0,1-7.09,2,18.77,18.77,0,0,1-13-6.06,18.4,18.4,0,0,1-4.8-13A17.63,17.63,0,0,1,88,144.77,17.27,17.27,0,0,1,100.26,139.93Zm0,5.11a11.91,11.91,0,0,0-8.32,3.71,11.55,11.55,0,0,0-3,8.32,10.84,10.84,0,0,0,3.74,7.61,10.49,10.49,0,0,0,7.6,2.48,10.87,10.87,0,0,0,8-2.11,10.71,10.71,0,0,0,4.18-8,11.31,11.31,0,0,0-3.46-8.69A12.25,12.25,0,0,0,100.26,145Z"/><path class="cls-2" d="M197.92,145.86A7.69,7.69,0,0,1,199,147c.3.42.56.88.84,1.31s.47.92.74,1.36l.7,1.37a15.84,15.84,0,0,1,1.45,6,16.33,16.33,0,0,1-4.34,11.67,16.71,16.71,0,0,1-5.24,3.85,17.42,17.42,0,0,1-6.43,1.62,17.24,17.24,0,0,1-6.69-1c-.53-.21-1.07-.41-1.6-.65s-1-.5-1.59-.73l-1.64-.76c-.52-.29-1.05-.6-1.56-.94l-1.3-1.28c-.4-.46-.8-.92-1.19-1.39a14.19,14.19,0,0,1-1-1.57c-.27-.55-.49-1.13-.71-1.7a18.46,18.46,0,0,1-1-7.15,17.52,17.52,0,0,1,6-12.24,17,17,0,0,1,12.24-4.1,16.27,16.27,0,0,1,6.09,1.65c.46.26.92.5,1.36.77s.87.56,1.31.82l1.28.87Q197.35,145.33,197.92,145.86Zm-1.79,1.79c-.32-.29-.64-.58-.95-.9s-.67-.55-1-.83a8,8,0,0,0-1.14-.65c-.4-.17-.82-.31-1.23-.46a13.14,13.14,0,0,0-5.08-.57,12.18,12.18,0,0,0-8.38,4.45,11.59,11.59,0,0,0-2.52,8.38,10.58,10.58,0,0,0,1.22,4c.18.29.35.59.52.88a7,7,0,0,1,.49.89c.18.29.33.61.51.91s.41.57.63.84.37.63.55,1a10.06,10.06,0,0,0,.67.94,5.57,5.57,0,0,0,.86.75c.32.2.66.38,1,.57a11.75,11.75,0,0,0,4.46,1.26,12.17,12.17,0,0,0,9-3.07,13,13,0,0,0,4.2-9,13.45,13.45,0,0,0-.77-5.13c-.17-.4-.32-.82-.52-1.21s-.47-.75-.73-1.1l-.87-1A5.46,5.46,0,0,1,196.13,147.65Z"/><path class="cls-2" d="M201.3,154.71l20.56-.64-3,3c-.5-3.38-.73-6.76-.91-10.14s-.23-6.77-.19-10.15.13-6.76.31-10.15.46-6.76.75-10.14l.92,2.18-7.24-8.42c-2.44-2.77-4.91-5.51-7.49-8.14s-5.21-5.21-7.92-7.71-5.5-4.92-8.32-7.3l1.39.57L174.33,89c-2.64.17-5.28.39-7.91.51s-5.28.22-7.92.31l4.18-4.18L163,94.6l.2,8.92c.09,6,.05,11.9-.06,17.85s-.29,11.9-.63,17.85-.82,11.9-1.69,17.85l-2.28-2.27,13.63-.73v6l-13.63-.73-2-.11-.31-2.17c-.87-5.95-1.31-11.9-1.7-17.85s-.53-11.9-.63-17.85-.14-11.9-.05-17.85L154,94.6l.29-8.93.14-4.3,4,.13c2.64.08,5.28.17,7.92.3s5.27.34,7.91.52l15.83,1.36,1,.08.43.48c2.45,2.76,4.94,5.49,7.52,8.12s5.22,5.2,7.94,7.69,5.51,4.9,8.35,7.26l8.62,7,.79.65.13,1.54c.29,3.38.59,6.76.75,10.14s.28,6.77.31,10.15,0,6.77-.19,10.15-.41,6.76-.91,10.14l-.45,3.09-2.55-.08-20.56-.64Z"/><path class="cls-2" d="M169.22,96.31c5.65-.39,11.63-.66,17.41-.61h1.2l.46.7a53.57,53.57,0,0,0,4.1,5l4.24,4.88c1.43,1.61,2.86,3.22,4.32,4.8a27.47,27.47,0,0,0,4.66,4.48l3.37,2.24-4.61.65c-2.79.39-5.58.59-8.37.76-1.39.07-2.79.16-4.18.19a41.83,41.83,0,0,1-4.19,0c-1.39-.07-2.79-.29-4.18-.39a25.49,25.49,0,0,0-4.19,0,43.42,43.42,0,0,0-8.37,1.34l-4,1.13.29-4.8c.22-3.56.53-7.11.89-10.54Zm3.34,3.34c.35,3.09.76,6,1.12,8.87s.67,5.54.88,8.23l-3.67-3.67a42.68,42.68,0,0,0,8.37,1.35,25.49,25.49,0,0,0,4.19,0c1.39-.1,2.79-.32,4.18-.39a39,39,0,0,1,4.19,0c1.39,0,2.79.12,4.18.18,2.79.18,5.58.38,8.37.77l-1.25,2.89a26.66,26.66,0,0,0-4.2-4.91c-1.49-1.55-3-3.07-4.55-4.59l-4.63-4.51A55,55,0,0,0,185,99.55l1.66.71C181.92,100.31,177.41,100,172.56,99.65Z"/><path class="cls-2" d="M31.67,96.48A14.91,14.91,0,0,1,37,93.74,18.8,18.8,0,0,1,42.32,93a18.5,18.5,0,0,1,5.33.75A14.74,14.74,0,0,1,53,96.48a14.74,14.74,0,0,1-5.32,2.75,18.5,18.5,0,0,1-5.33.75A18.8,18.8,0,0,1,37,99.22,14.91,14.91,0,0,1,31.67,96.48Z"/><path class="cls-2" d="M19.21,120.59a30.58,30.58,0,0,1,8.44-2.74,47.29,47.29,0,0,1,8.44-.75,46.21,46.21,0,0,1,8.44.74A30.07,30.07,0,0,1,53,120.59a29.78,29.78,0,0,1-8.44,2.76,46.21,46.21,0,0,1-8.44.74,47.29,47.29,0,0,1-8.44-.75A30.28,30.28,0,0,1,19.21,120.59Z"/><path class="cls-2" d="M31.67,144.71A14.91,14.91,0,0,1,37,142a18.8,18.8,0,0,1,5.32-.76,18.5,18.5,0,0,1,5.33.75A14.74,14.74,0,0,1,53,144.71a14.74,14.74,0,0,1-5.32,2.75,18.5,18.5,0,0,1-5.33.75,18.8,18.8,0,0,1-5.32-.76A14.91,14.91,0,0,1,31.67,144.71Z"/></svg>