<svg id="Layer_1" data-name="Layer 1" xmlns="http://www.w3.org/2000/svg" viewBox="0 0 241.07 250.73"><defs><style>.cls-1{fill:#0c8dc4;}.cls-2{fill:#231f20;}</style></defs><path class="cls-1" d="M69.9,181.58,145.24,59.72s-4,60-63.43,135.08Z"/><path class="cls-2" d="M64.49,34c5.93,6.27,11.45,12.82,16.87,19.42S92,66.82,97.09,73.63q15.3,20.45,29.29,41.76t26.78,43.42c4.23,7.39,8.35,14.85,12.29,22.44s7.74,15.25,11.14,23.18c-6-6.26-11.47-12.8-16.89-19.4S149.08,171.67,144,164.86q-15.3-20.45-29.27-41.77T87.93,79.66c-4.23-7.4-8.35-14.86-12.29-22.44S67.89,42,64.49,34Z"/><path class="cls-2" d="M164.31,75c-2.25,6.69-4.93,13.11-7.71,19.48s-5.78,12.6-8.86,18.78q-9.33,18.51-20,36.21T105.2,184.09c-4,5.63-8.11,11.2-12.41,16.65s-8.73,10.83-13.58,15.95c2.23-6.69,4.91-13.12,7.69-19.49s5.77-12.6,8.86-18.78q9.33-18.49,20-36.2t22.57-34.65c4-5.63,8.11-11.2,12.41-16.65S159.46,80.09,164.31,75Z"/></svg>